<?xml version="1.0" encoding="UTF-8"?>
<svg version="1.1" xmlns="http://www.w3.org/2000/svg" width="256" height="256">
<path d="M0 0 C84.48 0 168.96 0 256 0 C256 84.48 256 168.96 256 256 C171.52 256 87.04 256 0 256 C0 171.52 0 87.04 0 0 Z " fill="#FDFDFD" transform="translate(0,0)"/>
<path d="M0 0 C31.90243902 0 31.90243902 0 38.625 6.5625 C40.58260126 11.45650315 40.90853394 15.80408689 40 21 C38.60404284 23.80157491 37.10406223 25.63292999 35 28 C35.78375 28.5775 36.5675 29.155 37.375 29.75 C40.38770602 32.33231944 41.74846748 34.20333917 42.30078125 38.1484375 C42.32729014 43.18512597 41.90150452 46.69776916 39 51 C28.46682997 61.24848976 14.07807959 57 0 57 C0 38.19 0 19.38 0 0 Z " fill="#AC1E1E" transform="translate(33,100)"/>
<path d="M0 0 C1.23282463 0.00607269 1.23282463 0.00607269 2.49055481 0.01226807 C3.35570206 0.00876343 4.2208493 0.00525879 5.11221313 0.00164795 C7.98124641 -0.00717794 10.85003451 -0.0013172 13.71907043 0.00543213 C15.7068232 0.00408573 17.69457564 0.0021454 19.68232727 -0.00036621 C23.85199615 -0.00331864 28.02157945 0.00098398 32.1912384 0.01031494 C37.54496319 0.02170953 42.89848747 0.01515069 48.2522049 0.00317001 C52.35790019 -0.00404538 56.46354768 -0.00176213 60.56924438 0.0034256 C62.54368107 0.00476298 64.51812204 0.00311129 66.49255371 -0.00153351 C69.24851534 -0.00659348 72.00414896 0.001104 74.76008606 0.01226807 C75.58196915 0.0082196 76.40385223 0.00417114 77.25064087 0 C82.89679237 0.04252907 82.89679237 0.04252907 85.12532043 2.27105713 C85.35084385 5.12671072 85.44960807 7.85359223 85.43782043 10.70855713 C85.45393372 11.48521729 85.470047 12.26187744 85.48664856 13.06207275 C85.49157697 18.78395383 85.49157697 18.78395383 83.82600403 20.99908447 C81.01314691 23.10287224 77.79933209 22.58096512 74.43782043 22.45855713 C73.7359259 22.44502197 73.03403137 22.43148682 72.31086731 22.4175415 C70.58202215 22.38225895 68.85357278 22.32845296 67.12532043 22.27105713 C68.34273624 27.79093108 70.28513346 31.21366873 74.12532043 35.39605713 C75.11359198 36.51486446 76.09919754 37.63603145 77.08235168 38.75933838 C77.58460266 39.33119873 78.08685364 39.90305908 78.60432434 40.49224854 C81.12074968 43.43521402 83.46926597 46.50231176 85.81282043 49.58355713 C86.24658997 50.15283936 86.6803595 50.72212158 87.12727356 51.30865479 C88.12931696 52.62741256 89.12775718 53.94890714 90.12532043 55.27105713 C95.36710532 50.9411807 100.03159334 46.33929892 104.62532043 41.33355713 C105.88454805 39.96917751 107.1449585 38.60588858 108.40657043 37.24371338 C109.016297 36.58258545 109.62602356 35.92145752 110.25422668 35.24029541 C112.69832649 32.66799517 115.26166858 30.23001523 117.85774231 27.81182861 C119.44298101 26.2174626 119.44298101 26.2174626 119.12532043 23.27105713 C117.92133606 23.22207275 116.71735168 23.17308838 115.47688293 23.12261963 C113.90133846 23.0475937 112.32581877 22.97204579 110.75032043 22.89605713 C109.95625793 22.86511963 109.16219543 22.83418213 108.34407043 22.80230713 C102.35188293 22.49761963 102.35188293 22.49761963 100.12532043 20.27105713 C99.86653137 18.42340088 99.86653137 18.42340088 99.85969543 16.20855713 C99.85582825 15.01359619 99.85582825 15.01359619 99.85188293 13.79449463 C99.85961731 12.96176025 99.86735168 12.12902588 99.87532043 11.27105713 C99.86371887 10.02195557 99.86371887 10.02195557 99.85188293 8.74761963 C99.85446106 7.950979 99.85703918 7.15433838 99.85969543 6.33355713 C99.86195129 5.60265869 99.86420715 4.87176025 99.86653137 4.11871338 C100.12532043 2.27105713 100.12532043 2.27105713 102.12532043 0.27105713 C104.61388956 0.07282342 106.9911618 -0.00174975 109.48078918 0.01226807 C110.23864716 0.00876343 110.99650513 0.00525879 111.77732849 0.00164795 C114.28925157 -0.00717417 116.80089435 -0.00131861 119.31282043 0.00543213 C121.05395054 0.00408561 122.79508029 0.0021452 124.53620911 -0.00036621 C128.18801955 -0.00331812 131.83973227 0.0009823 135.49153137 0.01031494 C140.17939025 0.02170954 144.86702014 0.01515042 149.55487061 0.00317001 C153.15101354 -0.00404679 156.74710191 -0.00176149 160.34324646 0.0034256 C162.07206753 0.00476259 163.80089351 0.00311264 165.52970886 -0.00153351 C167.94322384 -0.00659584 170.35636467 0.00110714 172.76985168 0.01226807 C173.48887665 0.0082196 174.20790161 0.00417114 174.94871521 0 C179.89679147 0.04252817 179.89679147 0.04252817 182.12532043 2.27105713 C182.35084385 5.12671072 182.44960807 7.85359223 182.43782043 10.70855713 C182.45393372 11.48521729 182.470047 12.26187744 182.48664856 13.06207275 C182.49158842 18.79725601 182.49158842 18.79725601 180.78816223 21.00079346 C178.20585784 22.97344502 175.82067562 22.53519587 172.62532043 22.52105713 C159.53096209 23.2222998 151.63517556 32.03942702 143.29328918 41.30621338 C142.15381203 42.60002152 141.02205703 43.90067837 139.89875793 45.20855713 C137.85429661 47.58625665 135.7733928 49.92936184 133.68782043 52.27105713 C133.0084845 53.03418213 132.32914856 53.79730713 131.62922668 54.58355713 C131.13293762 55.14043213 130.63664856 55.69730713 130.12532043 56.27105713 C129.13532043 55.94105713 128.14532043 55.61105713 127.12532043 55.27105713 C128.51960941 50.93412513 130.52654973 48.57372033 133.81282043 45.45855713 C136.9012143 42.47178423 139.86588417 39.5014405 142.62532043 36.20855713 C149.65528854 28.07552611 158.169029 18.98750043 169.42219543 17.97418213 C172.32489242 17.96055444 175.22748497 18.10257832 178.12532043 18.27105713 C178.12532043 13.32105713 178.12532043 8.37105713 178.12532043 3.27105713 C153.70532043 3.60105713 129.28532043 3.93105713 104.12532043 4.27105713 C104.12532043 8.56105713 104.12532043 12.85105713 104.12532043 17.27105713 C105.16172668 17.30843994 106.19813293 17.34582275 107.26594543 17.38433838 C108.63577228 17.45001501 110.00556235 17.51646177 111.37532043 17.58355713 C112.39819153 17.61739502 112.39819153 17.61739502 113.44172668 17.6519165 C116.45094766 17.81260306 118.87201592 18.15197215 121.60969543 19.43902588 C123.12532043 21.27105713 123.12532043 21.27105713 123.45417786 24.065979 C122.45873959 33.76762234 108.87539492 43.75922287 102.06282043 50.45855713 C100.99528936 51.51602175 99.92822952 52.57396233 98.86164856 53.63238525 C96.28825588 56.18409297 93.70863676 58.7293917 91.12532043 61.27105713 C87.13076645 58.17712982 84.04237936 54.90807213 81.00032043 50.89605713 C80.04268167 49.64682646 79.08432627 48.39814488 78.12532043 47.14996338 C77.63547668 46.51074951 77.14563293 45.87153564 76.64094543 45.21295166 C75.12754354 43.27390548 73.57325519 41.37686338 72.00032043 39.48590088 C71.49774719 38.87343506 70.99517395 38.26096924 70.47737122 37.62994385 C69.51757138 36.46263687 68.54766944 35.3035378 67.5662384 34.15435791 C64.42965046 30.29349698 63.04335073 27.27706378 63.12532043 22.27105713 C64.60969543 19.84918213 64.60969543 19.84918213 67.12532043 18.27105713 C71.84480864 17.73717837 76.3600653 18.0945662 81.12532043 18.27105713 C81.12532043 13.32105713 81.12532043 8.37105713 81.12532043 3.27105713 C39.54532043 3.76605713 39.54532043 3.76605713 -2.87467957 4.27105713 C-3.20467957 8.89105713 -3.53467957 13.51105713 -3.87467957 18.27105713 C-1.97717957 18.18855713 -0.07967957 18.10605713 1.87532043 18.02105713 C10.23953119 18.03017841 19.37750503 19.59793657 25.66438293 25.63043213 C28.81405832 29.16750074 31.79572447 32.82767695 34.74055481 36.53619385 C37.44711403 39.92702773 40.19758634 43.28243036 42.93782043 46.64605713 C44.53517448 48.61046871 46.13157218 50.57548549 47.72053528 52.54669189 C48.96556333 54.07495625 50.24429928 55.57562271 51.52766418 57.07183838 C53.12532043 59.27105713 53.12532043 59.27105713 52.87532043 62.08355713 C52.62782043 62.80543213 52.38032043 63.52730713 52.12532043 64.27105713 C48.38027737 60.61453326 44.89794085 56.81345029 41.50032043 52.83355713 C40.98252014 52.23027588 40.46471985 51.62699463 39.93122864 51.00543213 C36.25773203 46.69168318 32.7653819 42.26227721 29.31282043 37.77105713 C23.70393802 30.54282013 19.34372991 25.41289843 10.12532043 23.27105713 C6.63913837 22.92520241 3.14784161 22.85883706 -0.35319519 22.7925415 C-2.42546082 22.71246338 -2.42546082 22.71246338 -5.87467957 22.27105713 C-8.44996204 18.40813342 -8.16922427 15.18158835 -8.12467957 10.70855713 C-8.13241394 9.92802979 -8.14014832 9.14750244 -8.14811707 8.34332275 C-8.12378781 1.29392044 -7.04688801 0.05307998 0 0 Z " fill="#595656" transform="translate(40.87467956542969,43.72894287109375)"/>
<path d="M0 0 C3.96 0 7.92 0 12 0 C17.23647732 12.93784743 22.40289993 25.90095909 27.38461304 38.93911743 C27.87755236 40.22800106 28.37219795 41.51623342 28.86856079 42.80380249 C29.56588425 44.61465217 30.25576266 46.42836348 30.9453125 48.2421875 C31.54110107 49.80235596 31.54110107 49.80235596 32.14892578 51.39404297 C33 54 33 54 33 57 C29.04 57 25.08 57 21 57 C20.32968281 55.0429132 19.66385317 53.08428887 19 51.125 C18.62875 50.03445312 18.2575 48.94390625 17.875 47.8203125 C17 45 17 45 17 43 C9.74 43 2.48 43 -5 43 C-5.495 45.475 -5.495 45.475 -6 48 C-6.92879606 51.02700893 -7.9716621 54.00440698 -9 57 C-12.96 57 -16.92 57 -21 57 C-18.91861763 49.76266214 -16.48888498 42.76232459 -13.76953125 35.7421875 C-13.37424728 34.71312286 -12.97896332 33.68405823 -12.57170105 32.62380981 C-11.32205887 29.37287632 -10.06736957 26.12391879 -8.8125 22.875 C-7.95864851 20.65637923 -7.10512965 18.43763042 -6.25195312 16.21875 C-4.1718101 10.81101254 -2.08714177 5.4050399 0 0 Z " fill="#AC1F1F" transform="translate(99,100)"/>
<path d="M0 0 C12.54 0 25.08 0 38 0 C38 3.63 38 7.26 38 11 C29.09 11 20.18 11 11 11 C11 14.96 11 18.92 11 23 C18.92 23 26.84 23 35 23 C35 26.3 35 29.6 35 33 C27.08 33 19.16 33 11 33 C11 37.29 11 41.58 11 46 C19.91 46 28.82 46 38 46 C38 49.3 38 52.6 38 56 C25.46 56 12.92 56 0 56 C0 37.52 0 19.04 0 0 Z " fill="#AC1D1D" transform="translate(185,100)"/>
<path d="M0 0 C0 3.63 0 7.26 0 11 C-1.216875 10.34 -2.43375 9.68 -3.6875 9 C-9.6495828 6.31326524 -15.56886728 6.43716055 -22 7 C-22.99 7.495 -22.99 7.495 -24 8 C-24 9.98 -24 11.96 -24 14 C-19.18443579 16.54941634 -14.45773805 18.56831982 -9.3125 20.375 C-3.023189 22.72893679 -0.023308 24.953384 3 31 C3.40435212 35.82889743 3.6440172 40.40690481 1.8125 44.9375 C-2.39209497 49.7220391 -6.39958625 52.79378799 -12.79296875 53.30078125 C-14.25769695 53.31958969 -15.7226876 53.32284922 -17.1875 53.3125 C-17.94546875 53.31048584 -18.7034375 53.30847168 -19.484375 53.30639648 C-24.9009192 53.20942362 -31.91633502 53.08366498 -36 49 C-36.07226502 47.14712498 -36.0838122 45.29166122 -36.0625 43.4375 C-36.05347656 42.42558594 -36.04445312 41.41367188 -36.03515625 40.37109375 C-36.02355469 39.58863281 -36.01195312 38.80617187 -36 38 C-30 40 -30 40 -27.3125 41.125 C-21.70258145 42.60686528 -15.53504248 42.84501416 -10 41 C-9.67 39.02 -9.34 37.04 -9 35 C-13.08281474 31.42621151 -18.02796472 30.05190201 -23.06835938 28.33789062 C-28.06814864 26.56195798 -32.18671842 24.64849006 -35.2890625 20.1171875 C-37.22867125 14.34099 -36.88870421 7.87615333 -34.3125 2.4375 C-25.65936776 -6.68336912 -10.12290982 -6.61087988 0 0 Z " fill="#AC1D1D" transform="translate(173,104)"/>
<path d="M0 0 C0.99 0 1.98 0 3 0 C4.77287985 2.00095187 6.35440567 3.98104441 7.9375 6.125 C12.4192863 12.02192723 17.08274513 17.69997781 21.93920898 23.29150391 C22.41173096 23.83597168 22.88425293 24.38043945 23.37109375 24.94140625 C23.82210449 25.45848145 24.27311523 25.97555664 24.73779297 26.50830078 C25.90751352 27.8906978 27.00625976 29.3323104 28.09765625 30.77734375 C30.94945588 34.1093232 32.81543573 34.8713066 37.1640625 35.34375 C39.47655192 35.44815133 41.78905199 35.55231694 44.1015625 35.65625 C47 36 47 36 49 38 C49.25878906 39.84765625 49.25878906 39.84765625 49.265625 42.0625 C49.26949219 43.25746094 49.26949219 43.25746094 49.2734375 44.4765625 C49.26570313 45.30929688 49.25796875 46.14203125 49.25 47 C49.26160156 48.24910156 49.26160156 48.24910156 49.2734375 49.5234375 C49.27085937 50.32007813 49.26828125 51.11671875 49.265625 51.9375 C49.26336914 52.66839844 49.26111328 53.39929688 49.25878906 54.15234375 C49 56 49 56 47 58 C44.17924741 58.19867212 41.45665907 58.27268925 38.63476562 58.25878906 C37.76961838 58.2622937 36.90447113 58.26579834 36.0131073 58.26940918 C33.14407402 58.27823507 30.27528593 58.27237433 27.40625 58.265625 C25.41849724 58.2669714 23.4307448 58.26891173 21.44299316 58.27142334 C17.27332428 58.27437577 13.10374098 58.27007315 8.93408203 58.26074219 C3.58035724 58.2493476 -1.77316704 58.25590644 -7.12688446 58.26788712 C-11.23257975 58.27510251 -15.33822724 58.27281926 -19.44392395 58.26763153 C-21.41836063 58.26629415 -23.39280161 58.26794584 -25.36723328 58.27259064 C-28.12319491 58.27765061 -30.87882852 58.26995313 -33.63476562 58.25878906 C-34.45664871 58.26283752 -35.2785318 58.26688599 -36.12532043 58.27105713 C-41.77147194 58.22852806 -41.77147194 58.22852806 -44 56 C-44.25878906 54.15234375 -44.25878906 54.15234375 -44.265625 51.9375 C-44.26820313 51.14085937 -44.27078125 50.34421875 -44.2734375 49.5234375 C-44.26570312 48.69070312 -44.25796875 47.85796875 -44.25 47 C-44.25773438 46.16726562 -44.26546875 45.33453125 -44.2734375 44.4765625 C-44.27085937 43.67992187 -44.26828125 42.88328125 -44.265625 42.0625 C-44.26336914 41.33160156 -44.26111328 40.60070312 -44.25878906 39.84765625 C-44 38 -44 38 -42 36 C-39.93701172 35.68115234 -39.93701172 35.68115234 -37.4296875 35.5859375 C-36.08583984 35.52792969 -36.08583984 35.52792969 -34.71484375 35.46875 C-33.77769531 35.4378125 -32.84054688 35.406875 -31.875 35.375 C-30.45767578 35.31699219 -30.45767578 35.31699219 -29.01171875 35.2578125 C-26.67467625 35.16338654 -24.33764499 35.07781606 -22 35 C-23.56836233 29.79910815 -26.87913009 26.20236493 -30.3125 22.125 C-34.4179044 17.20595373 -38.33917132 12.26115341 -42 7 C-40.68 6.67 -39.36 6.34 -38 6 C-35.34031142 9.12699835 -32.68707089 12.2588698 -30.046875 15.40234375 C-28.15188777 17.65459252 -26.23017556 19.87467749 -24.265625 22.06640625 C-23.45609375 22.99324219 -22.6465625 23.92007813 -21.8125 24.875 C-21.07644531 25.69742188 -20.34039062 26.51984375 -19.58203125 27.3671875 C-17.52865712 30.78440766 -17.56913245 33.08049519 -18 37 C-20.3968665 39.3968665 -21.07028314 39.28281133 -24.3515625 39.4140625 C-25.62773437 39.47207031 -25.62773437 39.47207031 -26.9296875 39.53125 C-27.81914062 39.5621875 -28.70859375 39.593125 -29.625 39.625 C-30.97078125 39.68300781 -30.97078125 39.68300781 -32.34375 39.7421875 C-34.56215605 39.83658776 -36.78105013 39.91938805 -39 40 C-39 44.62 -39 49.24 -39 54 C-11.28 54.33 16.44 54.66 45 55 C45 49.72 45 44.44 45 39 C42.834375 39.12375 40.66875 39.2475 38.4375 39.375 C30.37302028 39.33451566 30.37302028 39.33451566 27.1875 36.6875 C25.62109375 35.015625 25.62109375 35.015625 24 33 C23.33097656 32.21109375 22.66195312 31.4221875 21.97265625 30.609375 C20.45208571 28.78148353 18.95159114 26.93675465 17.46875 25.078125 C14.7847225 21.73158438 12.02940274 18.45475661 9.25 15.1875 C7.49825719 13.12645919 5.74851977 11.06378319 4 9 C3.51337891 8.46713379 3.02675781 7.93426758 2.52539062 7.38525391 C1.27560966 5.9867921 0.12833023 4.49817181 -1 3 C-0.67 2.01 -0.34 1.02 0 0 Z " fill="#575454" transform="translate(174,154)"/>
<path d="M0 0 C0.99 1.98 0.99 1.98 2 4 C1.16597656 4.95519531 0.33195312 5.91039062 -0.52734375 6.89453125 C-3.46421443 10.26388631 -6.38630916 13.64572253 -9.30224609 17.03320312 C-10.35842585 18.25675563 -11.418038 19.47736443 -12.48291016 20.69335938 C-13.74958482 22.14020166 -15.00037685 23.60090523 -16.25 25.0625 C-16.95640625 25.87847656 -17.6628125 26.69445312 -18.390625 27.53515625 C-20.25112901 30.38461749 -20.66848749 32.64099826 -21 36 C-20.43490723 36.01981934 -19.86981445 36.03963867 -19.28759766 36.06005859 C-16.73292003 36.15518236 -14.17907459 36.26491058 -11.625 36.375 C-10.73554687 36.4059375 -9.84609375 36.436875 -8.9296875 36.46875 C-8.07890625 36.50742188 -7.228125 36.54609375 -6.3515625 36.5859375 C-5.56604004 36.6173584 -4.78051758 36.6487793 -3.97119141 36.68115234 C-2 37 -2 37 0 39 C0.25878906 40.84765625 0.25878906 40.84765625 0.265625 43.0625 C0.26949219 44.25746094 0.26949219 44.25746094 0.2734375 45.4765625 C0.26570313 46.30929688 0.25796875 47.14203125 0.25 48 C0.26160156 49.24910156 0.26160156 49.24910156 0.2734375 50.5234375 C0.27085938 51.32007813 0.26828125 52.11671875 0.265625 52.9375 C0.26336914 53.66839844 0.26111328 54.39929688 0.25878906 55.15234375 C0 57 0 57 -2 59 C-4.48856912 59.19823371 -6.86584137 59.27280688 -9.35546875 59.25878906 C-10.11332672 59.2622937 -10.87118469 59.26579834 -11.65200806 59.26940918 C-14.16393114 59.2782313 -16.67557392 59.27237574 -19.1875 59.265625 C-20.92863011 59.26697151 -22.66975985 59.26891193 -24.41088867 59.27142334 C-28.06269912 59.27437525 -31.71441183 59.27007483 -35.36621094 59.26074219 C-40.05406981 59.24934759 -44.7416997 59.25590671 -49.42955017 59.26788712 C-53.0256931 59.27510392 -56.62178148 59.27281862 -60.21792603 59.26763153 C-61.9467471 59.26629454 -63.67557308 59.26794449 -65.40438843 59.27259064 C-67.81790341 59.27765297 -70.23104423 59.26994999 -72.64453125 59.25878906 C-73.36355621 59.26283752 -74.08258118 59.26688599 -74.82339478 59.27105713 C-79.77147104 59.22852896 -79.77147104 59.22852896 -82 57 C-82.25878906 55.15234375 -82.25878906 55.15234375 -82.265625 52.9375 C-82.26820312 52.14085937 -82.27078125 51.34421875 -82.2734375 50.5234375 C-82.26570313 49.69070312 -82.25796875 48.85796875 -82.25 48 C-82.25773437 47.16726562 -82.26546875 46.33453125 -82.2734375 45.4765625 C-82.27085938 44.67992187 -82.26828125 43.88328125 -82.265625 43.0625 C-82.26336914 42.33160156 -82.26111328 41.60070312 -82.25878906 40.84765625 C-82 39 -82 39 -80 37 C-77.82332102 36.69526494 -75.67987139 36.62233995 -73.484375 36.5390625 C-66.66296239 35.05894467 -62.23493907 29.31911828 -57.75 24.375 C-56.4267458 22.94441971 -55.10252525 21.51473267 -53.77734375 20.0859375 C-52.81417236 19.04324707 -52.81417236 19.04324707 -51.83154297 17.97949219 C-49.34825352 15.29560645 -46.8505875 12.6323701 -44.3125 10 C-43.19294922 8.824375 -43.19294922 8.824375 -42.05078125 7.625 C-40 6 -40 6 -36 6 C-37.56481337 9.78423213 -39.92734172 12.14311685 -42.83203125 14.9921875 C-43.30565598 15.46061066 -43.7792807 15.92903381 -44.26725769 16.41165161 C-45.7776408 17.90429217 -47.29453641 19.39007231 -48.8125 20.875 C-50.31890851 22.35359715 -51.82375693 23.83369782 -53.3256073 25.31692505 C-54.69529085 26.66890659 -56.06980071 28.0159935 -57.44458008 29.36279297 C-59.30816117 31.28601863 -61.01936431 33.18494901 -62.71362305 35.24658203 C-66.88370609 40.26849304 -70.75863729 40.37586373 -77 41 C-77 45.62 -77 50.24 -77 55 C-52.91 55 -28.82 55 -4 55 C-4 50.38 -4 45.76 -4 41 C-5.18078125 40.97421875 -6.3615625 40.9484375 -7.578125 40.921875 C-9.13545323 40.86558603 -10.69274347 40.80823886 -12.25 40.75 C-13.02730469 40.73582031 -13.80460937 40.72164062 -14.60546875 40.70703125 C-18.26230979 40.55075599 -20.43837093 40.36867675 -23.546875 38.328125 C-25.45662094 35.26842452 -25.52704536 33.55182742 -25 30 C-23.70703125 27.75390625 -23.70703125 27.75390625 -21.8125 25.5625 C-21.09191406 24.71429688 -20.37132812 23.86609375 -19.62890625 22.9921875 C-18.76136719 22.00476563 -17.89382812 21.01734375 -17 20 C-15.90393641 18.73264492 -14.80894775 17.46435967 -13.71484375 16.1953125 C-11.47003218 13.59477441 -9.21498366 11.00368211 -6.953125 8.41796875 C-4.55931689 5.66966358 -2.25049929 2.86774788 0 0 Z " fill="#575454" transform="translate(115,153)"/>
<path d="M0 0 C2.58445773 -0.1081866 5.16437352 -0.18737237 7.75 -0.25 C8.47960938 -0.28351563 9.20921875 -0.31703125 9.9609375 -0.3515625 C13.5150344 -0.41618244 15.58104308 -0.29906878 18.51171875 1.79296875 C20 4 20 4 20.0625 7.5625 C19 11 19 11 16.890625 12.703125 C13.29183821 14.31771583 10.61588984 14.29764177 6.6875 14.1875 C3.3771875 14.0946875 3.3771875 14.0946875 0 14 C0 9.38 0 4.76 0 0 Z " fill="#FAF3F3" transform="translate(44,133)"/>
<path d="M0 0 C13.30653266 -0.36962591 13.30653266 -0.36962591 16.42578125 1.29296875 C18 3 18 3 18.4375 6.5 C18 10 18 10 16.625 11.875 C11.69183841 15.29026572 5.80574234 14.05691904 0 14 C0 9.38 0 4.76 0 0 Z " fill="#F8ECEC" transform="translate(44,110)"/>
<path d="M0 0 C0.66 0 1.32 0 2 0 C3.98 5.61 5.96 11.22 8 17 C3.71 17 -0.58 17 -5 17 C-4.26045106 12.56270636 -3.49072221 9.23352326 -1.9375 5.125 C-1.57527344 4.15820312 -1.21304688 3.19140625 -0.83984375 2.1953125 C-0.56269531 1.47085938 -0.28554687 0.74640625 0 0 Z " fill="#FAF3F3" transform="translate(104,116)"/>
</svg>
