<?xml version="1.0" encoding="UTF-8"?>
<!DOCTYPE svg PUBLIC "-//W3C//DTD SVG 1.1//EN" "http://www.w3.org/Graphics/SVG/1.1/DTD/svg11.dtd">
<svg xmlns="http://www.w3.org/2000/svg" version="1.1" width="230px" height="230px" style="shape-rendering:geometricPrecision; text-rendering:geometricPrecision; image-rendering:optimizeQuality; fill-rule:evenodd; clip-rule:evenodd" xmlns:xlink="http://www.w3.org/1999/xlink">
<g><path style="opacity:1" fill="#fefefe" d="M -0.5,-0.5 C 76.1667,-0.5 152.833,-0.5 229.5,-0.5C 229.5,76.1667 229.5,152.833 229.5,229.5C 152.833,229.5 76.1667,229.5 -0.5,229.5C -0.5,152.833 -0.5,76.1667 -0.5,-0.5 Z"/></g>
<g><path style="opacity:1" fill="#396b2b" d="M 181.5,72.5 C 180.834,76.3525 180.167,80.3525 179.5,84.5C 178.686,82.2338 178.186,79.9005 178,77.5C 177.824,81.6877 177.324,85.6877 176.5,89.5C 176.666,82.825 176.5,76.1583 176,69.5C 175.768,68.2625 175.268,67.2625 174.5,66.5C 173.314,59.79 170.314,54.1233 165.5,49.5C 158.152,40.1762 148.819,34.5096 137.5,32.5C 139.766,36.0337 141.766,39.7004 143.5,43.5C 143.971,45.5786 144.637,47.5786 145.5,49.5C 143.143,51.067 140.476,52.067 137.5,52.5C 136.808,51.9747 136.308,51.3081 136,50.5C 134.916,52.7823 133.416,53.1157 131.5,51.5C 134.187,44.4146 135.021,37.0812 134,29.5C 132.997,26.1598 131.497,23.1598 129.5,20.5C 126.97,15.5655 122.97,12.5655 117.5,11.5C 106.494,10.8403 99.4938,15.8403 96.5,26.5C 94.9942,29.356 94.3275,32.5226 94.5,36C 94.7067,39.5226 95.04,43.0226 95.5,46.5C 96.4408,48.0495 97.1075,49.7162 97.5,51.5C 95.5842,53.1157 94.0842,52.7823 93,50.5C 92.0411,52.6577 90.5411,52.991 88.5,51.5C 87.2867,51.7472 86.62,52.4138 86.5,53.5C 84.2776,53.4413 83.2776,52.2747 83.5,50C 84.0329,47.7739 84.6996,45.6073 85.5,43.5C 87.2336,39.7004 89.2336,36.0337 91.5,32.5C 80.1811,34.5096 70.8478,40.1762 63.5,49.5C 61.8333,51.5 60.1667,53.5 58.5,55.5C 57.0736,54.6588 55.7403,53.6588 54.5,52.5C 63.3233,39.5655 75.3233,30.7321 90.5,26C 97.4674,7.67315 109.801,2.33982 127.5,10C 132.696,14.8561 136.696,20.5228 139.5,27C 163.059,33.3903 177.059,48.5569 181.5,72.5 Z"/></g>
<g><path style="opacity:1" fill="#a2ca93" d="M 85.5,43.5 C 77.7554,46.7279 71.2554,51.7279 66,58.5C 66.0176,55.4435 65.1843,52.4435 63.5,49.5C 70.8478,40.1762 80.1811,34.5096 91.5,32.5C 89.2336,36.0337 87.2336,39.7004 85.5,43.5 Z"/></g>
<g><path style="opacity:1" fill="#63a95a" d="M 117.5,11.5 C 123.933,20.2299 125.267,29.8965 121.5,40.5C 112.462,49.2457 104.796,48.2457 98.5,37.5C 97.7668,33.7961 97.1002,30.1295 96.5,26.5C 99.4938,15.8403 106.494,10.8403 117.5,11.5 Z"/></g>
<g><path style="opacity:1" fill="#7bbe6a" d="M 107.5,18.5 C 116.34,18.8665 119.84,23.5332 118,32.5C 114.881,39.774 110.548,40.774 105,35.5C 103.955,32.5639 103.121,29.5639 102.5,26.5C 103.677,23.4685 105.344,20.8019 107.5,18.5 Z"/></g>
<g><path style="opacity:1" fill="#a0c891" d="M 165.5,49.5 C 163.628,52.1407 162.628,54.8074 162.5,57.5C 159.369,54.8712 156.369,52.0379 153.5,49C 150.273,46.8882 146.94,45.0549 143.5,43.5C 141.766,39.7004 139.766,36.0337 137.5,32.5C 148.819,34.5096 158.152,40.1762 165.5,49.5 Z"/></g>
<g><path style="opacity:1" fill="#6ea959" d="M 143.5,43.5 C 146.94,45.0549 150.273,46.8882 153.5,49C 156.369,52.0379 159.369,54.8712 162.5,57.5C 164.487,61.4734 166.487,65.4734 168.5,69.5C 166.259,77.0202 162.592,83.8535 157.5,90C 156.552,90.4828 155.552,90.6495 154.5,90.5C 153.486,84.8084 151.152,79.8084 147.5,75.5C 144.618,72.2568 141.618,69.2568 138.5,66.5C 140.327,65.0681 141.994,63.4014 143.5,61.5C 141.914,59.3295 140.58,56.9962 139.5,54.5C 141.108,53.6816 142.775,53.0149 144.5,52.5C 145.386,51.675 145.719,50.675 145.5,49.5C 144.637,47.5786 143.971,45.5786 143.5,43.5 Z"/></g>
<g><path style="opacity:1" fill="#479249" d="M 117.5,11.5 C 122.97,12.5655 126.97,15.5655 129.5,20.5C 132.15,32.6327 128.816,43.1327 119.5,52C 113.528,55.2652 107.528,55.2652 101.5,52C 99.797,49.6681 97.797,47.8347 95.5,46.5C 95.04,43.0226 94.7067,39.5226 94.5,36C 94.3275,32.5226 94.9942,29.356 96.5,26.5C 97.1002,30.1295 97.7668,33.7961 98.5,37.5C 104.796,48.2457 112.462,49.2457 121.5,40.5C 125.267,29.8965 123.933,20.2299 117.5,11.5 Z"/></g>
<g><path style="opacity:1" fill="#2d7b38" d="M 129.5,20.5 C 131.497,23.1598 132.997,26.1598 134,29.5C 135.021,37.0812 134.187,44.4146 131.5,51.5C 120.13,67.4127 108.796,67.4127 97.5,51.5C 97.1075,49.7162 96.4408,48.0495 95.5,46.5C 97.797,47.8347 99.797,49.6681 101.5,52C 107.528,55.2652 113.528,55.2652 119.5,52C 128.816,43.1327 132.15,32.6327 129.5,20.5 Z"/></g>
<g><path style="opacity:1" fill="#6aa457" d="M 85.5,43.5 C 84.6996,45.6073 84.0329,47.7739 83.5,50C 83.2776,52.2747 84.2776,53.4413 86.5,53.5C 87.7562,53.4614 88.7562,53.9614 89.5,55C 88.2921,57.2503 86.9587,59.417 85.5,61.5C 87.3936,62.9454 89.0603,64.6121 90.5,66.5C 87.3823,69.2568 84.3823,72.2568 81.5,75.5C 79.0764,78.0078 77.4097,81.0078 76.5,84.5C 68.2586,85.5604 60.2586,87.5604 52.5,90.5C 50.9666,78.1285 52.9666,66.4618 58.5,55.5C 60.1667,53.5 61.8333,51.5 63.5,49.5C 65.1843,52.4435 66.0176,55.4435 66,58.5C 71.2554,51.7279 77.7554,46.7279 85.5,43.5 Z"/></g>
<g><path style="opacity:1" fill="#315f25" d="M 145.5,49.5 C 145.719,50.675 145.386,51.675 144.5,52.5C 142.775,53.0149 141.108,53.6816 139.5,54.5C 140.58,56.9962 141.914,59.3295 143.5,61.5C 141.994,63.4014 140.327,65.0681 138.5,66.5C 134.5,69.8333 130.833,73.5 127.5,77.5C 126.391,77.4431 125.391,77.1098 124.5,76.5C 129.938,71.5639 135.271,66.3972 140.5,61C 138.877,58.9205 137.377,56.7538 136,54.5C 132.97,58.6947 129.47,62.3613 125.5,65.5C 118.149,69.4094 110.816,69.4094 103.5,65.5C 99.5298,62.3613 96.0298,58.6947 93,54.5C 91.5,56.6667 90,58.8333 88.5,61C 93.7286,66.3972 99.062,71.5639 104.5,76.5C 103.5,76.5 102.5,76.5 101.5,76.5C 97.8333,73.1667 94.1667,69.8333 90.5,66.5C 89.0603,64.6121 87.3936,62.9454 85.5,61.5C 86.9587,59.417 88.2921,57.2503 89.5,55C 88.7562,53.9614 87.7562,53.4614 86.5,53.5C 86.62,52.4138 87.2867,51.7472 88.5,51.5C 90.5411,52.991 92.0411,52.6577 93,50.5C 94.0842,52.7823 95.5842,53.1157 97.5,51.5C 108.796,67.4127 120.13,67.4127 131.5,51.5C 133.416,53.1157 134.916,52.7823 136,50.5C 136.308,51.3081 136.808,51.9747 137.5,52.5C 140.476,52.067 143.143,51.067 145.5,49.5 Z"/></g>
<g><path style="opacity:1" fill="#7eaf6d" d="M 165.5,49.5 C 170.314,54.1233 173.314,59.79 174.5,66.5C 172.286,68.9848 171.119,71.9848 171,75.5C 170.062,73.5115 169.228,71.5115 168.5,69.5C 166.487,65.4734 164.487,61.4734 162.5,57.5C 162.628,54.8074 163.628,52.1407 165.5,49.5 Z"/></g>
<g><path style="opacity:1" fill="#f9fbf8" d="M 103.5,65.5 C 110.816,69.4094 118.149,69.4094 125.5,65.5C 123.847,68.8068 122.18,72.1401 120.5,75.5C 116.5,75.5 112.5,75.5 108.5,75.5C 106.82,72.1401 105.153,68.8068 103.5,65.5 Z"/></g>
<g><path style="opacity:1" fill="#70ab5b" d="M 103.5,65.5 C 105.153,68.8068 106.82,72.1401 108.5,75.5C 107.432,76.4345 106.099,76.7678 104.5,76.5C 99.062,71.5639 93.7286,66.3972 88.5,61C 90,58.8333 91.5,56.6667 93,54.5C 96.0298,58.6947 99.5298,62.3613 103.5,65.5 Z"/></g>
<g><path style="opacity:1" fill="#70ab5b" d="M 124.5,76.5 C 122.901,76.7678 121.568,76.4345 120.5,75.5C 122.18,72.1401 123.847,68.8068 125.5,65.5C 129.47,62.3613 132.97,58.6947 136,54.5C 137.377,56.7538 138.877,58.9205 140.5,61C 135.271,66.3972 129.938,71.5639 124.5,76.5 Z"/></g>
<g><path style="opacity:1" fill="#35612a" d="M 54.5,52.5 C 55.7403,53.6588 57.0736,54.6588 58.5,55.5C 52.9666,66.4618 50.9666,78.1285 52.5,90.5C 50.9505,91.4408 49.2838,92.1075 47.5,92.5C 44.9456,78.2762 47.2789,64.9429 54.5,52.5 Z"/></g>
<g><path style="opacity:1" fill="#548e42" d="M 138.5,66.5 C 141.618,69.2568 144.618,72.2568 147.5,75.5C 146.469,77.9608 145.802,80.6275 145.5,83.5C 139.625,81.3193 133.625,79.3193 127.5,77.5C 130.833,73.5 134.5,69.8333 138.5,66.5 Z"/></g>
<g><path style="opacity:1" fill="#518c3f" d="M 90.5,66.5 C 94.1667,69.8333 97.8333,73.1667 101.5,76.5C 96.0731,78.4274 90.7398,80.7607 85.5,83.5C 84.8333,83.5 84.1667,83.5 83.5,83.5C 83.1977,80.6275 82.531,77.9608 81.5,75.5C 84.3823,72.2568 87.3823,69.2568 90.5,66.5 Z"/></g>
<g><path style="opacity:1" fill="#5b9448" d="M 174.5,66.5 C 175.268,67.2625 175.768,68.2625 176,69.5C 176.5,76.1583 176.666,82.825 176.5,89.5C 175.677,99.9671 173.344,109.967 169.5,119.5C 166.83,109.155 161.83,100.155 154.5,92.5C 154.5,91.8333 154.5,91.1667 154.5,90.5C 155.552,90.6495 156.552,90.4828 157.5,90C 162.592,83.8535 166.259,77.0202 168.5,69.5C 169.228,71.5115 170.062,73.5115 171,75.5C 171.119,71.9848 172.286,68.9848 174.5,66.5 Z"/></g>
<g><path style="opacity:1" fill="#8e8e8e" d="M 108.5,75.5 C 112.5,75.5 116.5,75.5 120.5,75.5C 121.568,76.4345 122.901,76.7678 124.5,76.5C 125.391,77.1098 126.391,77.4431 127.5,77.5C 133.625,79.3193 139.625,81.3193 145.5,83.5C 148.091,86.7581 151.091,89.7581 154.5,92.5C 161.83,100.155 166.83,109.155 169.5,119.5C 170.244,123.119 170.577,126.785 170.5,130.5C 170.244,137.294 169.244,143.961 167.5,150.5C 166.833,151.833 166.167,153.167 165.5,154.5C 164.358,158.117 162.692,161.45 160.5,164.5C 159.512,165.795 158.512,167.128 157.5,168.5C 149.373,176.674 140.04,182.674 129.5,186.5C 118.744,188.126 108.078,187.793 97.5,185.5C 94.4965,184.582 91.6632,183.249 89,181.5C 88.6012,181.728 88.4346,182.062 88.5,182.5C 82.9918,179.232 77.9918,175.232 73.5,170.5C 73.1667,169.5 72.5,168.833 71.5,168.5C 70.4884,167.128 69.4884,165.795 68.5,164.5C 66.4854,161.131 64.4854,157.798 62.5,154.5C 62.5674,153.041 62.2341,151.708 61.5,150.5C 60.8902,149.609 60.5569,148.609 60.5,147.5C 59.1039,141.936 58.4372,136.269 58.5,130.5C 58.2207,125.673 58.8874,121.007 60.5,116.5C 61.038,114.883 61.3713,113.216 61.5,111.5C 64.9988,104.004 69.6654,97.337 75.5,91.5C 78.5693,88.4229 81.9026,85.7563 85.5,83.5C 90.7398,80.7607 96.0731,78.4274 101.5,76.5C 102.5,76.5 103.5,76.5 104.5,76.5C 106.099,76.7678 107.432,76.4345 108.5,75.5 Z"/></g>
<g><path style="opacity:1" fill="#2c5923" d="M 81.5,75.5 C 82.531,77.9608 83.1977,80.6275 83.5,83.5C 81.0504,83.298 78.717,83.6314 76.5,84.5C 77.4097,81.0078 79.0764,78.0078 81.5,75.5 Z"/></g>
<g><path style="opacity:1" fill="#fefefd" d="M 103.5,80.5 C 131.35,77.3364 151.184,88.3364 163,113.5C 170.79,141.138 162.623,162.638 138.5,178C 108.682,189.949 85.1824,182.449 68,155.5C 55.6319,118.907 67.4652,93.9068 103.5,80.5 Z"/></g>
<g><path style="opacity:1" fill="#2e5823" d="M 147.5,75.5 C 151.152,79.8084 153.486,84.8084 154.5,90.5C 154.5,91.1667 154.5,91.8333 154.5,92.5C 151.091,89.7581 148.091,86.7581 145.5,83.5C 145.802,80.6275 146.469,77.9608 147.5,75.5 Z"/></g>
<g><path style="opacity:1" fill="#e3aa20" d="M 99.5,94.5 C 111.5,94.5 123.5,94.5 135.5,94.5C 134.979,98.4809 134.646,102.481 134.5,106.5C 127.167,106.5 119.833,106.5 112.5,106.5C 111.873,111.141 111.54,115.807 111.5,120.5C 133.038,120.519 141.204,130.853 136,151.5C 130.819,160.518 122.985,165.685 112.5,167C 106.415,167.861 100.415,167.527 94.5,166C 93.2126,162.875 93.2126,159.709 94.5,156.5C 100.867,157.909 107.201,157.742 113.5,156C 122.296,151.56 124.796,144.727 121,135.5C 119.421,133.959 117.587,132.792 115.5,132C 109.05,131.232 102.717,131.732 96.5,133.5C 97.0753,120.444 98.0753,107.444 99.5,94.5 Z"/></g>
<g><path style="opacity:1" fill="#2c5422" d="M 181.5,72.5 C 182.694,79.4745 182.694,86.4745 181.5,93.5C 181.5,95.1667 181.5,96.8333 181.5,98.5C 179.188,106.396 176.855,114.396 174.5,122.5C 173.167,125.167 171.833,127.833 170.5,130.5C 170.577,126.785 170.244,123.119 169.5,119.5C 173.344,109.967 175.677,99.9671 176.5,89.5C 177.324,85.6877 177.824,81.6877 178,77.5C 178.186,79.9005 178.686,82.2338 179.5,84.5C 180.167,80.3525 180.834,76.3525 181.5,72.5 Z"/></g>
<g><path style="opacity:1" fill="#d5c837" d="M 75.5,91.5 C 69.6654,97.337 64.9988,104.004 61.5,111.5C 60.6836,113.144 59.3502,114.31 57.5,115C 46.42,116.96 36.42,121.127 27.5,127.5C 28.6209,123.526 30.4543,119.86 33,116.5C 36.8333,112.667 40.6667,108.833 44.5,105C 41.681,105.492 39.0144,105.326 36.5,104.5C 48.4572,96.2918 61.4572,91.9584 75.5,91.5 Z"/></g>
<g><path style="opacity:1" fill="#e2d53a" d="M 61.5,111.5 C 61.3713,113.216 61.038,114.883 60.5,116.5C 55.3769,119.964 51.7102,124.63 49.5,130.5C 48.1389,134.759 47.1389,139.093 46.5,143.5C 44.2537,143.064 42.0871,142.397 40,141.5C 38.0879,143.657 36.4213,145.991 35,148.5C 33.3333,146.833 31.6667,145.167 30,143.5C 27.5997,145.729 25.433,148.063 23.5,150.5C 23.3342,145.821 23.5008,141.155 24,136.5C 24.5053,133.135 25.672,130.135 27.5,127.5C 36.42,121.127 46.42,116.96 57.5,115C 59.3502,114.31 60.6836,113.144 61.5,111.5 Z"/></g>
<g><path style="opacity:1" fill="#766f23" d="M 60.5,116.5 C 58.8874,121.007 58.2207,125.673 58.5,130.5C 57.8485,129.909 57.1818,129.243 56.5,128.5C 54.3584,129.601 52.1917,130.601 50,131.5C 49.6012,131.272 49.4346,130.938 49.5,130.5C 51.7102,124.63 55.3769,119.964 60.5,116.5 Z"/></g>
<g><path style="opacity:1" fill="#a1962e" d="M 58.5,130.5 C 58.4372,136.269 59.1039,141.936 60.5,147.5C 55.6753,146.331 51.0086,144.998 46.5,143.5C 47.1389,139.093 48.1389,134.759 49.5,130.5C 49.4346,130.938 49.6012,131.272 50,131.5C 52.1917,130.601 54.3584,129.601 56.5,128.5C 57.1818,129.243 57.8485,129.909 58.5,130.5 Z"/></g>
<g><path style="opacity:1" fill="#e4da65" d="M 36.5,104.5 C 39.0144,105.326 41.681,105.492 44.5,105C 40.6667,108.833 36.8333,112.667 33,116.5C 30.4543,119.86 28.6209,123.526 27.5,127.5C 25.672,130.135 24.5053,133.135 24,136.5C 23.5008,141.155 23.3342,145.821 23.5,150.5C 23.5,151.167 23.1667,151.5 22.5,151.5C 22.8204,148.102 22.487,144.768 21.5,141.5C 19.8211,143.104 17.8211,143.771 15.5,143.5C 15.7373,142.209 15.404,141.209 14.5,140.5C 16.2448,124.998 23.5781,112.998 36.5,104.5 Z"/></g>
<g><path style="opacity:1" fill="#3096ca" d="M 181.5,98.5 C 195.126,103.794 204.793,113.127 210.5,126.5C 209.778,126.918 209.278,127.584 209,128.5C 206.959,127.577 204.792,127.244 202.5,127.5C 204.972,134.952 205.972,142.619 205.5,150.5C 203.845,148.014 201.678,146.014 199,144.5C 197.056,145.439 195.389,146.773 194,148.5C 192.623,146.246 191.123,144.08 189.5,142C 187.069,141.748 184.735,142.248 182.5,143.5C 181.875,138.369 180.708,133.369 179,128.5C 177.723,126.253 176.223,124.253 174.5,122.5C 176.855,114.396 179.188,106.396 181.5,98.5 Z"/></g>
<g><path style="opacity:1" fill="#267baa" d="M 177.5,155.5 C 173.702,154.517 169.702,154.183 165.5,154.5C 166.167,153.167 166.833,151.833 167.5,150.5C 174.373,147.927 181.373,146.094 188.5,145C 189.585,147.172 190.919,149.172 192.5,151C 187.099,151.43 182.099,152.93 177.5,155.5 Z"/></g>
<g><path style="opacity:1" fill="#f3ec89" d="M 14.5,140.5 C 15.404,141.209 15.7373,142.209 15.5,143.5C 17.8211,143.771 19.8211,143.104 21.5,141.5C 22.487,144.768 22.8204,148.102 22.5,151.5C 20.6778,154.472 18.8445,157.472 17,160.5C 16.6667,160.167 16.3333,159.833 16,159.5C 14.6827,153.243 14.1827,146.909 14.5,140.5 Z"/></g>
<g><path style="opacity:1" fill="#cdbe34" d="M 61.5,150.5 C 62.2341,151.708 62.5674,153.041 62.5,154.5C 58.8333,154.5 55.1667,154.5 51.5,154.5C 46.5866,153.03 41.5866,151.864 36.5,151C 38.0062,148.667 39.6729,146.5 41.5,144.5C 48.1191,146.707 54.7858,148.707 61.5,150.5 Z"/></g>
<g><path style="opacity:1" fill="#fcfcfa" d="M 51.5,154.5 C 55.1667,154.5 58.8333,154.5 62.5,154.5C 64.4854,157.798 66.4854,161.131 68.5,164.5C 66.4854,167.869 64.4854,171.202 62.5,174.5C 61.937,166.034 58.2703,159.367 51.5,154.5 Z"/></g>
<g><path style="opacity:1" fill="#fbfdfd" d="M 165.5,154.5 C 169.702,154.183 173.702,154.517 177.5,155.5C 170.091,159.595 166.425,165.928 166.5,174.5C 164.137,171.451 162.137,168.118 160.5,164.5C 162.692,161.45 164.358,158.117 165.5,154.5 Z"/></g>
<g><path style="opacity:1" fill="#837b26" d="M 83.5,83.5 C 84.1667,83.5 84.8333,83.5 85.5,83.5C 81.9026,85.7563 78.5693,88.4229 75.5,91.5C 61.4572,91.9584 48.4572,96.2918 36.5,104.5C 23.5781,112.998 16.2448,124.998 14.5,140.5C 14.1827,146.909 14.6827,153.243 16,159.5C 16.3333,159.833 16.6667,160.167 17,160.5C 18.8445,157.472 20.6778,154.472 22.5,151.5C 23.1667,151.5 23.5,151.167 23.5,150.5C 25.433,148.063 27.5997,145.729 30,143.5C 31.6667,145.167 33.3333,146.833 35,148.5C 36.4213,145.991 38.0879,143.657 40,141.5C 42.0871,142.397 44.2537,143.064 46.5,143.5C 51.0086,144.998 55.6753,146.331 60.5,147.5C 60.5569,148.609 60.8902,149.609 61.5,150.5C 54.7858,148.707 48.1191,146.707 41.5,144.5C 39.6729,146.5 38.0062,148.667 36.5,151C 41.5866,151.864 46.5866,153.03 51.5,154.5C 58.2703,159.367 61.937,166.034 62.5,174.5C 61.9781,179.067 60.6447,183.4 58.5,187.5C 61.0865,188.48 63.7531,188.813 66.5,188.5C 67.8583,181.733 69.525,175.067 71.5,168.5C 72.5,168.833 73.1667,169.5 73.5,170.5C 72.0566,174.615 71.0566,178.948 70.5,183.5C 69.7337,185.684 69.0671,188.018 68.5,190.5C 65.9135,191.48 63.2469,191.813 60.5,191.5C 61.0574,193.949 61.0574,196.282 60.5,198.5C 57.8556,199.295 55.1889,199.962 52.5,200.5C 48.181,201.035 43.8477,201.535 39.5,202C 51.4748,213.604 65.8081,218.77 82.5,217.5C 92.6857,215.902 101.686,211.902 109.5,205.5C 111.389,206.604 113.055,207.937 114.5,209.5C 92.7786,224.953 70.1119,226.453 46.5,214C 42.8333,211 39.1667,208 35.5,205C 23.754,207.64 13.9207,204.473 6,195.5C 1.39476,187.195 1.39476,178.861 6,170.5C 7.84776,167.989 9.6811,165.489 11.5,163C 4.28082,129.604 16.2808,106.104 47.5,92.5C 49.2838,92.1075 50.9505,91.4408 52.5,90.5C 60.2586,87.5604 68.2586,85.5604 76.5,84.5C 78.717,83.6314 81.0504,83.298 83.5,83.5 Z"/></g>
<g><path style="opacity:1" fill="#a0952d" d="M 10.5,192.5 C 30.4717,197.686 40.305,190.02 40,169.5C 38.7206,163.537 35.2206,159.87 29.5,158.5C 33.9202,156.304 38.5868,155.971 43.5,157.5C 50.9983,173.668 47.9983,187.501 34.5,199C 24.8709,202.396 16.8709,200.229 10.5,192.5 Z"/></g>
<g><path style="opacity:1" fill="#decd38" d="M 21.5,162.5 C 29.7231,164.59 33.2231,169.923 32,178.5C 26.9585,187.55 20.2918,188.884 12,182.5C 11.4275,180.359 10.5942,178.359 9.5,176.5C 11.7163,170.285 15.7163,165.619 21.5,162.5 Z"/></g>
<g><path style="opacity:1" fill="#065184" d="M 181.5,93.5 C 205.374,102.562 218.041,119.895 219.5,145.5C 219.596,151.262 218.929,156.929 217.5,162.5C 222.255,168.514 225.255,175.347 226.5,183C 225.655,194.515 219.655,201.848 208.5,205C 203.581,205.802 198.748,205.635 194,204.5C 178.182,220.164 159.348,225.664 137.5,221C 129.222,218.194 121.556,214.361 114.5,209.5C 113.055,207.937 111.389,206.604 109.5,205.5C 104.833,201.5 100.5,197.167 96.5,192.5C 95.5,190.833 94.1667,189.5 92.5,188.5C 91.5589,186.228 90.2255,184.228 88.5,182.5C 88.4346,182.062 88.6012,181.728 89,181.5C 91.6632,183.249 94.4965,184.582 97.5,185.5C 108.8,200.147 123.133,210.48 140.5,216.5C 159.309,219.883 175.643,215.049 189.5,202C 185.083,201.772 180.75,201.272 176.5,200.5C 173.52,200.38 170.687,199.713 168,198.5C 167.982,196.203 168.149,193.869 168.5,191.5C 165.833,191.5 163.167,191.5 160.5,191.5C 160.279,188.608 159.446,185.941 158,183.5C 148.944,188.825 139.444,189.825 129.5,186.5C 140.04,182.674 149.373,176.674 157.5,168.5C 159.29,174.773 160.956,181.106 162.5,187.5C 165.167,188.833 167.833,188.833 170.5,187.5C 168.162,183.475 166.828,179.141 166.5,174.5C 166.425,165.928 170.091,159.595 177.5,155.5C 182.099,152.93 187.099,151.43 192.5,151C 190.919,149.172 189.585,147.172 188.5,145C 181.373,146.094 174.373,147.927 167.5,150.5C 169.244,143.961 170.244,137.294 170.5,130.5C 171.833,127.833 173.167,125.167 174.5,122.5C 176.223,124.253 177.723,126.253 179,128.5C 180.708,133.369 181.875,138.369 182.5,143.5C 184.735,142.248 187.069,141.748 189.5,142C 191.123,144.08 192.623,146.246 194,148.5C 195.389,146.773 197.056,145.439 199,144.5C 201.678,146.014 203.845,148.014 205.5,150.5C 207.505,153.351 209.338,156.351 211,159.5C 211.667,160.833 212.333,160.833 213,159.5C 215.546,148.173 214.712,137.173 210.5,126.5C 204.793,113.127 195.126,103.794 181.5,98.5C 181.5,96.8333 181.5,95.1667 181.5,93.5 Z"/></g>
<g><path style="opacity:1" fill="#71b9de" d="M 210.5,126.5 C 214.712,137.173 215.546,148.173 213,159.5C 212.333,160.833 211.667,160.833 211,159.5C 209.338,156.351 207.505,153.351 205.5,150.5C 205.972,142.619 204.972,134.952 202.5,127.5C 204.792,127.244 206.959,127.577 209,128.5C 209.278,127.584 209.778,126.918 210.5,126.5 Z"/></g>
<g><path style="opacity:1" fill="#cebf35" d="M 68.5,164.5 C 69.4884,165.795 70.4884,167.128 71.5,168.5C 69.525,175.067 67.8583,181.733 66.5,188.5C 63.7531,188.813 61.0865,188.48 58.5,187.5C 60.6447,183.4 61.9781,179.067 62.5,174.5C 64.4854,171.202 66.4854,167.869 68.5,164.5 Z"/></g>
<g><path style="opacity:1" fill="#378bbb" d="M 185.5,157.5 C 184.224,159.587 182.724,161.587 181,163.5C 177.949,172.399 180.949,178.066 190,180.5C 199.641,179.202 203.307,173.869 201,164.5C 199.833,162 198,160.167 195.5,159C 196.056,158.617 196.389,158.117 196.5,157.5C 200.719,158.609 204.719,160.275 208.5,162.5C 209.933,186.53 199.599,193.363 177.5,183C 175.843,177.838 174.509,172.672 173.5,167.5C 175.448,161.84 179.448,158.507 185.5,157.5 Z"/></g>
<g><path style="opacity:1" fill="#4e9fd0" d="M 185.5,157.5 C 189.167,157.5 192.833,157.5 196.5,157.5C 196.389,158.117 196.056,158.617 195.5,159C 198,160.167 199.833,162 201,164.5C 203.307,173.869 199.641,179.202 190,180.5C 180.949,178.066 177.949,172.399 181,163.5C 182.724,161.587 184.224,159.587 185.5,157.5 Z"/></g>
<g><path style="opacity:1" fill="#9c912c" d="M 73.5,170.5 C 77.9918,175.232 82.9918,179.232 88.5,182.5C 90.2255,184.228 91.5589,186.228 92.5,188.5C 84.5007,189.562 77.1674,187.895 70.5,183.5C 71.0566,178.948 72.0566,174.615 73.5,170.5 Z"/></g>
<g><path style="opacity:1" fill="#2479a8" d="M 160.5,164.5 C 162.137,168.118 164.137,171.451 166.5,174.5C 166.828,179.141 168.162,183.475 170.5,187.5C 167.833,188.833 165.167,188.833 162.5,187.5C 160.956,181.106 159.29,174.773 157.5,168.5C 158.512,167.128 159.512,165.795 160.5,164.5 Z"/></g>
<g><path style="opacity:1" fill="#2077a5" d="M 208.5,162.5 C 211.167,164.5 213.5,166.833 215.5,169.5C 212.163,188.55 201.163,196.55 182.5,193.5C 173.116,186.788 170.116,178.121 173.5,167.5C 174.509,172.672 175.843,177.838 177.5,183C 199.599,193.363 209.933,186.53 208.5,162.5 Z"/></g>
<g><path style="opacity:1" fill="#2c93c8" d="M 176.5,200.5 C 172.119,204.024 167.119,206.524 161.5,208C 153.551,209.156 145.551,209.822 137.5,210C 138.147,211.993 139.813,213.659 142.5,215C 141.584,215.278 140.918,215.778 140.5,216.5C 123.133,210.48 108.8,200.147 97.5,185.5C 108.078,187.793 118.744,188.126 129.5,186.5C 139.444,189.825 148.944,188.825 158,183.5C 159.446,185.941 160.279,188.608 160.5,191.5C 163.167,191.5 165.833,191.5 168.5,191.5C 168.149,193.869 167.982,196.203 168,198.5C 170.687,199.713 173.52,200.38 176.5,200.5 Z"/></g>
<g><path style="opacity:1" fill="#bcaf32" d="M 29.5,158.5 C 35.2206,159.87 38.7206,163.537 40,169.5C 40.305,190.02 30.4717,197.686 10.5,192.5C 8.42701,189.777 7.42701,186.61 7.5,183C 7.33601,180.456 8.00268,178.29 9.5,176.5C 10.5942,178.359 11.4275,180.359 12,182.5C 20.2918,188.884 26.9585,187.55 32,178.5C 33.2231,169.923 29.7231,164.59 21.5,162.5C 23.6123,160.229 26.279,158.896 29.5,158.5 Z"/></g>
<g><path style="opacity:1" fill="#dfd33a" d="M 70.5,183.5 C 77.1674,187.895 84.5007,189.562 92.5,188.5C 94.1667,189.5 95.5,190.833 96.5,192.5C 90.2306,200.109 82.5639,205.776 73.5,209.5C 65.6087,208.383 58.6087,205.383 52.5,200.5C 55.1889,199.962 57.8556,199.295 60.5,198.5C 61.0574,196.282 61.0574,193.949 60.5,191.5C 63.2469,191.813 65.9135,191.48 68.5,190.5C 69.0671,188.018 69.7337,185.684 70.5,183.5 Z"/></g>
<g><path style="opacity:1" fill="#055c88" d="M 215.5,169.5 C 223.028,179.091 222.695,188.258 214.5,197C 203.059,202.34 192.392,201.173 182.5,193.5C 201.163,196.55 212.163,188.55 215.5,169.5 Z"/></g>
<g><path style="opacity:1" fill="#d7cb40" d="M 96.5,192.5 C 100.5,197.167 104.833,201.5 109.5,205.5C 101.686,211.902 92.6857,215.902 82.5,217.5C 81.7375,216.732 80.7375,216.232 79.5,216C 80.2199,213.878 81.3866,213.378 83,214.5C 83.956,213.421 84.7894,212.255 85.5,211C 81.4517,210.696 77.4517,210.196 73.5,209.5C 82.5639,205.776 90.2306,200.109 96.5,192.5 Z"/></g>
<g><path style="opacity:1" fill="#68b4db" d="M 176.5,200.5 C 180.75,201.272 185.083,201.772 189.5,202C 175.643,215.049 159.309,219.883 140.5,216.5C 140.918,215.778 141.584,215.278 142.5,215C 139.813,213.659 138.147,211.993 137.5,210C 145.551,209.822 153.551,209.156 161.5,208C 167.119,206.524 172.119,204.024 176.5,200.5 Z"/></g>
<g><path style="opacity:1" fill="#eae176" d="M 52.5,200.5 C 58.6087,205.383 65.6087,208.383 73.5,209.5C 77.4517,210.196 81.4517,210.696 85.5,211C 84.7894,212.255 83.956,213.421 83,214.5C 81.3866,213.378 80.2199,213.878 79.5,216C 80.7375,216.232 81.7375,216.732 82.5,217.5C 65.8081,218.77 51.4748,213.604 39.5,202C 43.8477,201.535 48.181,201.035 52.5,200.5 Z"/></g>
</svg>
