<?xml version="1.0" encoding="UTF-8"?>
<!DOCTYPE svg PUBLIC "-//W3C//DTD SVG 1.1//EN" "http://www.w3.org/Graphics/SVG/1.1/DTD/svg11.dtd">
<svg xmlns="http://www.w3.org/2000/svg" version="1.1" width="781px" height="781px" style="shape-rendering:geometricPrecision; text-rendering:geometricPrecision; image-rendering:optimizeQuality; fill-rule:evenodd; clip-rule:evenodd" xmlns:xlink="http://www.w3.org/1999/xlink">
<g><path style="opacity:0.995" fill="#fbb115" d="M 368.5,-0.5 C 383.167,-0.5 397.833,-0.5 412.5,-0.5C 469.518,6.42529 517.684,30.7586 557,72.5C 559.717,75.7104 562.217,79.0437 564.5,82.5C 495.446,81.7235 437.446,106.39 390.5,156.5C 343.189,106.359 284.856,81.6928 215.5,82.5C 255.073,34.2062 306.073,6.53952 368.5,-0.5 Z"/></g>
<g><path style="opacity:0.994" fill="#fbb115" d="M 215.5,82.5 C 184.061,121.868 167.727,166.868 166.5,217.5C 149.074,229.669 138.741,246.336 135.5,267.5C 91.6482,286.178 57.1482,315.844 32,356.5C 25.8361,367.328 20.3361,378.495 15.5,390C 43.8541,457.032 92.8541,501.366 162.5,523C 164.473,523.495 166.473,523.662 168.5,523.5C 168.5,523.833 168.5,524.167 168.5,524.5C 159.988,588.932 175.654,646.599 215.5,697.5C 128.835,691.946 64.668,651.279 23,575.5C 10.4844,550.085 2.65111,523.418 -0.5,495.5C -0.5,480.833 -0.5,466.167 -0.5,451.5C 2.11257,430.714 7.11257,410.381 14.5,390.5C 6.95025,370.305 1.95025,349.639 -0.5,328.5C -0.5,314.167 -0.5,299.833 -0.5,285.5C 8.47206,212.694 43.4721,156.194 104.5,116C 138.505,95.0797 175.505,83.9131 215.5,82.5 Z"/></g>
<g><path style="opacity:1" fill="#f68a1f" d="M 215.5,82.5 C 284.856,81.6928 343.189,106.359 390.5,156.5C 437.446,106.39 495.446,81.7235 564.5,82.5C 604.766,133.542 620.766,191.542 612.5,256.5C 612.167,256.5 611.833,256.5 611.5,256.5C 583.621,249.305 555.288,247.638 526.5,251.5C 519.879,240.695 511.879,230.862 502.5,222C 479.222,204.752 454.222,201.918 427.5,213.5C 418.144,192.767 405.811,174.1 390.5,157.5C 369.891,179.364 354.891,204.697 345.5,233.5C 344.71,234.794 343.71,235.961 342.5,237C 320.597,237.913 300.93,245.08 283.5,258.5C 271.714,244.877 259.714,231.377 247.5,218C 220.629,198.842 193.629,198.676 166.5,217.5C 167.727,166.868 184.061,121.868 215.5,82.5 Z"/></g>
<g><path style="opacity:1" fill="#f36e21" d="M 427.5,213.5 C 423.983,215.759 420.317,217.759 416.5,219.5C 412.513,218.283 408.513,217.283 404.5,216.5C 397.679,215.345 390.679,215.179 383.5,216C 382.263,216.232 381.263,216.732 380.5,217.5C 374.254,218.452 368.254,220.285 362.5,223C 356.777,226.522 351.111,230.022 345.5,233.5C 354.891,204.697 369.891,179.364 390.5,157.5C 405.811,174.1 418.144,192.767 427.5,213.5 Z"/></g>
<g><path style="opacity:1" fill="#fffdfc" d="M 345.5,233.5 C 351.111,230.022 356.777,226.522 362.5,223C 368.254,220.285 374.254,218.452 380.5,217.5C 388.466,216.635 396.466,216.302 404.5,216.5C 408.513,217.283 412.513,218.283 416.5,219.5C 420.317,217.759 423.983,215.759 427.5,213.5C 454.222,201.918 479.222,204.752 502.5,222C 511.879,230.862 519.879,240.695 526.5,251.5C 545.192,282.549 561.525,314.882 575.5,348.5C 581.948,364.336 588.115,380.336 594,396.5C 597.407,406.72 600.407,417.054 603,427.5C 604.663,441.536 601.83,454.536 594.5,466.5C 590.105,472.403 585.105,477.903 579.5,483C 561.016,497.655 543.016,512.822 525.5,528.5C 503.714,546.565 481.714,564.398 459.5,582C 445.667,589.396 431.001,591.896 415.5,589.5C 395.527,583.854 375.527,578.187 355.5,572.5C 313.18,560.017 271.18,546.351 229.5,531.5C 202.054,514.617 188.721,489.95 189.5,457.5C 194.333,435.168 206.666,418.334 226.5,407C 198.956,374.458 171.789,341.625 145,308.5C 137.276,295.933 134.109,282.267 135.5,267.5C 138.741,246.336 149.074,229.669 166.5,217.5C 193.629,198.676 220.629,198.842 247.5,218C 259.714,231.377 271.714,244.877 283.5,258.5C 300.93,245.08 320.597,237.913 342.5,237C 343.71,235.961 344.71,234.794 345.5,233.5 Z"/></g>
<g><path style="opacity:1" fill="#fab48b" d="M 404.5,216.5 C 396.466,216.302 388.466,216.635 380.5,217.5C 381.263,216.732 382.263,216.232 383.5,216C 390.679,215.179 397.679,215.345 404.5,216.5 Z"/></g>
<g><path style="opacity:1" fill="#f68c25" d="M 217.5,249.5 C 209.108,249.573 200.775,250.239 192.5,251.5C 200.356,245.544 208.689,244.877 217.5,249.5 Z"/></g>
<g><path style="opacity:1" fill="#f36e22" d="M 217.5,249.5 C 220.75,251.243 223.584,253.577 226,256.5C 251.649,287.979 277.816,318.979 304.5,349.5C 289.264,355.783 274.931,363.616 261.5,373C 259.808,374.307 258.475,375.807 257.5,377.5C 232.114,347.756 206.947,317.756 182,287.5C 176.42,279.372 176.087,271.039 181,262.5C 184.702,258.63 188.536,254.963 192.5,251.5C 200.775,250.239 209.108,249.573 217.5,249.5 Z"/></g>
<g><path style="opacity:1" fill="#f36e21" d="M 611.5,256.5 C 607.123,290.325 595.123,320.991 575.5,348.5C 561.525,314.882 545.192,282.549 526.5,251.5C 555.288,247.638 583.621,249.305 611.5,256.5 Z"/></g>
<g><path style="opacity:1" fill="#f68b22" d="M 481.5,262.5 C 469.228,266.469 457.561,271.802 446.5,278.5C 445.114,271.683 443.78,264.85 442.5,258C 442.316,256.624 441.649,255.791 440.5,255.5C 451.407,246.94 462.74,246.44 474.5,254C 477.423,256.416 479.757,259.25 481.5,262.5 Z"/></g>
<g><path style="opacity:1" fill="#f68a1f" d="M 611.5,256.5 C 611.833,256.5 612.167,256.5 612.5,256.5C 673.298,273.145 719.798,308.478 752,362.5C 756.859,371.382 761.025,380.548 764.5,390C 744.342,440.498 710.342,478.831 662.5,505C 646.563,513.255 629.896,519.422 612.5,523.5C 620.206,588.025 604.539,646.025 565.5,697.5C 495.92,698.878 437.587,674.212 390.5,623.5C 399.606,612.729 407.939,601.395 415.5,589.5C 431.001,591.896 445.667,589.396 459.5,582C 481.714,564.398 503.714,546.565 525.5,528.5C 554.266,532.754 582.932,531.42 611.5,524.5C 609.532,503.938 603.865,484.605 594.5,466.5C 601.83,454.536 604.663,441.536 603,427.5C 600.407,417.054 597.407,406.72 594,396.5C 588.115,380.336 581.948,364.336 575.5,348.5C 595.123,320.991 607.123,290.325 611.5,256.5 Z"/></g>
<g><path style="opacity:1" fill="#f36f22" d="M 428.5,290.5 C 414.333,299.708 401.499,310.708 390,323.5C 387.91,320.572 385.41,318.239 382.5,316.5C 375.528,307.244 369.028,297.577 363,287.5C 362.333,284.5 362.333,281.5 363,278.5C 370.123,266.777 380.456,260.11 394,258.5C 398.813,258.495 403.313,259.661 407.5,262C 415.852,270.551 422.852,280.051 428.5,290.5 Z"/></g>
<g><path style="opacity:1" fill="#f36e21" d="M 440.5,255.5 C 441.649,255.791 442.316,256.624 442.5,258C 443.78,264.85 445.114,271.683 446.5,278.5C 457.561,271.802 469.228,266.469 481.5,262.5C 501.403,292.133 518.07,323.633 531.5,357C 532.009,358.169 532.842,359.002 534,359.5C 540.502,378.245 547.169,396.912 554,415.5C 554.827,416.662 555.66,417.829 556.5,419C 557.453,424.507 558.453,430.007 559.5,435.5C 559.508,440.649 557.508,444.815 553.5,448C 527.52,470.646 501.187,492.813 474.5,514.5C 464.373,511.768 455.04,507.435 446.5,501.5C 448.127,481.123 447.794,460.79 445.5,440.5C 481.206,431.652 512.539,414.986 539.5,390.5C 512.6,365.71 481.266,348.71 445.5,339.5C 446.047,332.485 446.713,325.485 447.5,318.5C 450.568,321.4 453.235,321.067 455.5,317.5C 452.74,312.307 449.74,307.307 446.5,302.5C 447.705,295.3 447.538,287.967 446,280.5C 445.586,280.043 445.086,279.709 444.5,279.5C 441.846,280.836 439.513,282.503 437.5,284.5C 432.018,277.038 431.185,269.038 435,260.5C 436.704,258.627 438.537,256.96 440.5,255.5 Z"/></g>
<g><path style="opacity:1" fill="#f68a1f" d="M 135.5,267.5 C 134.109,282.267 137.276,295.933 145,308.5C 171.789,341.625 198.956,374.458 226.5,407C 206.666,418.334 194.333,435.168 189.5,457.5C 178.917,478.253 171.917,500.253 168.5,523.5C 166.473,523.662 164.473,523.495 162.5,523C 92.8541,501.366 43.8541,457.032 15.5,390C 20.3361,378.495 25.8361,367.328 32,356.5C 57.1482,315.844 91.6482,286.178 135.5,267.5 Z"/></g>
<g><path style="opacity:0.992" fill="#f15a24" d="M 446.5,302.5 C 442.975,296.783 439.975,290.783 437.5,284.5C 439.513,282.503 441.846,280.836 444.5,279.5C 445.086,279.709 445.586,280.043 446,280.5C 447.538,287.967 447.705,295.3 446.5,302.5 Z"/></g>
<g><path style="opacity:1" fill="#f36e22" d="M 333.5,281.5 C 333.222,289.166 332.889,296.833 332.5,304.5C 333.287,316.174 333.787,327.841 334,339.5C 328.867,341.242 323.7,342.909 318.5,344.5C 311.379,336.947 305.212,328.614 300,319.5C 297.453,312.308 298.453,305.642 303,299.5C 311.133,289.829 321.3,283.829 333.5,281.5 Z"/></g>
<g><path style="opacity:0.998" fill="#f15923" d="M 383.5,333.5 C 382.833,333.5 382.167,333.5 381.5,333.5C 366.012,333.332 350.846,335.332 336,339.5C 336.938,351.359 339.105,363.025 342.5,374.5C 333.55,365.269 325.55,355.269 318.5,344.5C 323.7,342.909 328.867,341.242 334,339.5C 333.787,327.841 333.287,316.174 332.5,304.5C 332.889,296.833 333.222,289.166 333.5,281.5C 339.181,279.349 344.014,280.682 348,285.5C 359.279,301.941 371.113,317.941 383.5,333.5 Z"/></g>
<g><path style="opacity:0.999" fill="#f15822" d="M 428.5,290.5 C 434.833,299.833 441.167,309.167 447.5,318.5C 446.713,325.485 446.047,332.485 445.5,339.5C 430.079,335.614 414.412,333.28 398.5,332.5C 396.901,332.232 395.568,332.566 394.5,333.5C 393.206,332.71 392.039,331.71 391,330.5C 388.407,325.639 385.573,320.972 382.5,316.5C 385.41,318.239 387.91,320.572 390,323.5C 401.499,310.708 414.333,299.708 428.5,290.5 Z"/></g>
<g><path style="opacity:0.999" fill="#ee3a23" d="M 398.5,332.5 C 412.062,350.282 423.062,369.615 431.5,390.5C 423.296,411.258 412.296,430.258 398.5,447.5C 395.899,450.604 393.066,453.604 390,456.5C 387.151,453.426 384.317,450.426 381.5,447.5C 368.467,430.11 357.467,411.444 348.5,391.5C 348.5,390.833 348.5,390.167 348.5,389.5C 357.009,369.334 368.009,350.667 381.5,333.5C 382.167,333.5 382.833,333.5 383.5,333.5C 386.19,338.022 389.69,341.688 394,344.5C 396.058,343.942 397.225,342.609 397.5,340.5C 396.749,338.004 395.749,335.67 394.5,333.5C 395.568,332.566 396.901,332.232 398.5,332.5 Z"/></g>
<g><path style="opacity:1" fill="#ef4923" d="M 381.5,333.5 C 368.009,350.667 357.009,369.334 348.5,389.5C 347.011,385.677 345.344,382.01 343.5,378.5C 343.167,377.167 342.833,375.833 342.5,374.5C 339.105,363.025 336.938,351.359 336,339.5C 350.846,335.332 366.012,333.332 381.5,333.5 Z"/></g>
<g><path style="opacity:0.999" fill="#f15822" d="M 445.5,339.5 C 481.266,348.71 512.6,365.71 539.5,390.5C 512.539,414.986 481.206,431.652 445.5,440.5C 442.651,423.272 438.318,406.439 432.5,390C 438.319,373.559 442.652,356.725 445.5,339.5 Z"/></g>
<g><path style="opacity:1" fill="#ef4923" d="M 348.5,391.5 C 357.467,411.444 368.467,430.11 381.5,447.5C 365.976,446.901 350.642,444.901 335.5,441.5C 337.06,424.006 341.393,407.339 348.5,391.5 Z"/></g>
<g><path style="opacity:1" fill="#ef4923" d="M 398.5,332.5 C 414.412,333.28 430.079,335.614 445.5,339.5C 442.652,356.725 438.319,373.559 432.5,390C 438.318,406.439 442.651,423.272 445.5,440.5C 430.168,444.786 414.501,447.119 398.5,447.5C 412.296,430.258 423.296,411.258 431.5,390.5C 423.062,369.615 412.062,350.282 398.5,332.5 Z"/></g>
<g><path style="opacity:0.995" fill="#fbb115" d="M 564.5,82.5 C 648.321,87.97 711.488,126.637 754,198.5C 767.996,224.65 776.829,252.317 780.5,281.5C 780.5,298.5 780.5,315.5 780.5,332.5C 777.721,352.28 772.721,371.613 765.5,390.5C 772.875,409.005 777.875,428.005 780.5,447.5C 780.5,464.833 780.5,482.167 780.5,499.5C 767.356,584.649 721.69,645.149 643.5,681C 618.571,691.553 592.571,697.053 565.5,697.5C 604.539,646.025 620.206,588.025 612.5,523.5C 629.896,519.422 646.563,513.255 662.5,505C 710.342,478.831 744.342,440.498 764.5,390C 761.025,380.548 756.859,371.382 752,362.5C 719.798,308.478 673.298,273.145 612.5,256.5C 620.766,191.542 604.766,133.542 564.5,82.5 Z"/></g>
<g><path style="opacity:0.999" fill="#f15822" d="M 304.5,349.5 C 315.301,361.138 325.968,372.972 336.5,385C 341.179,385.491 343.512,383.325 343.5,378.5C 345.344,382.01 347.011,385.677 348.5,389.5C 348.5,390.167 348.5,390.833 348.5,391.5C 341.393,407.339 337.06,424.006 335.5,441.5C 350.642,444.901 365.976,446.901 381.5,447.5C 384.317,450.426 387.151,453.426 390,456.5C 393.066,453.604 395.899,450.604 398.5,447.5C 414.501,447.119 430.168,444.786 445.5,440.5C 447.794,460.79 448.127,481.123 446.5,501.5C 446.167,501.5 445.833,501.5 445.5,501.5C 424.828,489.836 406.495,475.169 390.5,457.5C 373.871,474.641 355.371,489.308 335,501.5C 331.835,481.199 331.668,460.866 334.5,440.5C 323.154,437.829 312.154,434.162 301.5,429.5C 293.902,420.73 286.069,412.063 278,403.5C 271.333,394.671 264.5,386.004 257.5,377.5C 258.475,375.807 259.808,374.307 261.5,373C 274.931,363.616 289.264,355.783 304.5,349.5 Z"/></g>
<g><path style="opacity:1" fill="#f36e21" d="M 301.5,429.5 C 312.154,434.162 323.154,437.829 334.5,440.5C 331.668,460.866 331.835,481.199 335,501.5C 355.371,489.308 373.871,474.641 390.5,457.5C 406.495,475.169 424.828,489.836 445.5,501.5C 443.907,516.134 440.907,530.468 436.5,544.5C 434.193,546.047 431.527,546.713 428.5,546.5C 422.302,545.743 416.135,544.743 410,543.5C 385.685,536.851 361.518,529.518 337.5,521.5C 336.511,515.871 335.677,510.204 335,504.5C 334.692,503.692 334.192,503.025 333.5,502.5C 325.911,506.966 317.911,510.299 309.5,512.5C 298.162,509.161 286.829,505.828 275.5,502.5C 265.943,499.483 256.61,495.983 247.5,492C 237.272,483.727 232.439,473.227 233,460.5C 237.956,450.613 245.789,444.447 256.5,442C 264.596,441.348 272.596,442.015 280.5,444C 287.6,446.81 294.933,448.81 302.5,450C 308.854,452.731 315.187,455.565 321.5,458.5C 322.5,458.167 323.5,457.833 324.5,457.5C 315.745,448.474 308.078,439.141 301.5,429.5 Z"/></g>
<g><path style="opacity:0.999" fill="#f36f22" d="M 189.5,457.5 C 188.721,489.95 202.054,514.617 229.5,531.5C 208.875,531.547 188.541,529.213 168.5,524.5C 168.5,524.167 168.5,523.833 168.5,523.5C 171.917,500.253 178.917,478.253 189.5,457.5 Z"/></g>
<g><path style="opacity:1" fill="#f36e22" d="M 594.5,466.5 C 603.865,484.605 609.532,503.938 611.5,524.5C 582.932,531.42 554.266,532.754 525.5,528.5C 543.016,512.822 561.016,497.655 579.5,483C 585.105,477.903 590.105,472.403 594.5,466.5 Z"/></g>
<g><path style="opacity:1" fill="#f58a21" d="M 337.5,521.5 C 328.196,518.179 318.863,515.179 309.5,512.5C 317.911,510.299 325.911,506.966 333.5,502.5C 334.192,503.025 334.692,503.692 335,504.5C 335.677,510.204 336.511,515.871 337.5,521.5 Z"/></g>
<g><path style="opacity:1" fill="#f68a20" d="M 445.5,501.5 C 445.833,501.5 446.167,501.5 446.5,501.5C 455.04,507.435 464.373,511.768 474.5,514.5C 463.346,522.939 452.679,532.106 442.5,542C 440.593,543.122 438.593,543.955 436.5,544.5C 440.907,530.468 443.907,516.134 445.5,501.5 Z"/></g>
<g><path style="opacity:1" fill="#f68a1f" d="M 168.5,524.5 C 188.541,529.213 208.875,531.547 229.5,531.5C 271.18,546.351 313.18,560.017 355.5,572.5C 364.601,591.048 375.934,608.048 389.5,623.5C 353.046,664.402 307.379,688.568 252.5,696C 240.192,697.138 227.859,697.638 215.5,697.5C 175.654,646.599 159.988,588.932 168.5,524.5 Z"/></g>
<g><path style="opacity:0.999" fill="#f36e22" d="M 355.5,572.5 C 375.527,578.187 395.527,583.854 415.5,589.5C 407.939,601.395 399.606,612.729 390.5,623.5C 390.167,623.5 389.833,623.5 389.5,623.5C 375.934,608.048 364.601,591.048 355.5,572.5 Z"/></g>
<g><path style="opacity:0.995" fill="#fbb115" d="M 389.5,623.5 C 389.833,623.5 390.167,623.5 390.5,623.5C 437.587,674.212 495.92,698.878 565.5,697.5C 526.629,744.334 476.962,772.001 416.5,780.5C 399.167,780.5 381.833,780.5 364.5,780.5C 308.467,773.234 261.3,748.901 223,707.5C 220.283,704.29 217.783,700.956 215.5,697.5C 227.859,697.638 240.192,697.138 252.5,696C 307.379,688.568 353.046,664.402 389.5,623.5 Z"/></g>
</svg>
