<?xml version="1.0" encoding="UTF-8"?>
<!DOCTYPE svg PUBLIC "-//W3C//DTD SVG 1.1//EN" "http://www.w3.org/Graphics/SVG/1.1/DTD/svg11.dtd">
<svg xmlns="http://www.w3.org/2000/svg" version="1.1" width="512px" height="512px" style="shape-rendering:geometricPrecision; text-rendering:geometricPrecision; image-rendering:optimizeQuality; fill-rule:evenodd; clip-rule:evenodd" xmlns:xlink="http://www.w3.org/1999/xlink">
<g><path style="opacity:0.998" fill="#fefefe" d="M 122.5,51.5 C 211.167,51.3333 299.834,51.5 388.5,52C 427.333,60.1667 450.833,83.6667 459,122.5C 459.667,211.167 459.667,299.833 459,388.5C 450.833,427.333 427.333,450.833 388.5,459C 299.833,459.667 211.167,459.667 122.5,459C 83.6667,450.833 60.1667,427.333 52,388.5C 51.3333,299.833 51.3333,211.167 52,122.5C 60.347,83.6534 83.847,59.9867 122.5,51.5 Z"/></g>
<g><path style="opacity:1" fill="#808080" d="M 404.5,322.5 C 405.665,270.335 405.832,218.002 405,165.5C 355.221,194.305 305.388,222.971 255.5,251.5C 205.305,223.335 155.305,194.668 105.5,165.5C 105.5,165.167 105.5,164.833 105.5,164.5C 150.891,138.052 196.391,111.719 242,85.5C 242.833,105.508 242.666,125.508 241.5,145.5C 223.833,155.667 206.167,165.833 188.5,176C 186.646,179.726 187.646,182.392 191.5,184C 211.996,195.414 232.33,207.081 252.5,219C 253.833,219.667 255.167,219.667 256.5,219C 276.833,207.333 297.167,195.667 317.5,184C 323.008,181.845 323.675,178.845 319.5,175C 302.121,165.56 284.954,155.726 268,145.5C 267.167,125.492 267.334,105.492 268.5,85.5C 313.939,112.058 359.606,138.392 405.5,164.5C 406.833,217.5 406.833,270.5 405.5,323.5C 404.893,323.376 404.56,323.043 404.5,322.5 Z"/></g>
<g><path style="opacity:1" fill="#4c4c4c" d="M 105.5,165.5 C 155.305,194.668 205.305,223.335 255.5,251.5C 255.5,309.5 255.5,367.5 255.5,425.5C 209.392,399.276 163.392,372.776 117.5,346C 134.738,335.461 152.238,325.295 170,315.5C 187.73,325.281 205.23,335.448 222.5,346C 225.217,347.033 227.051,346.2 228,343.5C 228.667,318.167 228.667,292.833 228,267.5C 206.583,254.541 185.083,241.707 163.5,229C 161.5,228.333 159.5,228.333 157.5,229C 156.673,250.427 156.173,271.927 156,293.5C 139.555,303.304 123.055,312.971 106.5,322.5C 105.501,270.336 105.168,218.003 105.5,165.5 Z"/></g>
<g><path style="opacity:1" fill="#010101" d="M 404.5,322.5 C 387.945,312.971 371.445,303.304 355,293.5C 354.822,272.124 354.322,250.79 353.5,229.5C 351.579,228.359 349.579,228.192 347.5,229C 325.917,241.707 304.417,254.541 283,267.5C 282.333,292.833 282.333,318.167 283,343.5C 283.949,346.2 285.783,347.033 288.5,346C 305.77,335.448 323.27,325.281 341,315.5C 358.73,325.281 376.23,335.448 393.5,346C 347.608,372.776 301.608,399.276 255.5,425.5C 255.5,367.5 255.5,309.5 255.5,251.5C 305.388,222.971 355.221,194.305 405,165.5C 405.832,218.002 405.665,270.335 404.5,322.5 Z"/></g>
<g><path style="opacity:1" fill="#a4a4a4" d="M 105.5,164.5 C 105.5,164.833 105.5,165.167 105.5,165.5C 105.168,218.003 105.501,270.336 106.5,322.5C 106.44,323.043 106.107,323.376 105.5,323.5C 104.169,270.335 104.169,217.335 105.5,164.5 Z"/></g>
</svg>
