<?xml version="1.0" encoding="UTF-8"?>
<!DOCTYPE svg PUBLIC "-//W3C//DTD SVG 1.1//EN" "http://www.w3.org/Graphics/SVG/1.1/DTD/svg11.dtd">
<svg xmlns="http://www.w3.org/2000/svg" version="1.1" width="489px" height="204px" style="shape-rendering:geometricPrecision; text-rendering:geometricPrecision; image-rendering:optimizeQuality; fill-rule:evenodd; clip-rule:evenodd" xmlns:xlink="http://www.w3.org/1999/xlink">
<g><path style="opacity:0.004" fill="#eeeddc" d="M 90.5,4.5 C 89.475,4.10343 89.3083,3.43677 90,2.5C 90.4643,3.09442 90.631,3.76109 90.5,4.5 Z"/></g>
<g><path style="opacity:0.004" fill="#fe0000" d="M 95.5,3.5 C 96.8333,4.16667 96.8333,4.16667 95.5,3.5 Z"/></g>
<g><path style="opacity:0.02" fill="#f9832c" d="M 99.5,12.5 C 99.1667,12.5 98.8333,12.5 98.5,12.5C 98.7373,11.209 98.404,10.209 97.5,9.5C 97.3932,7.62143 97.8932,7.2881 99,8.5C 99.49,9.79323 99.6567,11.1266 99.5,12.5 Z"/></g>
<g><path style="opacity:0.012" fill="#ffb86c" d="M 99.5,12.5 C 100.833,15.8333 100.833,19.1667 99.5,22.5C 99.5,19.1667 99.5,15.8333 99.5,12.5 Z"/></g>
<g><path style="opacity:0.012" fill="#e77924" d="M 89.5,23.5 C 89.1667,23.5 88.8333,23.5 88.5,23.5C 88.8333,20.8333 89.1667,20.8333 89.5,23.5 Z"/></g>
<g><path style="opacity:0.004" fill="#fefffe" d="M 88.5,23.5 C 87.8333,24.1667 87.8333,24.1667 88.5,23.5 Z"/></g>
<g><path style="opacity:0.024" fill="#e79b4d" d="M 98.5,22.5 C 98.8333,22.5 99.1667,22.5 99.5,22.5C 99.7373,23.791 99.404,24.791 98.5,25.5C 98.5,24.5 98.5,23.5 98.5,22.5 Z"/></g>
<g><path style="opacity:0.004" fill="#ff672e" d="M 97.5,25.5 C 97.8333,25.5 98.1667,25.5 98.5,25.5C 98.6882,27.1033 98.1882,28.4366 97,29.5C 96.5357,28.9056 96.369,28.2389 96.5,27.5C 97.3382,27.1583 97.6716,26.4916 97.5,25.5 Z"/></g>
<g><path style="opacity:0.008" fill="#7f8000" d="M 95.5,31.5 C 96.8333,32.1667 96.8333,32.1667 95.5,31.5 Z"/></g>
<g><path style="opacity:0.012" fill="#ff9b7b" d="M 94.5,32.5 C 94.8333,32.5 95.1667,32.5 95.5,32.5C 95.6716,33.4916 95.3382,34.1583 94.5,34.5C 94.5,33.8333 94.5,33.1667 94.5,32.5 Z"/></g>
<g><path style="opacity:0.012" fill="#feaa54" d="M 93.5,34.5 C 93.8333,34.5 94.1667,34.5 94.5,34.5C 94.3147,35.1701 93.9813,35.1701 93.5,34.5 Z"/></g>
<g><path style="opacity:0.035" fill="#feaa70" d="M 92.5,35.5 C 92.8333,35.5 93.1667,35.5 93.5,35.5C 93.3147,36.1701 92.9813,36.1701 92.5,35.5 Z"/></g>
<g><path style="opacity:0.004" fill="#ffd5bd" d="M 90.5,38.5 C 91.8333,39.1667 91.8333,39.8333 90.5,40.5C 90.5,39.8333 90.5,39.1667 90.5,38.5 Z"/></g>
<g><path style="opacity:0.008" fill="#fe807f" d="M 114.5,39.5 C 115.833,40.1667 115.833,40.1667 114.5,39.5 Z"/></g>
<g><path style="opacity:0.004" fill="#fefffe" d="M 89.5,40.5 C 89.8333,40.5 90.1667,40.5 90.5,40.5C 90.3147,41.1701 89.9813,41.1701 89.5,40.5 Z"/></g>
<g><path style="opacity:0.02" fill="#fe9965" d="M 117.5,41.5 C 118.833,42.1667 118.833,42.1667 117.5,41.5 Z"/></g>
<g><path style="opacity:0.02" fill="#cb9965" d="M 116.5,42.5 C 116.833,42.5 117.167,42.5 117.5,42.5C 117.315,43.1701 116.981,43.1701 116.5,42.5 Z"/></g>
<g><path style="opacity:0.997" fill="#ee812b" d="M 95.5,4.5 C 95.4021,6.55292 96.0687,8.21959 97.5,9.5C 97.2627,10.791 97.596,11.791 98.5,12.5C 98.5,15.8333 98.5,19.1667 98.5,22.5C 97.596,23.209 97.2627,24.209 97.5,25.5C 96.6618,25.8417 96.3284,26.5084 96.5,27.5C 95.4625,28.9303 94.7959,30.597 94.5,32.5C 93.6618,32.8417 93.3284,33.5084 93.5,34.5C 92.8333,34.5 92.5,34.8333 92.5,35.5C 91.1667,35.8333 91.1667,36.1667 92.5,36.5C 91.8333,37.1667 91.1667,37.8333 90.5,38.5C 89.6618,38.8417 89.3284,39.5084 89.5,40.5C 88.1667,40.8333 88.1667,41.1667 89.5,41.5C 85.7731,46.2297 81.4397,50.2297 76.5,53.5C 76.1667,52.1667 75.8333,52.1667 75.5,53.5C 74.8333,53.5 74.5,53.8333 74.5,54.5C 73.1667,54.8333 73.1667,55.1667 74.5,55.5C 74.0269,56.9063 73.0269,57.573 71.5,57.5C 71.1667,56.1667 70.8333,56.1667 70.5,57.5C 69.8333,57.5 69.5,57.8333 69.5,58.5C 68.8333,58.5 68.5,58.8333 68.5,59.5C 67.8333,59.5 67.5,59.8333 67.5,60.5C 66.8333,60.5 66.5,60.8333 66.5,61.5C 65.6618,61.8417 65.3284,62.5084 65.5,63.5C 64.1667,63.8333 64.1667,64.1667 65.5,64.5C 65.1667,65.5 64.5,66.1667 63.5,66.5C 63.1667,65.1667 62.8333,65.1667 62.5,66.5C 61.596,67.209 61.2627,68.209 61.5,69.5C 60.596,70.209 60.2627,71.209 60.5,72.5C 59.1667,75.5 59.1667,78.5 60.5,81.5C 60.3284,82.4916 60.6618,83.1583 61.5,83.5C 61.7553,86.0163 62.5886,88.3496 64,90.5C 64.7051,88.0144 65.5384,88.0144 66.5,90.5C 65.1667,91.1667 65.1667,91.8333 66.5,92.5C 67.4333,95.3702 69.1,97.7036 71.5,99.5C 71.2291,101.38 71.8958,102.713 73.5,103.5C 74.4619,105.453 74.7953,107.286 74.5,109C 73.8333,109.667 73.1667,109.667 72.5,109C 72.6192,107.719 72.1192,106.552 71,105.5C 70.2825,106.451 69.4491,106.617 68.5,106C 64.1668,102.586 61.1668,98.7524 59.5,94.5C 59.1667,93.1667 58.8333,93.1667 58.5,94.5C 57.1235,93.444 56.2902,92.1107 56,90.5C 54.3335,91.3402 54.1669,90.8402 55.5,89C 53.9297,87.6032 52.5964,86.1032 51.5,84.5C 51.3404,82.847 50.6737,81.5137 49.5,80.5C 49.6716,79.5084 49.3382,78.8417 48.5,78.5C 48.7678,76.901 48.4345,75.5676 47.5,74.5C 47.5,73.1667 47.5,71.8333 47.5,70.5C 48.4345,69.4324 48.7678,68.099 48.5,66.5C 51.1663,61.319 54.8329,56.819 59.5,53C 58.7948,51.4435 59.4615,50.2768 61.5,49.5C 62.086,49.7093 62.586,50.0426 63,50.5C 63.242,48.8619 64.0753,47.3619 65.5,46C 66.4491,45.3828 67.2825,45.5494 68,46.5C 69.7396,44.8156 70.9063,42.9823 71.5,41C 72.4491,40.3828 73.2825,40.5494 74,41.5C 74.0072,39.3807 75.1739,37.5474 77.5,36C 78.4491,35.3828 79.2825,35.5494 80,36.5C 81.7583,35.5305 82.2583,34.3639 81.5,33C 82.2529,31.513 83.0862,31.3463 84,32.5C 85.113,31.2396 85.2797,30.073 84.5,29C 85.5521,27.8808 86.7188,27.3808 88,27.5C 88.7914,26.255 89.2914,24.9217 89.5,23.5C 91.0606,21.5095 92.0606,19.1761 92.5,16.5C 91.4442,12.5556 90.7775,8.55564 90.5,4.5C 91.9466,3.19282 92.6133,1.85949 92.5,0.5C 93.1497,2.18357 94.1497,3.5169 95.5,4.5 Z"/></g>
<g><path style="opacity:1" fill="#f4964a" d="M 116.5,42.5 C 114.767,43.0076 114.434,43.841 115.5,45C 114.906,45.4643 114.239,45.631 113.5,45.5C 113.167,44.1667 112.833,44.1667 112.5,45.5C 111.167,45.8333 111.167,46.1667 112.5,46.5C 109.233,48.8111 105.9,51.1444 102.5,53.5C 101.808,52.9747 101.308,52.3081 101,51.5C 100.209,54.104 98.7089,56.104 96.5,57.5C 96.1667,56.1667 95.8333,56.1667 95.5,57.5C 94.8999,58.9002 93.8999,59.9002 92.5,60.5C 92.5,60.1667 92.5,59.8333 92.5,59.5C 93.8333,59.1667 93.8333,58.8333 92.5,58.5C 93.5846,56.4131 95.2512,55.0798 97.5,54.5C 98.3007,52.9582 98.634,51.2915 98.5,49.5C 97.1667,49.5 95.8333,49.5 94.5,49.5C 94.5,48.8333 94.1667,48.5 93.5,48.5C 94.4057,47.0351 95.739,46.0351 97.5,45.5C 99.1012,46.1654 100.601,46.4988 102,46.5C 103.119,45.4479 103.619,44.2812 103.5,43C 107.927,40.1974 112.26,40.0307 116.5,42.5 Z"/></g>
<g><path style="opacity:0.035" fill="#e28e54" d="M 112.5,45.5 C 112.833,45.5 113.167,45.5 113.5,45.5C 113.315,46.1701 112.981,46.1701 112.5,45.5 Z"/></g>
<g><path style="opacity:0.008" fill="#feff7f" d="M 75.5,53.5 C 75.8333,53.5 76.1667,53.5 76.5,53.5C 76.3147,54.1701 75.9813,54.1701 75.5,53.5 Z"/></g>
<g><path style="opacity:0.012" fill="#feffa9" d="M 74.5,54.5 C 74.8333,54.5 75.1667,54.5 75.5,54.5C 75.3147,55.1701 74.9813,55.1701 74.5,54.5 Z"/></g>
<g><path style="opacity:0.998" fill="#ed7e24" d="M 93.5,48.5 C 94.1667,48.5 94.5,48.8333 94.5,49.5C 95.8333,49.5 97.1667,49.5 98.5,49.5C 98.634,51.2915 98.3007,52.9582 97.5,54.5C 95.2512,55.0798 93.5846,56.4131 92.5,58.5C 92.5,58.8333 92.5,59.1667 92.5,59.5C 91.8333,59.5 91.5,59.8333 91.5,60.5C 90.6618,60.8417 90.3284,61.5084 90.5,62.5C 89.8333,62.5 89.5,62.8333 89.5,63.5C 88.8333,63.5 88.5,63.8333 88.5,64.5C 87.8333,64.5 87.5,64.8333 87.5,65.5C 86.6618,65.8417 86.3284,66.5084 86.5,67.5C 85.3709,69.6282 85.2042,71.9615 86,74.5C 86.3333,72.8333 86.6667,71.1667 87,69.5C 87.7581,71.7695 87.5914,73.9361 86.5,76C 87.4881,78.167 88.8214,80.0003 90.5,81.5C 91.7859,84.117 93.4525,86.4504 95.5,88.5C 95.7166,93.2303 95.3833,97.8969 94.5,102.5C 93.8333,102.5 93.5,102.833 93.5,103.5C 92.8333,103.5 92.5,103.833 92.5,104.5C 91.8333,104.5 91.5,104.833 91.5,105.5C 90.71,106.609 90.21,107.942 90,109.5C 89.3292,110.252 88.4959,110.586 87.5,110.5C 87.1667,109.167 86.8333,109.167 86.5,110.5C 85.8333,110.5 85.5,110.833 85.5,111.5C 84.1667,111.833 84.1667,112.167 85.5,112.5C 85.0269,113.906 84.0269,114.573 82.5,114.5C 82.1667,113.167 81.8333,113.167 81.5,114.5C 80.6236,114.631 79.9569,114.298 79.5,113.5C 81.2701,112.18 81.6034,110.68 80.5,109C 81.5521,107.881 82.7188,107.381 84,107.5C 84.1667,105.833 84.3333,104.167 84.5,102.5C 84.6839,99.7954 84.0173,97.4621 82.5,95.5C 81.719,93.6777 80.5523,93.0111 79,93.5C 78.3828,92.5509 78.5494,91.7175 79.5,91C 77.9297,89.6032 76.5964,88.1032 75.5,86.5C 75.6716,85.5084 75.3382,84.8417 74.5,84.5C 74.7678,82.901 74.4345,81.5676 73.5,80.5C 73.4372,75.7971 73.7705,71.1304 74.5,66.5C 76.0878,65.3647 76.4212,64.0314 75.5,62.5C 77.482,61.7838 79.1487,60.6171 80.5,59C 79.9394,57.4345 80.6061,56.1011 82.5,55C 83.4491,54.3828 84.2825,54.5494 85,55.5C 86.2905,51.9997 89.1239,49.6664 93.5,48.5 Z"/></g>
<g><path style="opacity:0.02" fill="#cb9932" d="M 70.5,57.5 C 70.8333,57.5 71.1667,57.5 71.5,57.5C 71.3147,58.1701 70.9813,58.1701 70.5,57.5 Z"/></g>
<g><path style="opacity:0.008" fill="#feff7f" d="M 95.5,57.5 C 95.8333,57.5 96.1667,57.5 96.5,57.5C 96.3147,58.1701 95.9813,58.1701 95.5,57.5 Z"/></g>
<g><path style="opacity:0.016" fill="#fe803f" d="M 69.5,58.5 C 69.8333,58.5 70.1667,58.5 70.5,58.5C 70.3147,59.1701 69.9813,59.1701 69.5,58.5 Z"/></g>
<g><path style="opacity:0.016" fill="#febf3f" d="M 68.5,59.5 C 68.8333,59.5 69.1667,59.5 69.5,59.5C 69.3147,60.1701 68.9813,60.1701 68.5,59.5 Z"/></g>
<g><path style="opacity:0.02" fill="#cb6632" d="M 67.5,60.5 C 67.8333,60.5 68.1667,60.5 68.5,60.5C 68.3147,61.1701 67.9813,61.1701 67.5,60.5 Z"/></g>
<g><path style="opacity:0.016" fill="#fe8000" d="M 91.5,60.5 C 91.8333,60.5 92.1667,60.5 92.5,60.5C 92.3147,61.1701 91.9813,61.1701 91.5,60.5 Z"/></g>
<g><path style="opacity:0.008" fill="#ff8869" d="M 66.5,61.5 C 66.8333,61.5 67.1667,61.5 67.5,61.5C 67.6716,62.4916 67.3382,63.1583 66.5,63.5C 66.5,62.8333 66.5,62.1667 66.5,61.5 Z"/></g>
<g><path style="opacity:0.004" fill="#fefffe" d="M 90.5,62.5 C 91.8333,63.1667 91.8333,63.1667 90.5,62.5 Z"/></g>
<g><path style="opacity:0.008" fill="#feff7f" d="M 65.5,63.5 C 65.8333,63.5 66.1667,63.5 66.5,63.5C 66.3147,64.1701 65.9813,64.1701 65.5,63.5 Z"/></g>
<g><path style="opacity:0.008" fill="#feff7f" d="M 89.5,63.5 C 89.8333,63.5 90.1667,63.5 90.5,63.5C 90.3147,64.1701 89.9813,64.1701 89.5,63.5 Z"/></g>
<g><path style="opacity:0.031" fill="#febf7f" d="M 88.5,64.5 C 88.8333,64.5 89.1667,64.5 89.5,64.5C 89.3147,65.1701 88.9813,65.1701 88.5,64.5 Z"/></g>
<g><path style="opacity:0.004" fill="#ff7a59" d="M 74.5,66.5 C 73.475,66.1034 73.3083,65.4368 74,64.5C 74.4643,65.0944 74.631,65.7611 74.5,66.5 Z"/></g>
<g><path style="opacity:0.004" fill="#fe0000" d="M 62.5,66.5 C 62.8333,66.5 63.1667,66.5 63.5,66.5C 63.3147,67.1701 62.9813,67.1701 62.5,66.5 Z"/></g>
<g><path style="opacity:0.016" fill="#f69b83" d="M 87.5,65.5 C 87.8333,65.5 88.1667,65.5 88.5,65.5C 88.6716,66.4916 88.3382,67.1583 87.5,67.5C 87.5,66.8333 87.5,66.1667 87.5,65.5 Z"/></g>
<g><path style="opacity:0.02" fill="#ff8845" d="M 48.5,66.5 C 47.5655,67.5676 47.2322,68.901 47.5,70.5C 47.1667,70.5 46.8333,70.5 46.5,70.5C 46.1814,68.2495 46.6814,66.2495 48,64.5C 48.4643,65.0944 48.631,65.7611 48.5,66.5 Z"/></g>
<g><path style="opacity:0.008" fill="#fe0000" d="M 86.5,67.5 C 86.8333,67.5 87.1667,67.5 87.5,67.5C 87.3147,68.1701 86.9813,68.1701 86.5,67.5 Z"/></g>
<g><path style="opacity:0.004" fill="#fefffe" d="M 62.5,68.5 C 63.8333,69.1667 63.8333,69.1667 62.5,68.5 Z"/></g>
<g><path style="opacity:0.012" fill="#ffa54b" d="M 61.5,69.5 C 61.8333,69.5 62.1667,69.5 62.5,69.5C 62.7373,70.791 62.404,71.791 61.5,72.5C 61.5,71.5 61.5,70.5 61.5,69.5 Z"/></g>
<g><path style="opacity:0.012" fill="#ffba99" d="M 46.5,70.5 C 46.5,71.8333 46.5,73.1667 46.5,74.5C 45.1667,73.1667 45.1667,71.8333 46.5,70.5 Z"/></g>
<g><path style="opacity:0.024" fill="#ffb257" d="M 72.5,80.5 C 71.3592,77.3601 71.1925,74.0267 72,70.5C 72.4983,73.8168 72.665,77.1501 72.5,80.5 Z"/></g>
<g><path style="opacity:0.012" fill="#e19d75" d="M 46.5,74.5 C 46.8333,74.5 47.1667,74.5 47.5,74.5C 47.5,75.8333 47.5,77.1667 47.5,78.5C 46.5655,77.4324 46.2322,76.099 46.5,74.5 Z"/></g>
<g><path style="opacity:0.024" fill="#ed8f2e" d="M 60.5,72.5 C 60.8333,72.5 61.1667,72.5 61.5,72.5C 61.423,76.2148 61.7564,79.8815 62.5,83.5C 62.1667,83.5 61.8333,83.5 61.5,83.5C 61.6716,82.5084 61.3382,81.8417 60.5,81.5C 60.5,78.5 60.5,75.5 60.5,72.5 Z"/></g>
<g><path style="opacity:0.02" fill="#f6da9f" d="M 47.5,78.5 C 47.8333,78.5 48.1667,78.5 48.5,78.5C 48.5,79.1667 48.5,79.8333 48.5,80.5C 47.6618,80.1583 47.3284,79.4916 47.5,78.5 Z"/></g>
<g><path style="opacity:0.004" fill="#000000" d="M 90.5,80.5 C 91.8333,81.1667 91.8333,81.1667 90.5,80.5 Z"/></g>
<g><path style="opacity:0.012" fill="#ffb08a" d="M 48.5,80.5 C 48.8333,80.5 49.1667,80.5 49.5,80.5C 49.1667,83.1667 48.8333,83.1667 48.5,80.5 Z"/></g>
<g><path style="opacity:0.008" fill="#ff8e72" d="M 72.5,80.5 C 72.8333,80.5 73.1667,80.5 73.5,80.5C 73.1667,83.1667 72.8333,83.1667 72.5,80.5 Z"/></g>
<g><path style="opacity:0.004" fill="#fe0000" d="M 50.5,84.5 C 49.8333,83.1667 49.8333,83.1667 50.5,84.5 Z"/></g>
<g><path style="opacity:0.004" fill="#feff00" d="M 62.5,83.5 C 63.8333,84.1667 63.8333,84.1667 62.5,83.5 Z"/></g>
<g><path style="opacity:0.012" fill="#ff8f78" d="M 50.5,84.5 C 50.8333,84.5 51.1667,84.5 51.5,84.5C 51.1667,87.1667 50.8333,87.1667 50.5,84.5 Z"/></g>
<g><path style="opacity:0.004" fill="#fffebe" d="M 74.5,84.5 C 74.5,85.1667 74.5,85.8333 74.5,86.5C 73.1667,85.8333 73.1667,85.1667 74.5,84.5 Z"/></g>
<g><path style="opacity:0.004" fill="#ffe9d3" d="M 74.5,86.5 C 74.8333,86.5 75.1667,86.5 75.5,86.5C 75.1667,89.1667 74.8333,89.1667 74.5,86.5 Z"/></g>
<g><path style="opacity:0.008" fill="#ff66ff" d="M 95.5,88.5 C 95.369,87.7611 95.5357,87.0944 96,86.5C 96.6917,87.4368 96.525,88.1034 95.5,88.5 Z"/></g>
<g><path style="opacity:0.012" fill="#ffc58d" d="M 66.5,90.5 C 67.8333,91.1667 67.8333,91.8333 66.5,92.5C 66.5,91.8333 66.5,91.1667 66.5,90.5 Z"/></g>
<g><path style="opacity:0.016" fill="#bd7725" d="M 96.5,89.5 C 97.6408,92.6399 97.8075,95.9733 97,99.5C 96.5017,96.1832 96.335,92.8499 96.5,89.5 Z"/></g>
<g><path style="opacity:0.016" fill="#fe8000" d="M 58.5,94.5 C 58.8333,94.5 59.1667,94.5 59.5,94.5C 59.3147,95.1701 58.9813,95.1701 58.5,94.5 Z"/></g>
<g><path style="opacity:0.008" fill="#ffedcc" d="M 82.5,95.5 C 82.631,96.2389 82.4643,96.9056 82,97.5C 81.3083,96.5632 81.475,95.8966 82.5,95.5 Z"/></g>
<g><path style="opacity:0.004" fill="#feff00" d="M 71.5,98.5 C 72.8333,99.1667 72.8333,99.1667 71.5,98.5 Z"/></g>
<g><path style="opacity:0.004" fill="#ffb4f6" d="M 82.5,99.5 C 83.6225,101.288 83.7891,103.288 83,105.5C 82.5045,103.527 82.3379,101.527 82.5,99.5 Z"/></g>
<g><path style="opacity:0.004" fill="#fe0000" d="M 95.5,101.5 C 96.8333,102.167 96.8333,102.167 95.5,101.5 Z"/></g>
<g><path style="opacity:0.024" fill="#fe8029" d="M 74.5,103.5 C 73.8333,102.167 73.8333,102.167 74.5,103.5 Z"/></g>
<g><path style="opacity:0.016" fill="#febf7f" d="M 94.5,102.5 C 94.8333,102.5 95.1667,102.5 95.5,102.5C 95.3147,103.17 94.9813,103.17 94.5,102.5 Z"/></g>
<g><path style="opacity:0.024" fill="#d4aa7f" d="M 74.5,103.5 C 75.1667,103.5 75.5,103.833 75.5,104.5C 75.1667,104.167 74.8333,103.833 74.5,103.5 Z"/></g>
<g><path style="opacity:0.02" fill="#fe6600" d="M 93.5,103.5 C 93.8333,103.5 94.1667,103.5 94.5,103.5C 94.3147,104.17 93.9813,104.17 93.5,103.5 Z"/></g>
<g><path style="opacity:0.997" fill="#5b88a3" d="M 427.5,110.5 C 426.596,111.209 426.263,112.209 426.5,113.5C 425.566,114.568 425.232,115.901 425.5,117.5C 372.171,117.667 372.171,118.167 425.5,119C 411.833,119.333 398.167,119.667 384.5,120C 383.934,120.995 383.267,121.828 382.5,122.5C 382.167,118.5 381.833,118.5 381.5,122.5C 380.579,125.14 379.912,127.973 379.5,131C 379.528,132.07 379.861,132.903 380.5,133.5C 389.658,134.33 398.991,134.83 408.5,135C 371.184,135.501 371.184,136.334 408.5,137.5C 409.887,139.21 411.221,140.877 412.5,142.5C 413.248,144.332 414.248,145.999 415.5,147.5C 401.994,148.167 388.327,148.833 374.5,149.5C 373.347,150.687 373.347,151.687 374.5,152.5C 374.5,153.5 374.5,154.5 374.5,155.5C 373.566,156.568 373.232,157.901 373.5,159.5C 372.549,160.919 372.216,162.585 372.5,164.5C 371.566,165.568 371.232,166.901 371.5,168.5C 370.532,170.607 370.198,172.941 370.5,175.5C 369.566,176.568 369.232,177.901 369.5,179.5C 364.26,180.449 358.927,180.782 353.5,180.5C 353.5,179.5 353.5,178.5 353.5,177.5C 357.812,159.733 361.479,141.733 364.5,123.5C 365.434,122.432 365.768,121.099 365.5,119.5C 367.153,115.555 368.819,111.555 370.5,107.5C 371.675,108.855 372.675,108.688 373.5,107C 373.167,106.667 372.833,106.333 372.5,106C 374.451,103.024 377.118,101.691 380.5,102C 379.833,102.333 379.167,102.667 378.5,103C 394.83,103.5 411.163,103.667 427.5,103.5C 427.5,105.833 427.5,108.167 427.5,110.5 Z"/></g>
<g><path style="opacity:0.027" fill="#7da2b9" d="M 46.5,105.5 C 47.9464,104.387 49.6131,104.22 51.5,105C 49.8659,105.494 48.1992,105.66 46.5,105.5 Z"/></g>
<g><path style="opacity:0.016" fill="#fe8000" d="M 92.5,104.5 C 92.8333,104.5 93.1667,104.5 93.5,104.5C 93.3147,105.17 92.9813,105.17 92.5,104.5 Z"/></g>
<g><path style="opacity:0.024" fill="#fe8109" d="M 188.5,181.5 C 188.333,155.498 188.5,129.498 189,103.5C 189.83,129.67 189.663,155.67 188.5,181.5 Z"/></g>
<g><path style="opacity:0.008" fill="#a7dedd" d="M 428.5,103.5 C 429.573,104.251 429.74,105.251 429,106.5C 428.517,105.552 428.351,104.552 428.5,103.5 Z"/></g>
<g><path style="opacity:0.016" fill="#5c8493" d="M 46.5,105.5 C 46.5,105.833 46.5,106.167 46.5,106.5C 38.5,106.167 38.5,105.833 46.5,105.5 Z"/></g>
<g><path style="opacity:0.016" fill="#ffde8e" d="M 75.5,104.5 C 76.5735,105.251 76.7401,106.251 76,107.5C 75.5172,106.552 75.3505,105.552 75.5,104.5 Z"/></g>
<g><path style="opacity:0.016" fill="#fe803f" d="M 91.5,105.5 C 91.8333,105.5 92.1667,105.5 92.5,105.5C 92.3147,106.17 91.9813,106.17 91.5,105.5 Z"/></g>
<g><path style="opacity:0.997" fill="#e97208" d="M 187.5,181.5 C 186.566,182.568 186.232,183.901 186.5,185.5C 185.596,186.209 185.263,187.209 185.5,188.5C 184.662,188.842 184.328,189.508 184.5,190.5C 183.833,190.5 183.5,190.833 183.5,191.5C 182.833,191.5 182.5,191.833 182.5,192.5C 181.833,192.5 181.5,192.833 181.5,193.5C 177.69,192.976 175.69,194.643 175.5,198.5C 175.167,198.5 174.833,198.5 174.5,198.5C 174.858,196.646 174.358,194.646 173,192.5C 171.903,195.265 169.903,196.931 167,197.5C 166.5,197 166,196.5 165.5,196C 166.99,193.022 168.657,190.189 170.5,187.5C 170.196,186.85 169.863,186.183 169.5,185.5C 170.247,185.264 171.08,184.93 172,184.5C 172.822,182.212 173.489,179.878 174,177.5C 174.5,152.836 174.667,128.169 174.5,103.5C 178.833,103.5 183.167,103.5 187.5,103.5C 187.5,129.5 187.5,155.5 187.5,181.5 Z"/></g>
<g><path style="opacity:0.997" fill="#6c92ab" d="M 142.5,111.5 C 143.272,115.452 143.605,119.452 143.5,123.5C 142.596,124.209 142.263,125.209 142.5,126.5C 141.833,126.5 141.5,126.833 141.5,127.5C 140.662,127.842 140.328,128.508 140.5,129.5C 139.833,129.5 139.5,129.833 139.5,130.5C 138.833,130.5 138.5,130.833 138.5,131.5C 137.167,131.833 137.167,132.167 138.5,132.5C 138.027,133.906 137.027,134.573 135.5,134.5C 135.167,133.167 134.833,133.167 134.5,134.5C 133.167,134.833 133.167,135.167 134.5,135.5C 133.738,137.262 132.404,138.262 130.5,138.5C 130.44,137.957 130.107,137.624 129.5,137.5C 127.777,140.694 125.111,142.361 121.5,142.5C 120.833,141.167 120.167,141.167 119.5,142.5C 116.941,142.802 114.607,142.468 112.5,141.5C 113.762,139.007 115.762,137.174 118.5,136C 119.833,136 121.167,136 122.5,136C 124.394,134.899 125.061,133.566 124.5,132C 125.715,129.904 126.549,130.071 127,132.5C 127.333,131.167 127.667,129.833 128,128.5C 132.102,127.269 134.269,124.102 134.5,119C 134.607,116.779 133.94,114.946 132.5,113.5C 131.542,112.038 130.376,110.705 129,109.5C 125.284,111.137 121.451,110.804 117.5,108.5C 118.641,107.575 118.641,106.741 117.5,106C 120.428,103.746 123.762,102.579 127.5,102.5C 130.887,102.964 134.22,103.631 137.5,104.5C 137.343,105.873 137.51,107.207 138,108.5C 138.333,107.833 138.667,107.167 139,106.5C 140.683,107.887 141.85,109.553 142.5,111.5 Z"/></g>
<g><path style="opacity:0.004" fill="#d2d2d2" d="M 115.5,107.5 C 116.525,107.897 116.692,108.563 116,109.5C 115.536,108.906 115.369,108.239 115.5,107.5 Z"/></g>
<g><path style="opacity:0.008" fill="#fe8000" d="M 86.5,110.5 C 86.8333,110.5 87.1667,110.5 87.5,110.5C 87.3147,111.17 86.9813,111.17 86.5,110.5 Z"/></g>
<g><path style="opacity:0.008" fill="#fefffe" d="M 117.5,110.5 C 118.833,111.167 118.833,111.167 117.5,110.5 Z"/></g>
<g><path style="opacity:0.012" fill="#c5c5c5" d="M 142.5,111.5 C 142.369,110.761 142.536,110.094 143,109.5C 143.692,110.437 143.525,111.103 142.5,111.5 Z"/></g>
<g><path style="opacity:0.024" fill="#d4aa29" d="M 85.5,111.5 C 85.8333,111.5 86.1667,111.5 86.5,111.5C 86.3147,112.17 85.9813,112.17 85.5,111.5 Z"/></g>
<g><path style="opacity:0.008" fill="#8899e5" d="M 109.5,112.5 C 110.601,111.402 111.934,111.235 113.5,112C 112.207,112.49 110.873,112.657 109.5,112.5 Z"/></g>
<g><path style="opacity:0.008" fill="#899fde" d="M 427.5,110.5 C 428.833,111.5 428.833,112.5 427.5,113.5C 427.5,112.5 427.5,111.5 427.5,110.5 Z"/></g>
<g><path style="opacity:0.998" fill="#698ea8" d="M 46.5,106.5 C 48.604,106.201 50.604,106.534 52.5,107.5C 51.9747,108.192 51.3081,108.692 50.5,109C 50.8333,109.333 51.1667,109.667 51.5,110C 50.0039,110.507 48.8373,110.007 48,108.5C 46.513,109.253 46.3463,110.086 47.5,111C 44.1667,112.333 40.8333,113.667 37.5,115C 38.0944,115.464 38.7611,115.631 39.5,115.5C 39.5,115.833 39.5,116.167 39.5,116.5C 37.1688,116.859 37.3355,117.526 40,118.5C 42.3806,117.565 44.8806,117.232 47.5,117.5C 47.8333,117.5 48.1667,117.5 48.5,117.5C 48.5,117.167 48.5,116.833 48.5,116.5C 54.5,116.5 60.5,116.5 66.5,116.5C 71.233,117.19 76.0664,117.856 81,118.5C 83.405,117.726 85.905,117.226 88.5,117C 86.5273,116.505 84.5273,116.338 82.5,116.5C 82.5,116.167 82.5,115.833 82.5,115.5C 91.5317,114.781 100.532,113.781 109.5,112.5C 110.919,113.451 112.585,113.784 114.5,113.5C 114.703,115.39 114.037,116.89 112.5,118C 104.969,121.883 96.9695,124.217 88.5,125C 68.4984,126.949 48.4984,126.949 28.5,125C 25.4055,124.286 22.4055,123.286 19.5,122C 18.4237,119.869 17.7571,117.535 17.5,115C 19.2599,111.495 21.4266,110.995 24,113.5C 25.4868,110.023 28.1535,108.023 32,107.5C 37.0725,108.553 41.9059,108.219 46.5,106.5 Z M 39.5,116.5 C 42.3854,116.194 45.0521,116.527 47.5,117.5C 44.8806,117.232 42.3806,117.565 40,118.5C 37.3355,117.526 37.1688,116.859 39.5,116.5 Z M 66.5,116.5 C 71.8333,116.5 77.1667,116.5 82.5,116.5C 84.5273,116.338 86.5273,116.505 88.5,117C 85.905,117.226 83.405,117.726 81,118.5C 76.0664,117.856 71.233,117.19 66.5,116.5 Z"/></g>
<g><path style="opacity:0.012" fill="#9db1b0" d="M 132.5,113.5 C 132.631,114.239 132.464,114.906 132,115.5C 131.308,114.563 131.475,113.897 132.5,113.5 Z"/></g>
<g><path style="opacity:0.004" fill="#000000" d="M 39.5,116.5 C 39.5,116.167 39.5,115.833 39.5,115.5C 42.7131,115.19 45.7131,115.523 48.5,116.5C 48.5,116.833 48.5,117.167 48.5,117.5C 48.1667,117.5 47.8333,117.5 47.5,117.5C 45.0521,116.527 42.3854,116.194 39.5,116.5 Z"/></g>
<g><path style="opacity:0.004" fill="#131206" d="M 81.5,114.5 C 81.8333,114.5 82.1667,114.5 82.5,114.5C 82.5,114.833 82.5,115.167 82.5,115.5C 82.5,115.833 82.5,116.167 82.5,116.5C 77.1667,116.5 71.8333,116.5 66.5,116.5C 71.5,115.833 76.5,115.167 81.5,114.5 Z"/></g>
<g><path style="opacity:0.004" fill="#b0bed1" d="M 426.5,113.5 C 426.833,113.5 427.167,113.5 427.5,113.5C 427.167,118.833 426.833,118.833 426.5,113.5 Z"/></g>
<g><path style="opacity:0.024" fill="#6a939a" d="M 144.5,123.5 C 144.335,120.482 144.502,117.482 145,114.5C 145.805,117.696 145.638,120.696 144.5,123.5 Z"/></g>
<g><path style="opacity:0.012" fill="#709ca8" d="M 365.5,119.5 C 364.566,120.568 364.232,121.901 364.5,123.5C 363.236,121.228 363.402,118.895 365,116.5C 365.483,117.448 365.649,118.448 365.5,119.5 Z"/></g>
<g><path style="opacity:0.004" fill="#ff7d2a" d="M 208.5,121.5 C 209.601,120.402 210.934,120.235 212.5,121C 211.207,121.49 209.873,121.657 208.5,121.5 Z"/></g>
<g><path style="opacity:0.004" fill="#ff6bfa" d="M 229.5,121.5 C 228.448,121.649 227.448,121.483 226.5,121C 227.749,120.26 228.749,120.427 229.5,121.5 Z"/></g>
<g><path style="opacity:0.004" fill="#fffe32" d="M 247.5,121.5 C 251.646,120.353 255.98,120.186 260.5,121C 256.179,121.499 251.846,121.666 247.5,121.5 Z"/></g>
<g><path style="opacity:0.004" fill="#feff00" d="M 284.5,121.5 C 288.311,120.355 292.311,120.188 296.5,121C 292.514,121.499 288.514,121.666 284.5,121.5 Z"/></g>
<g><path style="opacity:0.004" fill="#ff7d2a" d="M 314.5,121.5 C 315.601,120.402 316.934,120.235 318.5,121C 317.207,121.49 315.873,121.657 314.5,121.5 Z"/></g>
<g><path style="opacity:0.004" fill="#ffd05b" d="M 336.5,121.5 C 335.448,121.649 334.448,121.483 333.5,121C 334.749,120.26 335.749,120.427 336.5,121.5 Z"/></g>
<g><path style="opacity:0.004" fill="#7efffe" d="M 422.5,121.5 C 417.156,121.666 411.823,121.499 406.5,121C 412.016,120.183 417.35,120.349 422.5,121.5 Z"/></g>
<g><path style="opacity:0.004" fill="#65fffe" d="M 450.5,121.5 C 456.319,120.347 462.319,120.181 468.5,121C 462.509,121.499 456.509,121.666 450.5,121.5 Z"/></g>
<g><path style="opacity:0.004" fill="#abfffe" d="M 471.5,121.5 C 472.946,120.387 474.613,120.22 476.5,121C 474.866,121.494 473.199,121.66 471.5,121.5 Z"/></g>
<g><path style="opacity:0.004" fill="#fefffe" d="M 477.5,120.5 C 478.833,121.167 478.833,121.167 477.5,120.5 Z"/></g>
<g><path style="opacity:0.004" fill="#000000" d="M 483.5,122.5 C 484.167,122.5 484.5,122.833 484.5,123.5C 484.167,123.167 483.833,122.833 483.5,122.5 Z"/></g>
<g><path style="opacity:0.016" fill="#a1bece" d="M 381.5,122.5 C 381.833,122.5 382.167,122.5 382.5,122.5C 382.167,126.5 381.833,126.5 381.5,122.5 Z"/></g>
<g><path style="opacity:0.016" fill="#6fd4d3" d="M 404.5,122.5 C 405.525,122.897 405.692,123.563 405,124.5C 404.536,123.906 404.369,123.239 404.5,122.5 Z"/></g>
<g><path style="opacity:0.004" fill="#4051ba" d="M 143.5,123.5 C 143.833,123.5 144.167,123.5 144.5,123.5C 144.737,124.791 144.404,125.791 143.5,126.5C 143.5,125.5 143.5,124.5 143.5,123.5 Z"/></g>
<g><path style="opacity:0.008" fill="#ffa256" d="M 245.5,126.5 C 244.427,125.749 244.26,124.749 245,123.5C 245.483,124.448 245.649,125.448 245.5,126.5 Z"/></g>
<g><path style="opacity:0.024" fill="#7faaa9" d="M 469.5,124.5 C 470.833,125.167 470.833,125.167 469.5,124.5 Z"/></g>
<g><path style="opacity:0.999" fill="#ec7d22" d="M 208.5,121.5 C 215.5,122.833 222.5,122.833 229.5,121.5C 232.14,121.954 234.473,123.121 236.5,125C 236.167,125.333 235.833,125.667 235.5,126C 238.163,128.843 240.163,132.009 241.5,135.5C 241.5,150.5 241.5,165.5 241.5,180.5C 237.833,180.5 234.167,180.5 230.5,180.5C 230.762,179.022 230.429,177.689 229.5,176.5C 229.251,177.582 229.085,178.915 229,180.5C 228.667,180.167 228.333,179.833 228,179.5C 226.556,181.155 224.722,181.822 222.5,181.5C 222.5,180.833 222.167,180.5 221.5,180.5C 220.508,180.328 219.842,180.662 219.5,181.5C 219.167,181.5 218.833,181.5 218.5,181.5C 218.167,181.5 217.833,181.5 217.5,181.5C 214.287,181.19 211.287,181.523 208.5,182.5C 208.5,182.833 208.5,183.167 208.5,183.5C 204.75,183.598 201.417,182.431 198.5,180C 197.167,179 197.167,178 198.5,177C 197.934,176.005 197.267,175.172 196.5,174.5C 194.514,168.939 193.847,163.273 194.5,157.5C 195.602,156.824 196.602,156.158 197.5,155.5C 198.774,154.811 198.774,153.977 197.5,153C 200.791,150.182 204.458,148.016 208.5,146.5C 207.321,148.409 207.654,148.742 209.5,147.5C 209.833,147.5 210.167,147.5 210.5,147.5C 211.623,148.757 212.289,148.424 212.5,146.5C 213.167,146.5 213.833,146.5 214.5,146.5C 215.097,147.139 215.93,147.472 217,147.5C 218.376,147.316 219.209,146.649 219.5,145.5C 221.5,145.5 223.5,145.5 225.5,145.5C 225.299,142.272 225.633,139.105 226.5,136C 226.354,134.273 225.687,134.106 224.5,135.5C 223.749,134.624 223.249,133.624 223,132.5C 221.004,134.059 218.671,134.726 216,134.5C 213.083,134.665 210.417,133.998 208,132.5C 206.933,133.191 205.766,133.691 204.5,134C 205.5,134.333 206.5,134.667 207.5,135C 205,135.375 202.667,136.208 200.5,137.5C 200.613,136.141 199.947,134.807 198.5,133.5C 198.704,130.455 198.704,127.621 198.5,125C 201.531,122.985 204.864,121.819 208.5,121.5 Z M 225.5,168.5 C 225.5,168.167 225.5,167.833 225.5,167.5C 226.325,163.353 226.825,159.019 227,154.5C 227.167,156.833 227.333,159.167 227.5,161.5C 227.471,164.269 226.805,166.603 225.5,168.5 Z M 225.5,167.5 C 224.833,167.5 224.5,167.833 224.5,168.5C 223.209,168.263 222.209,168.596 221.5,169.5C 217.782,171.151 214.282,170.818 211,168.5C 210.667,169.167 210.333,169.833 210,170.5C 208.632,167.262 208.299,163.928 209,160.5C 209.333,162.5 209.667,164.5 210,166.5C 210.497,164.19 210.663,161.857 210.5,159.5C 211.167,159.5 211.5,159.167 211.5,158.5C 216.147,157.704 220.814,157.037 225.5,156.5C 225.5,160.167 225.5,163.833 225.5,167.5 Z"/></g>
<g><path style="opacity:0.004" fill="#ffe9d3" d="M 342.5,126.5 C 342.56,125.957 342.893,125.624 343.5,125.5C 344.773,126.257 344.773,126.923 343.5,127.5C 343.5,126.833 343.167,126.5 342.5,126.5 Z"/></g>
<g><path style="opacity:0.999" fill="#5e89a4" d="M 422.5,121.5 C 423.09,123.532 424.424,125.532 426.5,127.5C 426.709,128.922 427.209,130.255 428,131.5C 431.005,132.43 433.672,134.43 436,137.5C 441.733,132.303 446.567,126.969 450.5,121.5C 457.065,121.851 463.399,122.851 469.5,124.5C 468.833,124.5 468.5,124.833 468.5,125.5C 467.167,125.833 467.167,126.167 468.5,126.5C 468.167,127.5 467.5,128.167 466.5,128.5C 466.167,127.167 465.833,127.167 465.5,128.5C 464.677,130.805 463.344,132.805 461.5,134.5C 461.167,131.833 460.833,131.833 460.5,134.5C 459.167,134.833 459.167,135.167 460.5,135.5C 458.167,138.5 455.5,141.167 452.5,143.5C 452.167,140.833 451.833,140.833 451.5,143.5C 450.167,143.833 450.167,144.167 451.5,144.5C 450.542,145.962 449.376,147.295 448,148.5C 447.195,146.099 446.362,146.266 445.5,149C 446.167,149.333 446.833,149.667 447.5,150C 444.911,151.922 444.411,154.089 446,156.5C 447.666,155.66 447.833,156.16 446.5,158C 447.362,160.734 448.195,160.901 449,158.5C 449.985,160.175 450.819,161.842 451.5,163.5C 453.763,168.365 456.763,172.698 460.5,176.5C 460.33,177.822 460.663,178.989 461.5,180C 455.984,180.173 450.651,180.673 445.5,181.5C 445.04,180.256 443.707,179.256 441.5,178.5C 442.421,176.969 442.088,175.635 440.5,174.5C 440.672,173.508 440.338,172.842 439.5,172.5C 439.068,171.29 438.401,170.29 437.5,169.5C 436.341,168.26 435.341,166.926 434.5,165.5C 434.167,164.167 433.833,164.167 433.5,165.5C 431.956,165.703 430.622,166.37 429.5,167.5C 427.863,166.556 426.863,167.223 426.5,169.5C 425.833,169.5 425.5,169.833 425.5,170.5C 424.833,170.5 424.5,170.833 424.5,171.5C 423.833,171.5 423.5,171.833 423.5,172.5C 422.833,172.5 422.5,172.833 422.5,173.5C 421.833,173.5 421.5,173.833 421.5,174.5C 420.833,174.5 420.5,174.833 420.5,175.5C 419.833,175.5 419.5,175.833 419.5,176.5C 418.833,176.5 418.5,176.833 418.5,177.5C 417.833,177.5 417.5,177.833 417.5,178.5C 416.833,178.5 416.5,178.833 416.5,179.5C 415.833,179.5 415.5,179.833 415.5,180.5C 408.978,180.823 402.645,180.49 396.5,179.5C 396.584,176.787 398.084,174.454 401,172.5C 401.333,173.167 401.667,173.833 402,174.5C 402.662,173.016 403.496,171.683 404.5,170.5C 405.167,170.5 405.5,170.167 405.5,169.5C 406.5,169.167 407.167,168.5 407.5,167.5C 408.167,167.5 408.5,167.167 408.5,166.5C 409.167,166.5 409.5,166.167 409.5,165.5C 410.167,165.5 410.5,165.167 410.5,164.5C 411.5,164.167 412.167,163.5 412.5,162.5C 413.167,162.5 413.5,162.167 413.5,161.5C 414.167,161.5 414.5,161.167 414.5,160.5C 416.5,159.024 418.167,157.191 419.5,155C 418.346,154.086 418.513,153.253 420,152.5C 420.805,154.901 421.638,154.734 422.5,152C 421.167,150.667 421.167,149.333 422.5,148C 421.934,147.005 421.267,146.172 420.5,145.5C 420.672,144.508 420.338,143.842 419.5,143.5C 418.154,141.463 416.82,139.463 415.5,137.5C 414.136,135.809 412.803,134.142 411.5,132.5C 411.672,131.508 411.338,130.842 410.5,130.5C 409.488,129.128 408.488,127.795 407.5,126.5C 407.461,125.417 407.127,124.417 406.5,123.5C 411.985,122.833 417.319,122.167 422.5,121.5 Z"/></g>
<g><path style="opacity:0.016" fill="#7f80bf" d="M 468.5,125.5 C 468.833,125.5 469.167,125.5 469.5,125.5C 469.315,126.17 468.981,126.17 468.5,125.5 Z"/></g>
<g><path style="opacity:0.008" fill="#a3d3d3" d="M 484.5,123.5 C 485.622,125.288 485.789,127.288 485,129.5C 484.505,127.527 484.338,125.527 484.5,123.5 Z"/></g>
<g><path style="opacity:0.004" fill="#000000" d="M 142.5,126.5 C 142.833,126.5 143.167,126.5 143.5,126.5C 143.315,127.17 142.981,127.17 142.5,126.5 Z"/></g>
<g><path style="opacity:0.016" fill="#ffb17f" d="M 298.5,127.5 C 298.343,126.127 298.51,124.793 299,123.5C 299.765,125.066 299.598,126.399 298.5,127.5 Z"/></g>
<g><path style="opacity:0.016" fill="#7f80bf" d="M 427.5,127.5 C 426.833,126.167 426.833,126.167 427.5,127.5 Z"/></g>
<g><path style="opacity:0.965" fill="#81a6bc" d="M 483.5,122.5 C 483.135,124.588 483.135,126.921 483.5,129.5C 481.167,129.5 478.833,129.5 476.5,129.5C 476.443,124.318 475.776,124.318 474.5,129.5C 473.376,124.279 472.542,124.279 472,129.5C 471.503,127.19 471.337,124.857 471.5,122.5C 475.007,123.006 478.174,122.34 481,120.5C 481.995,121.066 482.828,121.733 483.5,122.5 Z"/></g>
<g><path style="opacity:0.016" fill="#ffbf70" d="M 245.5,126.5 C 245.833,126.5 246.167,126.5 246.5,126.5C 246.5,127.5 246.5,128.5 246.5,129.5C 245.596,128.791 245.263,127.791 245.5,126.5 Z"/></g>
<g><path style="opacity:0.978" fill="#f79a4e" d="M 314.5,121.5 C 314.842,122.338 315.508,122.672 316.5,122.5C 315.947,124.552 314.947,124.885 313.5,123.5C 312.151,122.356 311.817,122.356 312.5,123.5C 311.359,125.088 309.859,126.421 308,127.5C 307.654,129.218 307.154,130.885 306.5,132.5C 306.855,133.522 307.522,134.189 308.5,134.5C 308.842,133.662 309.508,133.328 310.5,133.5C 310.833,134.833 311.167,134.833 311.5,133.5C 311.842,132.662 312.508,132.328 313.5,132.5C 313.302,135.374 311.302,136.707 307.5,136.5C 306.233,134.961 305.233,133.294 304.5,131.5C 304.737,130.209 304.404,129.209 303.5,128.5C 305.603,123.936 309.27,121.603 314.5,121.5 Z"/></g>
<g><path style="opacity:0.998" fill="#eb7615" d="M 336.5,121.5 C 337.922,121.709 339.255,122.209 340.5,123C 340.011,124.552 340.678,125.719 342.5,126.5C 343.167,126.5 343.5,126.833 343.5,127.5C 344.512,128.872 345.512,130.205 346.5,131.5C 346.5,147.833 346.5,164.167 346.5,180.5C 343.287,180.19 340.287,180.523 337.5,181.5C 336.9,180.1 335.9,179.1 334.5,178.5C 334.5,178.167 334.5,177.833 334.5,177.5C 335.833,177.167 335.833,176.833 334.5,176.5C 333.167,176.5 332.5,177.167 332.5,178.5C 332.167,178.5 331.833,178.5 331.5,178.5C 328.68,178.087 326.68,179.087 325.5,181.5C 325.167,181.5 324.833,181.5 324.5,181.5C 324.167,181.5 323.833,181.5 323.5,181.5C 320.167,181.5 316.833,181.5 313.5,181.5C 313.167,181.5 312.833,181.5 312.5,181.5C 312.158,180.662 311.492,180.328 310.5,180.5C 309.833,180.5 309.5,180.833 309.5,181.5C 308.042,181.421 306.708,180.921 305.5,180C 305.833,179.667 306.167,179.333 306.5,179C 303.72,177.087 302.053,174.587 301.5,171.5C 299.94,163.202 302.273,156.369 308.5,151C 307.167,150.333 307.167,149.667 308.5,149C 310.94,147.697 313.44,146.53 316,145.5C 321.432,145.846 326.932,145.846 332.5,145.5C 332.85,141.946 332.184,138.612 330.5,135.5C 331.466,133.133 330.8,132.466 328.5,133.5C 324.5,132.167 320.5,132.167 316.5,133.5C 315.391,133.443 314.391,133.11 313.5,132.5C 312.508,132.328 311.842,132.662 311.5,133.5C 311.167,133.5 310.833,133.5 310.5,133.5C 309.508,133.328 308.842,133.662 308.5,134.5C 307.522,134.189 306.855,133.522 306.5,132.5C 307.154,130.885 307.654,129.218 308,127.5C 309.859,126.421 311.359,125.088 312.5,123.5C 312.833,123.5 313.167,123.5 313.5,123.5C 314.947,124.885 315.947,124.552 316.5,122.5C 323.354,122.824 330.021,122.491 336.5,121.5 Z M 331.5,167.5 C 330.833,167.5 330.5,167.833 330.5,168.5C 329.209,168.263 328.209,168.596 327.5,169.5C 324.148,170.707 320.814,170.707 317.5,169.5C 316.637,167.579 315.971,165.579 315.5,163.5C 316.345,162.329 317.011,160.995 317.5,159.5C 318.995,159.011 320.329,158.345 321.5,157.5C 325.154,157.058 328.821,156.724 332.5,156.5C 332.756,160.269 332.423,163.936 331.5,167.5 Z"/></g>
<g><path style="opacity:0.012" fill="#92c7ff" d="M 407.5,126.5 C 407.631,127.239 407.464,127.906 407,128.5C 406.308,127.563 406.475,126.897 407.5,126.5 Z"/></g>
<g><path style="opacity:0.008" fill="#80fffe" d="M 427.5,127.5 C 428.833,128.167 428.833,128.167 427.5,127.5 Z"/></g>
<g><path style="opacity:0.027" fill="#c6edec" d="M 45.5,127.5 C 46.5735,128.251 46.7401,129.251 46,130.5C 45.5172,129.552 45.3505,128.552 45.5,127.5 Z"/></g>
<g><path style="opacity:0.016" fill="#77b2b2" d="M 141.5,127.5 C 141.833,127.5 142.167,127.5 142.5,127.5C 142.672,128.492 142.338,129.158 141.5,129.5C 141.5,128.833 141.5,128.167 141.5,127.5 Z"/></g>
<g><path style="opacity:0.012" fill="#a9aaff" d="M 140.5,129.5 C 140.833,129.5 141.167,129.5 141.5,129.5C 141.315,130.17 140.981,130.17 140.5,129.5 Z"/></g>
<g><path style="opacity:0.004" fill="#d4d2e9" d="M 465.5,128.5 C 465.833,128.5 466.167,128.5 466.5,128.5C 466.167,131.167 465.833,131.167 465.5,128.5 Z"/></g>
<g><path style="opacity:0.02" fill="#98cccb" d="M 139.5,130.5 C 139.833,130.5 140.167,130.5 140.5,130.5C 140.315,131.17 139.981,131.17 139.5,130.5 Z"/></g>
<g><path style="opacity:0.012" fill="#ffc56c" d="M 347.5,131.5 C 347.167,131.5 346.833,131.5 346.5,131.5C 346.833,128.833 347.167,128.833 347.5,131.5 Z"/></g>
<g><path style="opacity:0.027" fill="#6db6b5" d="M 410.5,130.5 C 409.833,131.167 409.833,131.167 410.5,130.5 Z"/></g>
<g><path style="opacity:0.02" fill="#83b1c0" d="M 473.5,131.5 C 473.897,130.475 474.563,130.308 475.5,131C 474.906,131.464 474.239,131.631 473.5,131.5 Z"/></g>
<g><path style="opacity:0.008" fill="#909eaf" d="M 476.5,131.5 C 478.628,130.371 480.961,130.204 483.5,131C 481.19,131.497 478.857,131.663 476.5,131.5 Z"/></g>
<g><path style="opacity:0.02" fill="#6699cc" d="M 138.5,131.5 C 138.833,131.5 139.167,131.5 139.5,131.5C 139.315,132.17 138.981,132.17 138.5,131.5 Z"/></g>
<g><path style="opacity:0.004" fill="#e5b707" d="M 197.5,133.5 C 196.402,132.399 196.235,131.066 197,129.5C 197.49,130.793 197.657,132.127 197.5,133.5 Z"/></g>
<g><path style="opacity:0.012" fill="#e87437" d="M 303.5,128.5 C 303.263,129.791 303.596,130.791 304.5,131.5C 304.164,136.411 303.498,136.077 302.5,130.5C 302.543,129.584 302.876,128.917 303.5,128.5 Z"/></g>
<g><path style="opacity:0.004" fill="#fe0000" d="M 347.5,131.5 C 348.525,131.897 348.692,132.563 348,133.5C 347.536,132.906 347.369,132.239 347.5,131.5 Z"/></g>
<g><path style="opacity:0.004" fill="#cdfffe" d="M 380.5,133.5 C 380.343,132.127 380.51,130.793 381,129.5C 381.765,131.066 381.598,132.399 380.5,133.5 Z"/></g>
<g><path style="opacity:0.996" fill="#6890a9" d="M 40.5,126.5 C 44.6246,126.723 45.2912,128.223 42.5,131C 45.5687,132.846 48.9021,133.846 52.5,134C 68.0548,135.398 83.3881,134.231 98.5,130.5C 98.2964,131.529 98.7964,132.529 100,133.5C 100.414,133.043 100.914,132.709 101.5,132.5C 103.453,133.761 105.453,134.927 107.5,136C 106.359,136.741 106.359,137.575 107.5,138.5C 103.639,139.598 103.639,140.431 107.5,141C 85.3979,146.968 63.0645,147.968 40.5,144C 39.1667,143.333 37.8333,142.667 36.5,142C 36.8333,141.667 37.1667,141.333 37.5,141C 35.552,139.561 34.2186,137.728 33.5,135.5C 34.1984,134.137 34.1984,132.971 33.5,132C 34.4491,131.383 35.2825,131.549 36,132.5C 36.5985,129.746 38.0985,127.746 40.5,126.5 Z M 93.5,141.5 C 94.2891,141.783 94.9558,142.283 95.5,143C 93.5,143.667 91.5,143.667 89.5,143C 91.0581,142.79 92.3915,142.29 93.5,141.5 Z"/></g>
<g><path style="opacity:0.024" fill="#faa761" d="M 246.5,129.5 C 246.833,129.5 247.167,129.5 247.5,129.5C 247.328,130.492 247.662,131.158 248.5,131.5C 248.5,132.5 248.5,133.5 248.5,134.5C 247.069,133.22 246.402,131.553 246.5,129.5 Z"/></g>
<g><path style="opacity:0.024" fill="#de9652" d="M 297.5,127.5 C 297.833,127.5 298.167,127.5 298.5,127.5C 298.706,130.495 298.04,133.162 296.5,135.5C 296.5,134.167 296.5,132.833 296.5,131.5C 297.434,130.432 297.768,129.099 297.5,127.5 Z"/></g>
<g><path style="opacity:0.016" fill="#f3892d" d="M 242.5,135.5 C 242.167,135.5 241.833,135.5 241.5,135.5C 241.833,131.5 242.167,131.5 242.5,135.5 Z"/></g>
<g><path style="opacity:0.004" fill="#feff00" d="M 316.5,133.5 C 320.5,133.5 324.5,133.5 328.5,133.5C 324.5,134.833 320.5,134.833 316.5,133.5 Z"/></g>
<g><path style="opacity:0.004" fill="#d2d2d2" d="M 411.5,132.5 C 411.631,133.239 411.464,133.906 411,134.5C 410.308,133.563 410.475,132.897 411.5,132.5 Z"/></g>
<g><path style="opacity:0.016" fill="#7f80bf" d="M 134.5,134.5 C 134.833,134.5 135.167,134.5 135.5,134.5C 135.315,135.17 134.981,135.17 134.5,134.5 Z"/></g>
<g><path style="opacity:0.004" fill="#ffe2c5" d="M 197.5,133.5 C 197.833,133.5 198.167,133.5 198.5,133.5C 198.167,136.167 197.833,136.167 197.5,133.5 Z"/></g>
<g><path style="opacity:0.004" fill="#fefffe" d="M 460.5,134.5 C 460.833,134.5 461.167,134.5 461.5,134.5C 461.315,135.17 460.981,135.17 460.5,134.5 Z"/></g>
<g><path style="opacity:0.012" fill="#4ba0ae" d="M 31.5,133.5 C 32.5983,134.601 32.765,135.934 32,137.5C 31.51,136.207 31.3433,134.873 31.5,133.5 Z"/></g>
<g><path style="opacity:0.004" fill="#c96420" d="M 295.5,135.5 C 295.833,135.5 296.167,135.5 296.5,135.5C 296.167,143.5 295.833,143.5 295.5,135.5 Z"/></g>
<g><path style="opacity:0.027" fill="#e7ce9a" d="M 307.5,136.5 C 307.103,137.525 306.437,137.692 305.5,137C 306.094,136.536 306.761,136.369 307.5,136.5 Z"/></g>
<g><path style="opacity:0.004" fill="#ff5921" d="M 248.5,134.5 C 248.833,134.5 249.167,134.5 249.5,134.5C 249.167,141.167 248.833,141.167 248.5,134.5 Z"/></g>
<g><path style="opacity:0.012" fill="#c8c5ff" d="M 108.5,137.5 C 109.525,137.897 109.692,138.563 109,139.5C 108.536,138.906 108.369,138.239 108.5,137.5 Z"/></g>
<g><path style="opacity:0.004" fill="#fefffe" d="M 130.5,138.5 C 129.833,139.167 129.833,139.167 130.5,138.5 Z"/></g>
<g><path style="opacity:0.008" fill="#ff817d" d="M 242.5,135.5 C 243.661,150.328 243.828,165.328 243,180.5C 242.5,165.504 242.333,150.504 242.5,135.5 Z"/></g>
<g><path style="opacity:0.008" fill="#d9d3ff" d="M 415.5,137.5 C 415.631,138.239 415.464,138.906 415,139.5C 414.308,138.563 414.475,137.897 415.5,137.5 Z"/></g>
<g><path style="opacity:0.004" fill="#fefffe" d="M 112.5,141.5 C 111.833,140.167 111.833,140.167 112.5,141.5 Z"/></g>
<g><path style="opacity:0.008" fill="#8080ff" d="M 415.5,140.5 C 416.833,141.167 416.833,141.167 415.5,140.5 Z"/></g>
<g><path style="opacity:0.008" fill="#ffe371" d="M 250.5,142.5 C 249.475,142.103 249.308,141.437 250,140.5C 250.464,141.094 250.631,141.761 250.5,142.5 Z"/></g>
<g><path style="opacity:0.012" fill="#6777b1" d="M 412.5,142.5 C 412.369,141.761 412.536,141.094 413,140.5C 413.692,141.437 413.525,142.103 412.5,142.5 Z"/></g>
<g><path style="opacity:0.008" fill="#d9d3ff" d="M 119.5,143.5 C 119.5,143.167 119.5,142.833 119.5,142.5C 120.167,142.5 120.833,142.5 121.5,142.5C 121.158,143.338 120.492,143.672 119.5,143.5 Z"/></g>
<g><path style="opacity:0.004" fill="#343434" d="M 119.5,143.5 C 117.712,144.622 115.712,144.789 113.5,144C 115.473,143.505 117.473,143.338 119.5,143.5 Z"/></g>
<g><path style="opacity:0.02" fill="#ffa158" d="M 250.5,142.5 C 250.833,142.5 251.167,142.5 251.5,142.5C 251.5,143.5 251.5,144.5 251.5,145.5C 250.596,144.791 250.263,143.791 250.5,142.5 Z"/></g>
<g><path style="opacity:0.008" fill="#ea7f6d" d="M 294.5,142.5 C 295.833,143.5 295.833,144.5 294.5,145.5C 294.5,144.5 294.5,143.5 294.5,142.5 Z"/></g>
<g><path style="opacity:0.008" fill="#000080" d="M 451.5,143.5 C 451.833,143.5 452.167,143.5 452.5,143.5C 452.315,144.17 451.981,144.17 451.5,143.5 Z"/></g>
<g><path style="opacity:0.004" fill="#ced9e6" d="M 419.5,143.5 C 419.5,144.167 419.5,144.833 419.5,145.5C 418.167,144.833 418.167,144.167 419.5,143.5 Z"/></g>
<g><path style="opacity:0.016" fill="#edba85" d="M 219.5,145.5 C 219.209,146.649 218.376,147.316 217,147.5C 215.93,147.472 215.097,147.139 214.5,146.5C 212.952,145.266 212.285,145.266 212.5,146.5C 212.289,148.424 211.623,148.757 210.5,147.5C 210.167,146.167 209.833,146.167 209.5,147.5C 207.654,148.742 207.321,148.409 208.5,146.5C 209.624,145.191 211.124,144.525 213,144.5C 215.137,145.077 217.304,145.41 219.5,145.5 Z"/></g>
<g><path style="opacity:0.004" fill="#000000" d="M 419.5,145.5 C 419.833,145.5 420.167,145.5 420.5,145.5C 420.315,146.17 419.981,146.17 419.5,145.5 Z"/></g>
<g><path style="opacity:0.024" fill="#ffca7a" d="M 251.5,145.5 C 251.833,145.5 252.167,145.5 252.5,145.5C 252.5,146.5 252.5,147.5 252.5,148.5C 251.596,147.791 251.263,146.791 251.5,145.5 Z"/></g>
<g><path style="opacity:0.999" fill="#eb791b" d="M 265.5,136.5 C 266.055,140.397 267.055,144.063 268.5,147.5C 268.328,148.492 268.662,149.158 269.5,149.5C 269.263,150.791 269.596,151.791 270.5,152.5C 270.42,155.781 271.087,158.781 272.5,161.5C 272.263,162.791 272.596,163.791 273.5,164.5C 274.234,163.292 274.567,161.959 274.5,160.5C 277.024,155.911 278.358,150.911 278.5,145.5C 281.553,138.247 283.219,130.58 283.5,122.5C 288.167,122.5 292.833,122.5 297.5,122.5C 297.5,124.167 297.5,125.833 297.5,127.5C 296.566,128.568 296.232,129.901 296.5,131.5C 295.566,132.568 295.232,133.901 295.5,135.5C 294.532,137.607 294.198,139.941 294.5,142.5C 293.596,143.209 293.263,144.209 293.5,145.5C 292.596,146.209 292.263,147.209 292.5,148.5C 291.596,149.209 291.263,150.209 291.5,151.5C 289.899,154.55 288.899,157.884 288.5,161.5C 287.596,162.209 287.263,163.209 287.5,164.5C 286.662,164.842 286.328,165.508 286.5,166.5C 285.566,167.568 285.232,168.901 285.5,170.5C 284.662,170.842 284.328,171.508 284.5,172.5C 283.662,172.842 283.328,173.508 283.5,174.5C 282.662,174.842 282.328,175.508 282.5,176.5C 281.662,176.842 281.328,177.508 281.5,178.5C 275.792,180.386 269.792,181.053 263.5,180.5C 263.737,179.209 263.404,178.209 262.5,177.5C 262.737,176.209 262.404,175.209 261.5,174.5C 261.672,173.508 261.338,172.842 260.5,172.5C 260.737,171.209 260.404,170.209 259.5,169.5C 259.784,167.585 259.451,165.919 258.5,164.5C 258.737,163.209 258.404,162.209 257.5,161.5C 257.672,160.508 257.338,159.842 256.5,159.5C 256.768,157.901 256.434,156.568 255.5,155.5C 255.59,152.848 254.924,150.515 253.5,148.5C 253.737,147.209 253.404,146.209 252.5,145.5C 252.737,144.209 252.404,143.209 251.5,142.5C 251.198,139.627 250.531,136.961 249.5,134.5C 249.737,133.209 249.404,132.209 248.5,131.5C 248.672,130.508 248.338,129.842 247.5,129.5C 247.737,128.209 247.404,127.209 246.5,126.5C 246.5,125.167 246.5,123.833 246.5,122.5C 251.5,122.5 256.5,122.5 261.5,122.5C 261.85,127.54 263.184,132.206 265.5,136.5 Z M 274.5,160.5 C 274.567,161.959 274.234,163.292 273.5,164.5C 272.596,163.791 272.263,162.791 272.5,161.5C 273.167,161.167 273.833,160.833 274.5,160.5 Z"/></g>
<g><path style="opacity:0.004" fill="#fffe67" d="M 278.5,145.5 C 277.427,144.749 277.26,143.749 278,142.5C 278.483,143.448 278.649,144.448 278.5,145.5 Z"/></g>
<g><path style="opacity:0.004" fill="#fffe7a" d="M 266.5,136.5 C 267.525,136.897 267.692,137.563 267,138.5C 266.536,137.906 266.369,137.239 266.5,136.5 Z"/></g>
<g><path style="opacity:0.016" fill="#f5a064" d="M 266.5,136.5 C 266.167,136.5 265.833,136.5 265.5,136.5C 265.833,132.5 266.167,132.5 266.5,136.5 Z"/></g>
<g><path style="opacity:0.008" fill="#ff9045" d="M 270.5,149.5 C 270.167,149.5 269.833,149.5 269.5,149.5C 269.672,148.508 269.338,147.842 268.5,147.5C 268.343,146.127 268.51,144.793 269,143.5C 269.813,145.436 270.313,147.436 270.5,149.5 Z"/></g>
<g><path style="opacity:0.02" fill="#e07a5c" d="M 293.5,145.5 C 293.833,145.5 294.167,145.5 294.5,145.5C 294.737,146.791 294.404,147.791 293.5,148.5C 293.5,147.5 293.5,146.5 293.5,145.5 Z"/></g>
<g><path style="opacity:0.024" fill="#a9aad4" d="M 417.5,147.5 C 416.833,146.167 416.833,146.167 417.5,147.5 Z"/></g>
<g><path style="opacity:0.016" fill="#98dfde" d="M 417.5,147.5 C 418.573,148.251 418.74,149.251 418,150.5C 417.517,149.552 417.351,148.552 417.5,147.5 Z"/></g>
<g><path style="opacity:0.016" fill="#ffc55a" d="M 252.5,148.5 C 252.833,148.5 253.167,148.5 253.5,148.5C 253.167,152.5 252.833,152.5 252.5,148.5 Z"/></g>
<g><path style="opacity:0.024" fill="#f89159" d="M 292.5,148.5 C 292.833,148.5 293.167,148.5 293.5,148.5C 293.737,149.791 293.404,150.791 292.5,151.5C 292.5,150.5 292.5,149.5 292.5,148.5 Z"/></g>
<g><path style="opacity:0.298" fill="#a8c5d0" d="M 415.5,147.5 C 415.833,147.5 416.167,147.5 416.5,147.5C 416.5,148.5 416.5,149.5 416.5,150.5C 361.837,150.667 361.837,151.167 416.5,152C 403.171,152.5 389.837,152.667 376.5,152.5C 376.737,153.791 376.404,154.791 375.5,155.5C 375.737,154.209 375.404,153.209 374.5,152.5C 373.347,151.687 373.347,150.687 374.5,149.5C 388.327,148.833 401.994,148.167 415.5,147.5 Z"/></g>
<g><path style="opacity:0.012" fill="#ffa54b" d="M 270.5,149.5 C 271.404,150.209 271.737,151.209 271.5,152.5C 271.167,152.5 270.833,152.5 270.5,152.5C 270.5,151.5 270.5,150.5 270.5,149.5 Z"/></g>
<g><path style="opacity:0.998" fill="#6992ab" d="M 83.5,166.5 C 81.1667,165.167 78.8333,165.167 76.5,166.5C 65.3937,168.977 54.727,167.811 44.5,163C 46.9011,162.195 46.7344,161.362 44,160.5C 43.5774,161.956 42.7441,162.456 41.5,162C 40.7476,160.133 39.7476,158.299 38.5,156.5C 38.7512,154.83 39.4178,153.33 40.5,152C 40.1667,151.667 39.8333,151.333 39.5,151C 42.1474,148.784 45.1474,147.784 48.5,148C 47.8333,148.333 47.1667,148.667 46.5,149C 47.6667,149.5 48.5,150.333 49,151.5C 49.805,149.099 50.6383,149.266 51.5,152C 65.272,154.301 78.9387,153.801 92.5,150.5C 96.4789,152.216 100.312,154.216 104,156.5C 104.572,161.596 102.405,163.429 97.5,162C 97.8333,162.333 98.1667,162.667 98.5,163C 93.698,165.103 88.698,166.269 83.5,166.5 Z"/></g>
<g><path style="opacity:0.02" fill="#f4bf55" d="M 291.5,151.5 C 291.833,151.5 292.167,151.5 292.5,151.5C 292.167,155.5 291.833,155.5 291.5,151.5 Z"/></g>
<g><path style="opacity:0.004" fill="#ff7a59" d="M 271.5,152.5 C 272.525,152.897 272.692,153.563 272,154.5C 271.536,153.906 271.369,153.239 271.5,152.5 Z"/></g>
<g><path style="opacity:0.008" fill="#fe807f" d="M 197.5,155.5 C 196.833,154.167 196.833,154.167 197.5,155.5 Z"/></g>
<g><path style="opacity:0.004" fill="#ffc1f7" d="M 254.5,155.5 C 253.475,155.103 253.308,154.437 254,153.5C 254.464,154.094 254.631,154.761 254.5,155.5 Z"/></g>
<g><path style="opacity:0.016" fill="#bab7d4" d="M 37.5,156.5 C 36.475,156.103 36.3083,155.437 37,154.5C 37.4643,155.094 37.631,155.761 37.5,156.5 Z"/></g>
<g><path style="opacity:0.016" fill="#80b8c6" d="M 37.5,156.5 C 37.8333,156.5 38.1667,156.5 38.5,156.5C 38.1667,159.167 37.8333,159.167 37.5,156.5 Z"/></g>
<g><path style="opacity:0.004" fill="#ffc1f7" d="M 290.5,156.5 C 291.525,156.897 291.692,157.563 291,158.5C 290.536,157.906 290.369,157.239 290.5,156.5 Z"/></g>
<g><path style="opacity:0.004" fill="#ffddac" d="M 254.5,155.5 C 254.833,155.5 255.167,155.5 255.5,155.5C 255.5,156.833 255.5,158.167 255.5,159.5C 254.566,158.432 254.232,157.099 254.5,155.5 Z"/></g>
<g><path style="opacity:0.02" fill="#ff9262" d="M 274.5,160.5 C 273.833,160.833 273.167,161.167 272.5,161.5C 272.238,160.022 272.571,158.689 273.5,157.5C 274.386,158.325 274.719,159.325 274.5,160.5 Z"/></g>
<g><path style="opacity:0.016" fill="#84a2c5" d="M 374.5,155.5 C 374.833,155.5 375.167,155.5 375.5,155.5C 375.58,158.781 374.913,161.781 373.5,164.5C 373.5,162.833 373.5,161.167 373.5,159.5C 374.434,158.432 374.768,157.099 374.5,155.5 Z"/></g>
<g><path style="opacity:0.02" fill="#d0c082" d="M 255.5,159.5 C 255.833,159.5 256.167,159.5 256.5,159.5C 256.5,160.167 256.5,160.833 256.5,161.5C 255.662,161.158 255.328,160.492 255.5,159.5 Z"/></g>
<g><path style="opacity:0.012" fill="#c7aa54" d="M 289.5,161.5 C 289.369,160.761 289.536,160.094 290,159.5C 290.692,160.437 290.525,161.103 289.5,161.5 Z"/></g>
<g><path style="opacity:0.031" fill="#589bab" d="M 414.5,160.5 C 413.833,160.5 413.5,160.833 413.5,161.5C 412.833,161.5 412.5,161.833 412.5,162.5C 411.475,162.103 411.308,161.437 412,160.5C 412.977,159.226 413.811,159.226 414.5,160.5 Z"/></g>
<g><path style="opacity:0.004" fill="#fefffe" d="M 34.5,162.5 C 35.1667,162.5 35.5,162.833 35.5,163.5C 35.1667,163.167 34.8333,162.833 34.5,162.5 Z"/></g>
<g><path style="opacity:0.012" fill="#a9aaa9" d="M 131.5,162.5 C 132.833,163.167 132.833,163.167 131.5,162.5 Z"/></g>
<g><path style="opacity:0.024" fill="#ffcb65" d="M 256.5,161.5 C 256.833,161.5 257.167,161.5 257.5,161.5C 257.5,162.5 257.5,163.5 257.5,164.5C 256.596,163.791 256.263,162.791 256.5,161.5 Z"/></g>
<g><path style="opacity:0.02" fill="#ffc156" d="M 288.5,161.5 C 288.833,161.5 289.167,161.5 289.5,161.5C 289.737,162.791 289.404,163.791 288.5,164.5C 288.5,163.5 288.5,162.5 288.5,161.5 Z"/></g>
<g><path style="opacity:0.008" fill="#7f807f" d="M 451.5,162.5 C 452.833,163.167 452.833,163.167 451.5,162.5 Z"/></g>
<g><path style="opacity:0.004" fill="#a2a2a2" d="M 133.5,164.5 C 133.897,163.475 134.563,163.308 135.5,164C 134.906,164.464 134.239,164.631 133.5,164.5 Z"/></g>
<g><path style="opacity:0.024" fill="#ff9335" d="M 300.5,171.5 C 299.357,168.024 299.19,164.358 300,160.5C 300.499,164.152 300.665,167.818 300.5,171.5 Z"/></g>
<g><path style="opacity:0.004" fill="#eae9ff" d="M 35.5,163.5 C 36.525,163.897 36.6917,164.563 36,165.5C 35.5357,164.906 35.369,164.239 35.5,163.5 Z"/></g>
<g><path style="opacity:0.031" fill="#71a2b6" d="M 410.5,164.5 C 409.833,164.5 409.5,164.833 409.5,165.5C 408.833,165.5 408.5,165.833 408.5,166.5C 407.833,166.5 407.5,166.833 407.5,167.5C 406.493,165.732 407.159,164.399 409.5,163.5C 410.107,163.624 410.44,163.957 410.5,164.5 Z"/></g>
<g><path style="opacity:0.012" fill="#ff9c4d" d="M 257.5,164.5 C 257.833,164.5 258.167,164.5 258.5,164.5C 258.167,167.167 257.833,167.167 257.5,164.5 Z"/></g>
<g><path style="opacity:0.02" fill="#f3b87e" d="M 287.5,164.5 C 287.833,164.5 288.167,164.5 288.5,164.5C 288.672,165.492 288.338,166.158 287.5,166.5C 287.5,165.833 287.5,165.167 287.5,164.5 Z"/></g>
<g><path style="opacity:0.016" fill="#40807f" d="M 433.5,165.5 C 433.833,165.5 434.167,165.5 434.5,165.5C 434.315,166.17 433.981,166.17 433.5,165.5 Z"/></g>
<g><path style="opacity:0.024" fill="#829cae" d="M 135.5,166.5 C 135.56,165.957 135.893,165.624 136.5,165.5C 137.788,167.299 137.788,168.965 136.5,170.5C 136.768,168.901 136.434,167.568 135.5,166.5 Z"/></g>
<g><path style="opacity:0.008" fill="#ff7f6b" d="M 286.5,166.5 C 286.833,166.5 287.167,166.5 287.5,166.5C 287.167,169.167 286.833,169.167 286.5,166.5 Z"/></g>
<g><path style="opacity:0.012" fill="#93aaaf" d="M 372.5,164.5 C 372.833,164.5 373.167,164.5 373.5,164.5C 373.768,166.099 373.434,167.432 372.5,168.5C 372.5,167.167 372.5,165.833 372.5,164.5 Z"/></g>
<g><path style="opacity:0.02" fill="#adc5d5" d="M 405.5,169.5 C 404.833,169.5 404.5,169.833 404.5,170.5C 403.957,170.44 403.624,170.107 403.5,169.5C 404.257,168.227 404.923,168.227 405.5,169.5 Z"/></g>
<g><path style="opacity:0.004" fill="#70bebd" d="M 371.5,168.5 C 371.833,168.5 372.167,168.5 372.5,168.5C 372.167,172.5 371.833,172.5 371.5,168.5 Z"/></g>
<g><path style="opacity:0.008" fill="#8080ff" d="M 426.5,169.5 C 427.833,170.167 427.833,170.167 426.5,169.5 Z"/></g>
<g><path style="opacity:0.031" fill="#abc9d4" d="M 437.5,169.5 C 437.489,172.001 436.822,172.168 435.5,170C 436.094,169.536 436.761,169.369 437.5,169.5 Z"/></g>
<g><path style="opacity:0.008" fill="#80fffe" d="M 2.5,170.5 C 3.83333,171.167 3.83333,171.167 2.5,170.5 Z"/></g>
<g><path style="opacity:0.995" fill="#658da8" d="M 34.5,162.5 C 33.1667,162.833 33.1667,163.167 34.5,163.5C 32.8439,165.06 30.8439,166.06 28.5,166.5C 27.5041,166.586 26.6708,166.252 26,165.5C 25.2736,168.288 23.4402,169.788 20.5,170C 20.1667,170.333 19.8333,170.667 19.5,171C 34.9733,174.347 50.64,175.847 66.5,175.5C 83.5708,175.383 100.571,174.216 117.5,172C 121.394,171.036 125.227,169.869 129,168.5C 129.772,168.645 130.439,168.978 131,169.5C 131.05,167.256 131.883,165.589 133.5,164.5C 133.833,165.5 134.5,166.167 135.5,166.5C 135.5,167.833 135.5,169.167 135.5,170.5C 134.833,170.5 134.5,170.833 134.5,171.5C 133.167,171.833 133.167,172.167 134.5,172.5C 133.71,173.794 132.71,174.961 131.5,176C 126.843,177.66 122.177,179.327 117.5,181C 114.503,181.305 111.503,181.138 108.5,180.5C 103.226,180.687 103.226,181.187 108.5,182C 98.3031,184.4 87.9698,185.566 77.5,185.5C 77.5,185.167 77.5,184.833 77.5,184.5C 78.8333,184.167 78.8333,183.833 77.5,183.5C 68.8333,182.167 60.1667,182.167 51.5,183.5C 48.8333,183.5 46.1667,183.5 43.5,183.5C 42.4107,181.883 40.744,181.05 38.5,181C 35.408,180.264 32.408,180.431 29.5,181.5C 28.1667,181.833 28.1667,182.167 29.5,182.5C 29.5,182.833 29.5,183.167 29.5,183.5C 25.1467,183.235 20.8134,182.735 16.5,182C 18.5,181.667 20.5,181.333 22.5,181C 20.236,180.764 18.0693,180.264 16,179.5C 12.6157,181.886 9.11569,182.053 5.5,180C 5.43405,178.261 4.76739,176.428 3.5,174.5C 3.89884,172.803 4.39884,171.137 5,169.5C 6.36387,170.258 7.53054,169.758 8.5,168C 8.16667,167.667 7.83333,167.333 7.5,167C 9.16667,166 10.8333,165 12.5,164C 14.3668,163.289 15.8668,163.789 17,165.5C 17.3176,163.939 18.1509,162.772 19.5,162C 24.0947,160.607 28.7613,160.274 33.5,161C 34.056,161.383 34.3893,161.883 34.5,162.5 Z"/></g>
<g><path style="opacity:0.008" fill="#7f807f" d="M 76.5,166.5 C 78.8333,166.5 81.1667,166.5 83.5,166.5C 81.1667,167.833 78.8333,167.833 76.5,166.5 Z"/></g>
<g><path style="opacity:0.008" fill="#919191" d="M 28.5,166.5 C 30.5273,166.338 32.5273,166.505 34.5,167C 32.2884,167.789 30.2884,167.622 28.5,166.5 Z"/></g>
<g><path style="opacity:0.012" fill="#91aaa9" d="M 129.5,164.5 C 130.525,164.897 130.692,165.563 130,166.5C 129.536,165.906 129.369,165.239 129.5,164.5 Z"/></g>
<g><path style="opacity:0.02" fill="#669998" d="M 135.5,170.5 C 135.833,170.5 136.167,170.5 136.5,170.5C 136.315,171.17 135.981,171.17 135.5,170.5 Z"/></g>
<g><path style="opacity:0.004" fill="#ffcfbe" d="M 259.5,169.5 C 259.5,170.5 259.5,171.5 259.5,172.5C 258.167,171.5 258.167,170.5 259.5,169.5 Z"/></g>
<g><path style="opacity:0.004" fill="#feff00" d="M 285.5,170.5 C 286.833,171.167 286.833,171.833 285.5,172.5C 285.5,171.833 285.5,171.167 285.5,170.5 Z"/></g>
<g><path style="opacity:0.031" fill="#9ebfbe" d="M 425.5,170.5 C 425.833,170.5 426.167,170.5 426.5,170.5C 426.315,171.17 425.981,171.17 425.5,170.5 Z"/></g>
<g><path style="opacity:0.008" fill="#80fffe" d="M 134.5,171.5 C 134.833,171.5 135.167,171.5 135.5,171.5C 135.315,172.17 134.981,172.17 134.5,171.5 Z"/></g>
<g><path style="opacity:0.016" fill="#bebfbe" d="M 424.5,171.5 C 424.833,171.5 425.167,171.5 425.5,171.5C 425.315,172.17 424.981,172.17 424.5,171.5 Z"/></g>
<g><path style="opacity:0.004" fill="#00fffe" d="M 141.5,173.5 C 141.897,172.475 142.563,172.308 143.5,173C 142.906,173.464 142.239,173.631 141.5,173.5 Z"/></g>
<g><path style="opacity:0.008" fill="#ec9652" d="M 300.5,171.5 C 300.833,171.5 301.167,171.5 301.5,171.5C 301.167,175.5 300.833,175.5 300.5,171.5 Z"/></g>
<g><path style="opacity:0.004" fill="#000000" d="M 371.5,172.5 C 372.833,173.167 372.833,173.167 371.5,172.5 Z"/></g>
<g><path style="opacity:0.012" fill="#a9aaa9" d="M 423.5,172.5 C 423.833,172.5 424.167,172.5 424.5,172.5C 424.315,173.17 423.981,173.17 423.5,172.5 Z"/></g>
<g><path style="opacity:0.016" fill="#7f80bf" d="M 439.5,172.5 C 438.833,173.167 438.833,173.167 439.5,172.5 Z"/></g>
<g><path style="opacity:0.008" fill="#a59ede" d="M 1.5,172.5 C 2.57346,173.251 2.74012,174.251 2,175.5C 1.51722,174.552 1.35055,173.552 1.5,172.5 Z"/></g>
<g><path style="opacity:0.016" fill="#ffaa6a" d="M 259.5,172.5 C 259.833,172.5 260.167,172.5 260.5,172.5C 260.5,173.167 260.5,173.833 260.5,174.5C 259.662,174.158 259.328,173.492 259.5,172.5 Z"/></g>
<g><path style="opacity:0.012" fill="#ecd377" d="M 284.5,172.5 C 284.833,172.5 285.167,172.5 285.5,172.5C 285.672,173.492 285.338,174.158 284.5,174.5C 284.5,173.833 284.5,173.167 284.5,172.5 Z"/></g>
<g><path style="opacity:0.024" fill="#7faaa9" d="M 422.5,173.5 C 422.833,173.5 423.167,173.5 423.5,173.5C 423.315,174.17 422.981,174.17 422.5,173.5 Z"/></g>
<g><path style="opacity:0.016" fill="#75a9a9" d="M 353.5,177.5 C 353.167,177.5 352.833,177.5 352.5,177.5C 352.833,172.167 353.167,172.167 353.5,177.5 Z"/></g>
<g><path style="opacity:0.027" fill="#91b6b5" d="M 421.5,174.5 C 421.833,174.5 422.167,174.5 422.5,174.5C 422.315,175.17 421.981,175.17 421.5,174.5 Z"/></g>
<g><path style="opacity:0.024" fill="#7d9cb2" d="M 144.5,177.5 C 144.351,176.448 144.517,175.448 145,174.5C 145.74,175.749 145.573,176.749 144.5,177.5 Z"/></g>
<g><path style="opacity:0.016" fill="#ffb25f" d="M 196.5,174.5 C 196.631,175.239 196.464,175.906 196,176.5C 195.308,175.563 195.475,174.897 196.5,174.5 Z"/></g>
<g><path style="opacity:0.024" fill="#f2a555" d="M 260.5,174.5 C 260.833,174.5 261.167,174.5 261.5,174.5C 261.5,175.5 261.5,176.5 261.5,177.5C 260.596,176.791 260.263,175.791 260.5,174.5 Z"/></g>
<g><path style="opacity:0.02" fill="#e08149" d="M 283.5,174.5 C 283.833,174.5 284.167,174.5 284.5,174.5C 284.672,175.492 284.338,176.158 283.5,176.5C 283.5,175.833 283.5,175.167 283.5,174.5 Z"/></g>
<g><path style="opacity:0.027" fill="#6db6b5" d="M 420.5,175.5 C 420.833,175.5 421.167,175.5 421.5,175.5C 421.315,176.17 420.981,176.17 420.5,175.5 Z"/></g>
<g><path style="opacity:0.008" fill="#87d3d2" d="M 440.5,174.5 C 440.631,175.239 440.464,175.906 440,176.5C 439.308,175.563 439.475,174.897 440.5,174.5 Z"/></g>
<g><path style="opacity:0.012" fill="#a9aaa9" d="M 460.5,175.5 C 461.833,176.167 461.833,176.167 460.5,175.5 Z"/></g>
<g><path style="opacity:0.008" fill="#9e98cb" d="M 370.5,175.5 C 371.833,176.833 371.833,178.167 370.5,179.5C 370.5,178.167 370.5,176.833 370.5,175.5 Z"/></g>
<g><path style="opacity:0.016" fill="#40807f" d="M 419.5,176.5 C 419.833,176.5 420.167,176.5 420.5,176.5C 420.315,177.17 419.981,177.17 419.5,176.5 Z"/></g>
<g><path style="opacity:0.004" fill="#00fffe" d="M 143.5,177.5 C 143.833,177.5 144.167,177.5 144.5,177.5C 144.315,178.17 143.981,178.17 143.5,177.5 Z"/></g>
<g><path style="opacity:0.008" fill="#ff866e" d="M 282.5,176.5 C 282.833,176.5 283.167,176.5 283.5,176.5C 283.672,177.492 283.338,178.158 282.5,178.5C 282.5,177.833 282.5,177.167 282.5,176.5 Z"/></g>
<g><path style="opacity:0.016" fill="#7f80bf" d="M 418.5,177.5 C 418.833,177.5 419.167,177.5 419.5,177.5C 419.315,178.17 418.981,178.17 418.5,177.5 Z"/></g>
<g><path style="opacity:0.004" fill="#0000ff" d="M 461.5,177.5 C 462.833,178.167 462.833,178.167 461.5,177.5 Z"/></g>
<g><path style="opacity:0.02" fill="#f7b065" d="M 261.5,177.5 C 261.833,177.5 262.167,177.5 262.5,177.5C 262.167,181.5 261.833,181.5 261.5,177.5 Z"/></g>
<g><path style="opacity:0.012" fill="#feaa54" d="M 281.5,178.5 C 281.833,178.5 282.167,178.5 282.5,178.5C 282.315,179.17 281.981,179.17 281.5,178.5 Z"/></g>
<g><path style="opacity:0.024" fill="#9bb9d9" d="M 352.5,177.5 C 352.649,178.552 352.483,179.552 352,180.5C 351.26,179.251 351.427,178.251 352.5,177.5 Z"/></g>
<g><path style="opacity:0.004" fill="#00fffe" d="M 396.5,179.5 C 395.833,178.167 395.833,178.167 396.5,179.5 Z"/></g>
<g><path style="opacity:0.027" fill="#6d92b6" d="M 417.5,178.5 C 417.833,178.5 418.167,178.5 418.5,178.5C 418.315,179.17 417.981,179.17 417.5,178.5 Z"/></g>
<g><path style="opacity:0.008" fill="#7f807f" d="M 142.5,179.5 C 143.833,180.167 143.833,180.167 142.5,179.5 Z"/></g>
<g><path style="opacity:0.004" fill="#feff00" d="M 334.5,179.5 C 335.833,180.167 335.833,180.167 334.5,179.5 Z"/></g>
<g><path style="opacity:0.012" fill="#5555aa" d="M 369.5,179.5 C 369.833,179.5 370.167,179.5 370.5,179.5C 370.315,180.17 369.981,180.17 369.5,179.5 Z"/></g>
<g><path style="opacity:0.02" fill="#98cccb" d="M 395.5,179.5 C 394.833,180.167 394.833,180.167 395.5,179.5 Z"/></g>
<g><path style="opacity:0.031" fill="#609f9e" d="M 416.5,179.5 C 416.833,179.5 417.167,179.5 417.5,179.5C 417.315,180.17 416.981,180.17 416.5,179.5 Z"/></g>
<g><path style="opacity:0.016" fill="#80bfbe" d="M 462.5,179.5 C 463.833,180.167 463.833,180.167 462.5,179.5 Z"/></g>
<g><path style="opacity:0.02" fill="#98cccb" d="M 141.5,180.5 C 141.833,180.5 142.167,180.5 142.5,180.5C 142.315,181.17 141.981,181.17 141.5,180.5 Z"/></g>
<g><path style="opacity:0.008" fill="#7f807f" d="M 415.5,180.5 C 415.833,180.5 416.167,180.5 416.5,180.5C 416.315,181.17 415.981,181.17 415.5,180.5 Z"/></g>
<g><path style="opacity:0.016" fill="#80bfbe" d="M 140.5,181.5 C 140.833,181.5 141.167,181.5 141.5,181.5C 141.315,182.17 140.981,182.17 140.5,181.5 Z"/></g>
<g><path style="opacity:0.529" fill="#f8b369" d="M 221.5,180.5 C 222.167,180.5 222.5,180.833 222.5,181.5C 221.319,183.067 219.653,183.901 217.5,184C 214.304,184.805 211.304,184.638 208.5,183.5C 219.167,183.167 219.167,182.833 208.5,182.5C 211.287,181.523 214.287,181.19 217.5,181.5C 217.833,182.833 218.167,182.833 218.5,181.5C 218.833,181.5 219.167,181.5 219.5,181.5C 219.842,180.662 220.508,180.328 221.5,180.5 Z"/></g>
<g><path style="opacity:0.008" fill="#ff8b36" d="M 230.5,182.5 C 233.64,181.359 236.973,181.192 240.5,182C 237.183,182.498 233.85,182.665 230.5,182.5 Z"/></g>
<g><path style="opacity:0.008" fill="#ff871e" d="M 263.5,182.5 C 268.65,181.349 273.984,181.183 279.5,182C 274.177,182.499 268.844,182.666 263.5,182.5 Z"/></g>
<g><path style="opacity:0.008" fill="#fe8000" d="M 337.5,181.5 C 340.518,181.335 343.518,181.502 346.5,182C 343.304,182.805 340.304,182.638 337.5,181.5 Z"/></g>
<g><path style="opacity:0.008" fill="#7e7e7e" d="M 353.5,182.5 C 358.316,181.35 363.316,181.184 368.5,182C 363.511,182.499 358.511,182.666 353.5,182.5 Z"/></g>
<g><path style="opacity:0.008" fill="#7f7f7f" d="M 415.5,181.5 C 409.347,182.653 403.014,182.82 396.5,182C 402.825,181.5 409.158,181.334 415.5,181.5 Z"/></g>
<g><path style="opacity:0.008" fill="#7f807f" d="M 445.5,181.5 C 450.844,181.334 456.177,181.501 461.5,182C 455.984,182.817 450.65,182.651 445.5,181.5 Z"/></g>
<g><path style="opacity:0.02" fill="#ff8e47" d="M 187.5,181.5 C 187.833,181.5 188.167,181.5 188.5,181.5C 188.768,183.099 188.434,184.432 187.5,185.5C 187.5,184.167 187.5,182.833 187.5,181.5 Z"/></g>
<g><path style="opacity:0.024" fill="#f9a95d" d="M 334.5,176.5 C 334.5,176.833 334.5,177.167 334.5,177.5C 333.167,177.833 333.167,178.167 334.5,178.5C 334.5,178.833 334.5,179.167 334.5,179.5C 333.279,180.028 332.113,180.695 331,181.5C 330.667,180.833 330.333,180.167 330,179.5C 329.682,181.061 328.849,182.228 327.5,183C 321.818,184.936 316.152,184.936 310.5,183C 309.944,182.617 309.611,182.117 309.5,181.5C 310.167,181.5 310.5,181.167 310.5,180.5C 311.492,180.328 312.158,180.662 312.5,181.5C 312.833,182.833 313.167,182.833 313.5,181.5C 316.833,181.5 320.167,181.5 323.5,181.5C 323.833,182.833 324.167,182.833 324.5,181.5C 324.833,181.5 325.167,181.5 325.5,181.5C 326.68,179.087 328.68,178.087 331.5,178.5C 331.833,179.833 332.167,179.833 332.5,178.5C 332.5,177.167 333.167,176.5 334.5,176.5 Z"/></g>
<g><path style="opacity:0.969" fill="#6991ac" d="M 143.5,177.5 C 142.662,177.842 142.328,178.508 142.5,179.5C 141.833,179.5 141.5,179.833 141.5,180.5C 140.833,180.5 140.5,180.833 140.5,181.5C 139.167,181.833 139.167,182.167 140.5,182.5C 139.086,184.054 137.419,185.388 135.5,186.5C 134.808,185.975 134.308,185.308 134,184.5C 133.751,185.624 133.251,186.624 132.5,187.5C 129.32,189.095 125.987,190.095 122.5,190.5C 119.998,189.686 117.498,189.353 115,189.5C 113.266,190.249 111.433,190.749 109.5,191C 111.167,191.333 112.833,191.667 114.5,192C 109.882,192.994 105.215,193.494 100.5,193.5C 100.5,193.167 100.5,192.833 100.5,192.5C 101.833,192.167 101.833,191.833 100.5,191.5C 99.209,191.263 98.209,191.596 97.5,192.5C 94.5,192.5 91.5,192.5 88.5,192.5C 88.1667,192.5 87.8333,192.5 87.5,192.5C 87.1667,192.5 86.8333,192.5 86.5,192.5C 78.5,191.167 70.5,191.167 62.5,192.5C 62.1667,192.5 61.8333,192.5 61.5,192.5C 61.1667,192.5 60.8333,192.5 60.5,192.5C 58.8333,192.5 57.1667,192.5 55.5,192.5C 54.0512,190.836 52.0512,190.002 49.5,190C 52.146,189.503 54.8127,189.336 57.5,189.5C 68.2462,189.123 78.9129,188.623 89.5,188C 85.3123,187.824 81.3123,187.324 77.5,186.5C 89.9615,186.401 102.295,185.067 114.5,182.5C 116.593,182.486 118.426,183.152 120,184.5C 121.487,183.747 121.654,182.914 120.5,182C 124.084,181.063 127.584,179.896 131,178.5C 132.788,179.3 134.455,179.634 136,179.5C 136.336,177.926 137.169,176.592 138.5,175.5C 139.962,176.471 141.295,176.138 142.5,174.5C 143.386,175.325 143.719,176.325 143.5,177.5 Z"/></g>
<g><path style="opacity:0.004" fill="#ffe333" d="M 186.5,185.5 C 186.833,185.5 187.167,185.5 187.5,185.5C 187.167,188.167 186.833,188.167 186.5,185.5 Z"/></g>
<g><path style="opacity:0.008" fill="#8d8d8d" d="M 27.5,186.5 C 28.525,186.897 28.6917,187.563 28,188.5C 27.5357,187.906 27.369,187.239 27.5,186.5 Z"/></g>
<g><path style="opacity:1" fill="#87a6b8" d="M 43.5,183.5 C 41.2267,184.918 43.8933,184.918 51.5,183.5C 60.1667,182.167 68.8333,182.167 77.5,183.5C 77.5,183.833 77.5,184.167 77.5,184.5C 77.5,184.833 77.5,185.167 77.5,185.5C 77.5,185.833 77.5,186.167 77.5,186.5C 66.8063,186.401 56.1396,186.901 45.5,188C 49.6877,188.176 53.6877,188.676 57.5,189.5C 54.8127,189.336 52.146,189.503 49.5,190C 52.0512,190.002 54.0512,190.836 55.5,192.5C 51.2871,193.614 52.9537,193.614 60.5,192.5C 60.8333,192.5 61.1667,192.5 61.5,192.5C 61.8333,193.833 62.1667,193.833 62.5,192.5C 70.5,191.167 78.5,191.167 86.5,192.5C 86.8333,193.833 87.1667,193.833 87.5,192.5C 87.8333,192.5 88.1667,192.5 88.5,192.5C 92.7659,193.786 95.7659,193.786 97.5,192.5C 98.209,191.596 99.209,191.263 100.5,191.5C 100.5,191.833 100.5,192.167 100.5,192.5C 100.5,192.833 100.5,193.167 100.5,193.5C 79.5731,196.367 58.5731,195.867 37.5,192C 38.5,191.667 39.5,191.333 40.5,191C 37.8738,190.005 35.2071,189.672 32.5,190C 34.5951,190.556 34.7618,191.056 33,191.5C 31.7753,191.138 30.6086,190.638 29.5,190C 31.9913,189.374 31.9913,188.541 29.5,187.5C 31.0777,186.702 32.7444,186.202 34.5,186C 32.256,185.95 30.5893,185.117 29.5,183.5C 29.5,183.167 29.5,182.833 29.5,182.5C 29.5,182.167 29.5,181.833 29.5,181.5C 32.408,180.431 35.408,180.264 38.5,181C 40.744,181.05 42.4107,181.883 43.5,183.5 Z"/></g>
<g><path style="opacity:0.008" fill="#ff6559" d="M 185.5,188.5 C 186.833,189.167 186.833,189.833 185.5,190.5C 185.5,189.833 185.5,189.167 185.5,188.5 Z"/></g>
<g><path style="opacity:0.004" fill="#cdfffe" d="M 122.5,190.5 C 121.399,191.598 120.066,191.765 118.5,191C 119.793,190.51 121.127,190.343 122.5,190.5 Z"/></g>
<g><path style="opacity:0.012" fill="#feaa54" d="M 184.5,190.5 C 184.833,190.5 185.167,190.5 185.5,190.5C 185.315,191.17 184.981,191.17 184.5,190.5 Z"/></g>
<g><path style="opacity:0.016" fill="#fe803f" d="M 183.5,191.5 C 183.833,191.5 184.167,191.5 184.5,191.5C 184.315,192.17 183.981,192.17 183.5,191.5 Z"/></g>
<g><path style="opacity:0.035" fill="#e2aa54" d="M 182.5,192.5 C 182.833,192.5 183.167,192.5 183.5,192.5C 183.315,193.17 182.981,193.17 182.5,192.5 Z"/></g>
<g><path style="opacity:0.008" fill="#ffe2e1" d="M 159.5,193.5 C 160.525,193.897 160.692,194.563 160,195.5C 159.536,194.906 159.369,194.239 159.5,193.5 Z"/></g>
<g><path style="opacity:0.996" fill="#f28d3a" d="M 170.5,187.5 C 168.657,190.189 166.99,193.022 165.5,196C 166,196.5 166.5,197 167,197.5C 169.903,196.931 171.903,195.265 173,192.5C 174.358,194.646 174.858,196.646 174.5,198.5C 174.833,199.833 175.167,199.833 175.5,198.5C 175.69,194.643 177.69,192.976 181.5,193.5C 181.833,193.5 182.167,193.5 182.5,193.5C 182.082,194.222 181.416,194.722 180.5,195C 181.712,196.107 181.379,196.607 179.5,196.5C 179.167,195.167 178.833,195.167 178.5,196.5C 177.833,196.5 177.5,196.833 177.5,197.5C 176.167,197.833 176.167,198.167 177.5,198.5C 176.713,200.104 175.38,200.771 173.5,200.5C 173.167,199.167 172.833,199.167 172.5,200.5C 171.167,200.833 171.167,201.167 172.5,201.5C 172.158,202.338 171.492,202.672 170.5,202.5C 168.706,201.767 167.039,200.767 165.5,199.5C 164.542,198.038 163.376,196.705 162,195.5C 161.333,194.5 161.333,193.5 162,192.5C 163.073,193.28 164.24,193.113 165.5,192C 164.833,191.667 164.167,191.333 163.5,191C 164.5,190 165.5,189 166.5,188C 167.959,188.355 169.293,188.189 170.5,187.5 Z"/></g>
<g><path style="opacity:0.031" fill="#fe9f5f" d="M 178.5,196.5 C 178.833,196.5 179.167,196.5 179.5,196.5C 179.315,197.17 178.981,197.17 178.5,196.5 Z"/></g>
<g><path style="opacity:0.02" fill="#cb6632" d="M 177.5,197.5 C 177.833,197.5 178.167,197.5 178.5,197.5C 178.315,198.17 177.981,198.17 177.5,197.5 Z"/></g>
<g><path style="opacity:0.008" fill="#ffdd77" d="M 165.5,199.5 C 165.631,200.239 165.464,200.906 165,201.5C 164.308,200.563 164.475,199.897 165.5,199.5 Z"/></g>
<g><path style="opacity:0.008" fill="#fe807f" d="M 172.5,200.5 C 172.833,200.5 173.167,200.5 173.5,200.5C 173.315,201.17 172.981,201.17 172.5,200.5 Z"/></g>
<g><path style="opacity:0.027" fill="#ffc078" d="M 166.5,203.5 C 167.568,202.566 168.901,202.232 170.5,202.5C 170.5,202.833 170.5,203.167 170.5,203.5C 169.167,203.5 167.833,203.5 166.5,203.5 Z"/></g>
</svg>
