<?xml version="1.0" encoding="UTF-8"?>
<!DOCTYPE svg PUBLIC "-//W3C//DTD SVG 1.1//EN" "http://www.w3.org/Graphics/SVG/1.1/DTD/svg11.dtd">
<svg xmlns="http://www.w3.org/2000/svg" version="1.1" width="512px" height="512px" style="shape-rendering:geometricPrecision; text-rendering:geometricPrecision; image-rendering:optimizeQuality; fill-rule:evenodd; clip-rule:evenodd" xmlns:xlink="http://www.w3.org/1999/xlink">
<g><path style="opacity:0.991" fill="#373737" d="M 151.5,-0.5 C 175.167,-0.5 198.833,-0.5 222.5,-0.5C 255.21,1.43701 287.543,6.60368 319.5,15C 335.505,19.3372 350.172,26.3372 363.5,36C 369.386,40.8873 373.22,47.054 375,54.5C 375.5,127.166 375.667,199.833 375.5,272.5C 388.171,272.333 400.838,272.5 413.5,273C 416.204,274.86 417.871,277.36 418.5,280.5C 417.4,282.277 416.566,284.277 416,286.5C 414.829,287.893 413.329,288.727 411.5,289C 338.5,289.333 265.5,289.667 192.5,290C 190.43,290.948 188.93,292.448 188,294.5C 187.007,360.249 187.341,425.915 189,491.5C 190.255,492.211 191.421,493.044 192.5,494C 291.167,494.667 389.833,494.667 488.5,494C 491,492.833 492.833,491 494,488.5C 494.667,423.833 494.667,359.167 494,294.5C 492.457,292.622 490.624,291.122 488.5,290C 472.167,289.667 455.833,289.333 439.5,289C 436.404,286.971 434.738,284.138 434.5,280.5C 434.544,276.91 436.211,274.41 439.5,273C 457.5,272.333 475.5,272.333 493.5,273C 502.018,276.353 508.018,282.186 511.5,290.5C 511.5,358.167 511.5,425.833 511.5,493.5C 507.833,501.833 501.833,507.833 493.5,511.5C 391.833,511.5 290.167,511.5 188.5,511.5C 179.943,508.778 174.109,503.111 171,494.5C 169.558,477.556 169.058,460.556 169.5,443.5C 130.146,442.748 91.4798,437.248 53.5,427C 35.6118,422.059 19.7785,413.559 6,401.5C 3.28937,398.067 1.1227,394.4 -0.5,390.5C -0.5,277.833 -0.5,165.167 -0.5,52.5C 4.50979,41.9856 12.1765,33.8189 22.5,28C 43.7852,17.7602 66.1186,10.7602 89.5,7C 110.212,3.63188 130.879,1.13188 151.5,-0.5 Z"/></g>
<g><path style="opacity:1" fill="#5562ae" d="M 157.5,16.5 C 205.289,15.028 252.622,18.8613 299.5,28C 316.242,32.025 332.242,38.025 347.5,46C 361.031,55.3441 360.697,64.3441 346.5,73C 325.884,83.2053 304.217,90.2053 281.5,94C 224.306,102.737 166.972,103.737 109.5,97C 86.1678,94.0002 63.5011,88.3335 41.5,80C 32.9243,76.743 25.4243,71.9097 19,65.5C 15.4454,60.2661 15.9454,55.4328 20.5,51C 27.1738,45.6588 34.5072,41.3255 42.5,38C 65.1714,29.6652 88.5048,23.9985 112.5,21C 127.628,19.3407 142.628,17.8407 157.5,16.5 Z"/></g>
<g><path style="opacity:1" fill="#393e57" d="M 356.5,86.5 C 356.56,85.9569 356.893,85.6236 357.5,85.5C 358.83,114.331 358.83,142.997 357.5,171.5C 357.831,142.995 357.498,114.662 356.5,86.5 Z"/></g>
<g><path style="opacity:1" fill="#3c4a88" d="M 356.5,86.5 C 357.498,114.662 357.831,142.995 357.5,171.5C 355.124,176.715 351.457,180.882 346.5,184C 330.546,191.985 313.88,197.985 296.5,202C 232.463,213.994 168.13,215.661 103.5,207C 77.6126,203.696 52.9459,196.362 29.5,185C 24,182.167 19.8333,178 17,172.5C 16.1668,143.828 16.3335,115.161 17.5,86.5C 39.6919,98.802 63.3586,106.969 88.5,111C 133.553,118.169 178.887,120.502 224.5,118C 256.446,116.541 287.779,111.541 318.5,103C 332.049,99.3247 344.715,93.8247 356.5,86.5 Z"/></g>
<g><path style="opacity:1" fill="#5562ae" d="M 356.5,197.5 C 357.498,222.328 357.831,247.328 357.5,272.5C 301.499,272.333 245.499,272.5 189.5,273C 181.297,275.514 175.464,280.681 172,288.5C 170.588,300.104 170.088,311.771 170.5,323.5C 129.258,323.041 88.9248,316.874 49.5,305C 40.2756,301.721 31.6089,297.388 23.5,292C 20.5665,289.736 18.3999,286.902 17,283.5C 16.3333,254.5 16.3333,225.5 17,196.5C 31.0126,205.587 46.1792,212.087 62.5,216C 123.187,229.735 184.52,233.401 246.5,227C 281.438,224.214 315.105,216.214 347.5,203C 350.528,201.156 353.528,199.322 356.5,197.5 Z"/></g>
<g><path style="opacity:1" fill="#424866" d="M 356.5,197.5 C 356.56,196.957 356.893,196.624 357.5,196.5C 358.829,221.997 358.829,247.33 357.5,272.5C 357.831,247.328 357.498,222.328 356.5,197.5 Z"/></g>
<g><path style="opacity:1" fill="#a9c6c7" d="M 418.5,280.5 C 423.833,280.5 429.167,280.5 434.5,280.5C 434.738,284.138 436.404,286.971 439.5,289C 455.833,289.333 472.167,289.667 488.5,290C 490.624,291.122 492.457,292.622 494,294.5C 494.667,359.167 494.667,423.833 494,488.5C 492.833,491 491,492.833 488.5,494C 389.833,494.667 291.167,494.667 192.5,494C 191.421,493.044 190.255,492.211 189,491.5C 187.341,425.915 187.007,360.249 188,294.5C 188.93,292.448 190.43,290.948 192.5,290C 265.5,289.667 338.5,289.333 411.5,289C 413.329,288.727 414.829,287.893 416,286.5C 416.566,284.277 417.4,282.277 418.5,280.5 Z"/></g>
<g><path style="opacity:1" fill="#3c4a88" d="M 16.5,308.5 C 36.2841,319.262 57.2841,326.762 79.5,331C 109.518,337.196 139.851,340.363 170.5,340.5C 170.5,368.833 170.5,397.167 170.5,425.5C 128.823,425.713 88.1566,419.547 48.5,407C 36.795,403.28 26.6283,397.113 18,388.5C 17.6667,387.5 17.3333,386.5 17,385.5C 16.5,359.835 16.3334,334.169 16.5,308.5 Z"/></g>
<g><path style="opacity:1" fill="#383838" d="M 247.5,332.5 C 268.22,330.432 282.053,339.098 289,358.5C 289.667,362.167 289.667,365.833 289,369.5C 287.471,372.934 284.804,374.6 281,374.5C 278.186,374.592 275.853,373.592 274,371.5C 272.206,352.196 262.373,346.029 244.5,353C 236.956,361.259 236.622,369.759 243.5,378.5C 245.493,380.499 247.827,381.999 250.5,383C 277.273,384.101 290.107,397.935 289,424.5C 282.613,444.786 268.78,453.62 247.5,451C 228.652,444.843 220.486,432.009 223,412.5C 233.675,406.847 239.008,410.18 239,422.5C 245.079,434.943 254.246,437.777 266.5,431C 275.034,421.005 274.367,411.672 264.5,403C 257.976,401.088 251.309,399.754 244.5,399C 227.006,391.187 219.506,377.687 222,358.5C 226.017,345.318 234.517,336.651 247.5,332.5 Z"/></g>
<g><path style="opacity:1" fill="#383838" d="M 332.5,332.5 C 352.994,329.99 366.827,338.323 374,357.5C 374.667,379.833 374.667,402.167 374,424.5C 373.33,428.011 372.163,431.344 370.5,434.5C 374.629,438.569 375.463,443.236 373,448.5C 370.005,451.265 366.505,452.098 362.5,451C 361.223,449.214 359.556,448.048 357.5,447.5C 334.601,456.463 318.101,449.796 308,427.5C 306.9,415.54 306.4,403.54 306.5,391.5C 306.389,379.787 306.889,368.121 308,356.5C 312.748,344.918 320.914,336.918 332.5,332.5 Z"/></g>
<g><path style="opacity:1" fill="#393939" d="M 397.5,332.5 C 402.814,331.74 406.647,333.74 409,338.5C 409.5,370.498 409.667,402.498 409.5,434.5C 424.17,434.333 438.837,434.5 453.5,435C 461.945,439.246 462.612,444.579 455.5,451C 435.833,451.667 416.167,451.667 396.5,451C 395.667,450.167 394.833,449.333 394,448.5C 392.346,411.251 392.013,373.918 393,336.5C 394.397,334.93 395.897,333.596 397.5,332.5 Z"/></g>
<g><path style="opacity:1" fill="#a8c5c6" d="M 335.5,349.5 C 345.542,347.783 352.708,351.449 357,360.5C 357.667,380.833 357.667,401.167 357,421.5C 348.959,414.996 343.793,416.662 341.5,426.5C 341.154,429.43 342.154,431.763 344.5,433.5C 334.202,435.597 327.369,431.597 324,421.5C 323.333,401.833 323.333,382.167 324,362.5C 326.273,356.73 330.106,352.397 335.5,349.5 Z"/></g>
</svg>
