<?xml version="1.0" encoding="UTF-8"?>
<!DOCTYPE svg PUBLIC "-//W3C//DTD SVG 1.1//EN" "http://www.w3.org/Graphics/SVG/1.1/DTD/svg11.dtd">
<svg xmlns="http://www.w3.org/2000/svg" version="1.1" width="512px" height="512px" style="shape-rendering:geometricPrecision; text-rendering:geometricPrecision; image-rendering:optimizeQuality; fill-rule:evenodd; clip-rule:evenodd" xmlns:xlink="http://www.w3.org/1999/xlink">
<g><path style="opacity:0.998" fill="#000000" d="M 122.5,51.5 C 211.167,51.3333 299.834,51.5 388.5,52C 427.333,60.1667 450.833,83.6667 459,122.5C 459.667,211.167 459.667,299.833 459,388.5C 450.833,427.333 427.333,450.833 388.5,459C 299.833,459.667 211.167,459.667 122.5,459C 83.6667,450.833 60.1667,427.333 52,388.5C 51.3333,299.833 51.3333,211.167 52,122.5C 60.347,83.6534 83.847,59.9867 122.5,51.5 Z"/></g>
<g><path style="opacity:1" fill="#fdfdfd" d="M 405.5,164.5 C 405.5,164.833 405.5,165.167 405.5,165.5C 355.5,194.167 305.5,222.833 255.5,251.5C 205.527,222.845 155.527,194.178 105.5,165.5C 105.5,165.167 105.5,164.833 105.5,164.5C 150.891,138.052 196.391,111.719 242,85.5C 242.833,105.508 242.666,125.508 241.5,145.5C 223.833,155.667 206.167,165.833 188.5,176C 187.167,178 187.167,180 188.5,182C 209.833,194.333 231.167,206.667 252.5,219C 253.833,219.667 255.167,219.667 256.5,219C 277.833,206.667 299.167,194.333 320.5,182C 321.574,181.261 322.241,180.261 322.5,179C 321.513,176.679 319.846,175.013 317.5,174C 300.755,164.879 284.255,155.379 268,145.5C 267.5,125.503 267.333,105.503 267.5,85.5C 313.755,111.297 359.755,137.63 405.5,164.5 Z"/></g>
<g><path style="opacity:1" fill="#414141" d="M 105.5,164.5 C 105.5,164.833 105.5,165.167 105.5,165.5C 105.168,218.003 105.501,270.336 106.5,322.5C 106.44,323.043 106.107,323.376 105.5,323.5C 104.169,270.335 104.169,217.335 105.5,164.5 Z"/></g>
<g><path style="opacity:1" fill="#4c4c4c" d="M 405.5,165.5 C 405.832,218.003 405.499,270.336 404.5,322.5C 387.945,312.971 371.445,303.304 355,293.5C 354.667,272.5 354.333,251.5 354,230.5C 353.3,228.968 352.134,227.968 350.5,227.5C 327.588,240.268 305.088,253.601 283,267.5C 282.333,292.833 282.333,318.167 283,343.5C 283.374,344.416 283.874,345.25 284.5,346C 287.017,346.257 289.35,345.59 291.5,344C 307.772,334.052 324.272,324.552 341,315.5C 359.028,324.884 376.528,335.051 393.5,346C 347.576,372.79 301.576,399.29 255.5,425.5C 255.5,367.5 255.5,309.5 255.5,251.5C 305.5,222.833 355.5,194.167 405.5,165.5 Z"/></g>
<g><path style="opacity:1" fill="#7f7f7f" d="M 105.5,165.5 C 155.527,194.178 205.527,222.845 255.5,251.5C 255.5,309.5 255.5,367.5 255.5,425.5C 209.392,399.276 163.392,372.776 117.5,346C 134.492,335.019 151.992,324.852 170,315.5C 186.566,324.867 203.066,334.367 219.5,344C 221.65,345.59 223.983,346.257 226.5,346C 227.661,319.572 227.828,293.072 227,266.5C 205.751,254.126 184.584,241.626 163.5,229C 160.975,228.104 158.808,228.604 157,230.5C 156.667,251.5 156.333,272.5 156,293.5C 139.555,303.304 123.055,312.971 106.5,322.5C 105.501,270.336 105.168,218.003 105.5,165.5 Z"/></g>
<g><path style="opacity:1" fill="#242424" d="M 405.5,164.5 C 406.831,217.335 406.831,270.335 405.5,323.5C 404.893,323.376 404.56,323.043 404.5,322.5C 405.499,270.336 405.832,218.003 405.5,165.5C 405.5,165.167 405.5,164.833 405.5,164.5 Z"/></g>
</svg>
