<?xml version="1.0" encoding="UTF-8"?>
<!DOCTYPE svg PUBLIC "-//W3C//DTD SVG 1.1//EN" "http://www.w3.org/Graphics/SVG/1.1/DTD/svg11.dtd">
<svg xmlns="http://www.w3.org/2000/svg" version="1.1" width="407px" height="455px" style="shape-rendering:geometricPrecision; text-rendering:geometricPrecision; image-rendering:optimizeQuality; fill-rule:evenodd; clip-rule:evenodd" xmlns:xlink="http://www.w3.org/1999/xlink">
<g><path style="opacity:0.009" fill="#000000" d="M 57.5,1.5 C 58.2506,0.426544 59.2506,0.259877 60.5,1C 59.552,1.48278 58.552,1.64945 57.5,1.5 Z"/></g>
<g><path style="opacity:0.008" fill="#000000" d="M 57.5,1.5 C 57.5,1.83333 57.5,2.16667 57.5,2.5C 54.8333,2.16667 54.8333,1.83333 57.5,1.5 Z"/></g>
<g><path style="opacity:0.012" fill="#000000" d="M 53.5,2.5 C 54.8333,3.16667 54.8333,3.16667 53.5,2.5 Z"/></g>
<g><path style="opacity:0.998" fill="#231f20" d="M 364.5,72.5 C 364.5,123.5 364.5,174.5 364.5,225.5C 372.84,225.334 381.173,225.5 389.5,226C 394.252,226.875 398.252,229.041 401.5,232.5C 401.66,234.153 402.326,235.486 403.5,236.5C 404.481,284.477 404.814,332.477 404.5,380.5C 403.662,380.842 403.328,381.508 403.5,382.5C 402.662,382.842 402.328,383.508 402.5,384.5C 401.833,384.5 401.5,384.833 401.5,385.5C 400.833,385.5 400.5,385.833 400.5,386.5C 399.833,386.5 399.5,386.833 399.5,387.5C 398.833,387.5 398.5,387.833 398.5,388.5C 397.833,388.5 397.5,388.833 397.5,389.5C 396.833,389.5 396.5,389.833 396.5,390.5C 395.833,390.5 395.5,390.833 395.5,391.5C 394.833,391.5 394.5,391.833 394.5,392.5C 393.833,392.5 393.5,392.833 393.5,393.5C 392.833,393.5 392.5,393.833 392.5,394.5C 391.833,394.5 391.5,394.833 391.5,395.5C 390.833,395.5 390.5,395.833 390.5,396.5C 389.833,396.5 389.5,396.833 389.5,397.5C 388.833,397.5 388.5,397.833 388.5,398.5C 387.833,398.5 387.5,398.833 387.5,399.5C 386.833,399.5 386.5,399.833 386.5,400.5C 385.833,400.5 385.5,400.833 385.5,401.5C 384.833,401.5 384.5,401.833 384.5,402.5C 383.833,402.5 383.5,402.833 383.5,403.5C 382.833,403.5 382.5,403.833 382.5,404.5C 381.833,404.5 381.5,404.833 381.5,405.5C 380.833,405.5 380.5,405.833 380.5,406.5C 379.833,406.5 379.5,406.833 379.5,407.5C 378.833,407.5 378.5,407.833 378.5,408.5C 377.833,408.5 377.5,408.833 377.5,409.5C 376.833,409.5 376.5,409.833 376.5,410.5C 375.833,410.5 375.5,410.833 375.5,411.5C 374.833,411.5 374.5,411.833 374.5,412.5C 373.833,412.5 373.5,412.833 373.5,413.5C 372.833,413.5 372.5,413.833 372.5,414.5C 371.833,414.5 371.5,414.833 371.5,415.5C 370.833,415.5 370.5,415.833 370.5,416.5C 369.833,416.5 369.5,416.833 369.5,417.5C 368.833,417.5 368.5,417.833 368.5,418.5C 367.833,418.5 367.5,418.833 367.5,419.5C 366.833,419.5 366.5,419.833 366.5,420.5C 365.833,420.5 365.5,420.833 365.5,421.5C 364.776,427.747 363.776,434.08 362.5,440.5C 361.662,440.842 361.328,441.508 361.5,442.5C 359.457,443.579 358.124,445.246 357.5,447.5C 355.973,447.427 354.973,448.094 354.5,449.5C 352.188,450.32 349.854,451.153 347.5,452C 251.5,452.667 155.5,452.667 59.5,452C 57.1457,451.153 54.8123,450.32 52.5,449.5C 52.0269,448.094 51.0269,447.427 49.5,447.5C 47.4952,444.649 45.6618,441.649 44,438.5C 43.1088,432.697 42.2754,427.03 41.5,421.5C 29.5353,409.035 17.3687,396.702 5,384.5C 4.33333,383.167 3.66667,381.833 3,380.5C 2.83333,357.167 2.66667,333.833 2.5,310.5C 2.35227,285.786 2.85227,261.119 4,236.5C 5.83333,232 9,228.833 13.5,227C 23.1003,225.609 32.767,225.109 42.5,225.5C 42.1798,155.811 42.5131,86.1442 43.5,16.5C 46.5,10.1667 51.1667,5.5 57.5,2.5C 136.145,1.34496 214.812,1.1783 293.5,2C 294.833,2.66667 296.167,3.33333 297.5,4C 320.426,26.4238 342.759,49.2571 364.5,72.5 Z"/></g>
<g><path style="opacity:0.012" fill="#000000" d="M 43.5,12.5 C 44.8333,13.1667 44.8333,13.1667 43.5,12.5 Z"/></g>
<g><path style="opacity:0.01" fill="#000000" d="M 43.5,16.5 C 43.1667,16.5 42.8333,16.5 42.5,16.5C 42.8333,13.8333 43.1667,13.8333 43.5,16.5 Z"/></g>
<g><path style="opacity:0.009" fill="#000000" d="M 42.5,16.5 C 42.6495,17.552 42.4828,18.552 42,19.5C 41.2599,18.2506 41.4265,17.2506 42.5,16.5 Z"/></g>
<g><path style="opacity:1" fill="#f0f0f0" d="M 289.5,82.5 C 308.326,83.497 327.326,83.8303 346.5,83.5C 346.5,130.833 346.5,178.167 346.5,225.5C 251.167,225.5 155.833,225.5 60.5,225.5C 60.5,157.167 60.5,88.8333 60.5,20.5C 60.6107,19.8826 60.944,19.3826 61.5,19C 135.499,18.5 209.499,18.3333 283.5,18.5C 283.333,38.1695 283.5,57.8362 284,77.5C 285.055,80.0559 286.888,81.7225 289.5,82.5 Z"/></g>
<g><path style="opacity:1" fill="#b0b0b0" d="M 299.5,30.5 C 311.632,42.1313 323.632,53.9647 335.5,66C 323.505,66.4999 311.505,66.6665 299.5,66.5C 299.5,54.5 299.5,42.5 299.5,30.5 Z"/></g>
<g><path style="opacity:0.01" fill="#000000" d="M 364.5,72.5 C 364.369,71.7611 364.536,71.0944 365,70.5C 365.692,71.4368 365.525,72.1034 364.5,72.5 Z"/></g>
<g><path style="opacity:1" fill="#ed9b41" d="M 224.5,76.5 C 234.788,75.622 237.955,79.9554 234,89.5C 218,126.167 202,162.833 186,199.5C 183.045,203.277 179.212,204.443 174.5,203C 171.311,201.456 170.145,198.956 171,195.5C 186.942,159.283 202.609,122.95 218,86.5C 219.431,82.6262 221.597,79.2928 224.5,76.5 Z"/></g>
<g><path style="opacity:0.004" fill="#000000" d="M 40.5,223.5 C 41.8333,224.167 41.8333,224.167 40.5,223.5 Z"/></g>
<g><path style="opacity:0.004" fill="#000000" d="M 365.5,223.5 C 366.833,224.167 366.833,224.167 365.5,223.5 Z"/></g>
<g><path style="opacity:0.009" fill="#000000" d="M 13.5,225.5 C 14.2506,224.427 15.2506,224.26 16.5,225C 15.552,225.483 14.552,225.649 13.5,225.5 Z"/></g>
<g><path style="opacity:0.009" fill="#000000" d="M 390.5,225.5 C 391.251,224.427 392.251,224.26 393.5,225C 392.552,225.483 391.552,225.649 390.5,225.5 Z"/></g>
<g><path style="opacity:1" fill="#e4e4e4" d="M 60.5,20.5 C 60.5,88.8333 60.5,157.167 60.5,225.5C 155.833,225.5 251.167,225.5 346.5,225.5C 346.5,178.167 346.5,130.833 346.5,83.5C 327.326,83.8303 308.326,83.497 289.5,82.5C 308.833,82.5 328.167,82.5 347.5,82.5C 347.5,130.5 347.5,178.5 347.5,226.5C 251.5,226.5 155.5,226.5 59.5,226.5C 59.1675,157.665 59.5008,88.998 60.5,20.5 Z"/></g>
<g><path style="opacity:1" fill="#ed9b41" d="M 142.5,103.5 C 147.126,102.7 150.96,104.034 154,107.5C 154.706,109.971 154.373,112.305 153,114.5C 142.33,123.008 131.83,131.674 121.5,140.5C 131.834,148.661 142.334,156.661 153,164.5C 156.394,171.272 154.394,174.939 147,175.5C 144.7,175.506 142.534,175.006 140.5,174C 127.063,164.196 113.896,154.03 101,143.5C 99.8175,139.726 100.651,136.559 103.5,134C 116.973,124.351 129.973,114.185 142.5,103.5 Z"/></g>
<g><path style="opacity:1" fill="#ed9b41" d="M 256.5,103.5 C 260.869,102.923 264.869,103.757 268.5,106C 280.5,115.333 292.5,124.667 304.5,134C 307.981,137.397 308.314,141.064 305.5,145C 291.809,154.513 278.476,164.513 265.5,175C 255.438,177.932 251.604,174.432 254,164.5C 264.744,156.212 275.577,148.045 286.5,140C 275.667,131.167 264.833,122.333 254,113.5C 252.861,109.579 253.695,106.246 256.5,103.5 Z"/></g>
<g><path style="opacity:0.008" fill="#000000" d="M 401.5,231.5 C 402.833,232.167 402.833,232.167 401.5,231.5 Z"/></g>
<g><path style="opacity:0.006" fill="#000000" d="M 404.5,236.5 C 404.167,236.5 403.833,236.5 403.5,236.5C 403.833,233.833 404.167,233.833 404.5,236.5 Z"/></g>
<g><path style="opacity:0.009" fill="#000000" d="M 1.5,236.5 C 2.57346,237.251 2.74012,238.251 2,239.5C 1.51722,238.552 1.35055,237.552 1.5,236.5 Z"/></g>
<g><path style="opacity:0.009" fill="#000000" d="M 404.5,236.5 C 405.573,237.251 405.74,238.251 405,239.5C 404.517,238.552 404.351,237.552 404.5,236.5 Z"/></g>
<g><path style="opacity:1" fill="#e2933d" d="M 19.5,242.5 C 142.167,242.5 264.833,242.5 387.5,242.5C 387.5,285.167 387.5,327.833 387.5,370.5C 264.833,370.5 142.167,370.5 19.5,370.5C 19.5,327.833 19.5,285.167 19.5,242.5 Z"/></g>
<g><path style="opacity:1" fill="#ee9b40" d="M 20.5,243.5 C 142.5,243.5 264.5,243.5 386.5,243.5C 386.5,285.5 386.5,327.5 386.5,369.5C 264.5,369.5 142.5,369.5 20.5,369.5C 20.5,327.5 20.5,285.5 20.5,243.5 Z"/></g>
<g><path style="opacity:1" fill="#f9ddbe" d="M 261.5,273.5 C 266.64,272.512 271.974,272.179 277.5,272.5C 277.5,290.5 277.5,308.5 277.5,326.5C 276.503,309.008 276.17,291.341 276.5,273.5C 271.5,273.5 266.5,273.5 261.5,273.5 Z"/></g>
<g><path style="opacity:1" fill="#fefdfb" d="M 194.5,302.5 C 194.291,301.078 193.791,299.745 193,298.5C 192.5,311.829 192.333,325.163 192.5,338.5C 187.167,338.5 181.833,338.5 176.5,338.5C 176.5,316.833 176.5,295.167 176.5,273.5C 183.2,273.17 189.866,273.503 196.5,274.5C 201.973,288.922 207.64,303.256 213.5,317.5C 219.36,303.256 225.027,288.922 230.5,274.5C 237.134,273.503 243.8,273.17 250.5,273.5C 250.5,295.167 250.5,316.833 250.5,338.5C 245.167,338.5 239.833,338.5 234.5,338.5C 234.667,325.496 234.5,312.496 234,299.5C 229.599,312.205 225.099,324.871 220.5,337.5C 215.88,338.493 211.214,338.827 206.5,338.5C 202.7,326.433 198.7,314.433 194.5,302.5 Z"/></g>
<g><path style="opacity:1" fill="#f2b26d" d="M 194.5,302.5 C 193.833,314.5 193.167,326.5 192.5,338.5C 192.333,325.163 192.5,311.829 193,298.5C 193.791,299.745 194.291,301.078 194.5,302.5 Z"/></g>
<g><path style="opacity:1" fill="#fefefd" d="M 261.5,273.5 C 266.5,273.5 271.5,273.5 276.5,273.5C 276.17,291.341 276.503,309.008 277.5,326.5C 284.5,326.5 291.5,326.5 298.5,326.5C 298.5,330.5 298.5,334.5 298.5,338.5C 286.167,338.5 273.833,338.5 261.5,338.5C 261.5,316.833 261.5,295.167 261.5,273.5 Z"/></g>
<g><path style="opacity:1" fill="#fefcfa" d="M 108.5,272.5 C 114.509,272.334 120.509,272.501 126.5,273C 130.671,279.328 135.005,285.495 139.5,291.5C 143.528,285.956 147.195,280.122 150.5,274C 156.5,273.333 162.5,273.333 168.5,274C 161.833,284.667 155.167,295.333 148.5,306C 155.833,316.667 163.167,327.333 170.5,338C 164.141,338.831 157.807,338.664 151.5,337.5C 147,331.167 142.5,324.833 138,318.5C 134.167,325 130.333,331.5 126.5,338C 120.5,338.667 114.5,338.667 108.5,338C 115.58,327.253 122.246,316.253 128.5,305C 121.597,294.274 114.93,283.441 108.5,272.5 Z"/></g>
<g><path style="opacity:0.004" fill="#000000" d="M 0.5,377.5 C 1.52502,377.897 1.69169,378.563 1,379.5C 0.535656,378.906 0.368989,378.239 0.5,377.5 Z"/></g>
<g><path style="opacity:0.004" fill="#000000" d="M 406.5,377.5 C 406.5,378.167 406.5,378.833 406.5,379.5C 405.167,378.833 405.167,378.167 406.5,377.5 Z"/></g>
<g><path style="opacity:0.008" fill="#000000" d="M 404.5,380.5 C 405.833,381.167 405.833,381.833 404.5,382.5C 404.5,381.833 404.5,381.167 404.5,380.5 Z"/></g>
<g><path style="opacity:0.004" fill="#000000" d="M 403.5,382.5 C 403.833,382.5 404.167,382.5 404.5,382.5C 404.672,383.492 404.338,384.158 403.5,384.5C 403.5,383.833 403.5,383.167 403.5,382.5 Z"/></g>
<g><path style="opacity:0.008" fill="#000000" d="M 402.5,384.5 C 402.833,384.5 403.167,384.5 403.5,384.5C 403.315,385.17 402.981,385.17 402.5,384.5 Z"/></g>
<g><path style="opacity:0.012" fill="#000000" d="M 401.5,385.5 C 401.833,385.5 402.167,385.5 402.5,385.5C 402.315,386.17 401.981,386.17 401.5,385.5 Z"/></g>
<g><path style="opacity:0.012" fill="#000000" d="M 400.5,386.5 C 400.833,386.5 401.167,386.5 401.5,386.5C 401.315,387.17 400.981,387.17 400.5,386.5 Z"/></g>
<g><path style="opacity:1" fill="#eeeeee" d="M 59.5,386.5 C 155.5,386.5 251.5,386.5 347.5,386.5C 347.667,402.17 347.5,417.837 347,433.5C 346.167,434.333 345.333,435.167 344.5,436C 250.5,436.667 156.5,436.667 62.5,436C 61.6667,435.167 60.8333,434.333 60,433.5C 59.5001,417.837 59.3334,402.17 59.5,386.5 Z"/></g>
<g><path style="opacity:1" fill="#b76b20" d="M 363.5,386.5 C 367.514,386.334 371.514,386.501 375.5,387C 371.667,390.833 367.833,394.667 364,398.5C 363.501,394.514 363.334,390.514 363.5,386.5 Z"/></g>
<g><path style="opacity:0.012" fill="#000000" d="M 399.5,387.5 C 399.833,387.5 400.167,387.5 400.5,387.5C 400.315,388.17 399.981,388.17 399.5,387.5 Z"/></g>
<g><path style="opacity:1" fill="#b76b20" d="M 31.5,387.5 C 35.2984,386.517 39.2984,386.183 43.5,386.5C 43.6655,390.514 43.4988,394.514 43,398.5C 39.2977,394.63 35.4643,390.963 31.5,387.5 Z"/></g>
<g><path style="opacity:0.012" fill="#000000" d="M 398.5,388.5 C 398.833,388.5 399.167,388.5 399.5,388.5C 399.315,389.17 398.981,389.17 398.5,388.5 Z"/></g>
<g><path style="opacity:0.012" fill="#000000" d="M 397.5,389.5 C 397.833,389.5 398.167,389.5 398.5,389.5C 398.315,390.17 397.981,390.17 397.5,389.5 Z"/></g>
<g><path style="opacity:0.012" fill="#000000" d="M 396.5,390.5 C 396.833,390.5 397.167,390.5 397.5,390.5C 397.315,391.17 396.981,391.17 396.5,390.5 Z"/></g>
<g><path style="opacity:0.012" fill="#000000" d="M 395.5,391.5 C 395.833,391.5 396.167,391.5 396.5,391.5C 396.315,392.17 395.981,392.17 395.5,391.5 Z"/></g>
<g><path style="opacity:0.012" fill="#000000" d="M 394.5,392.5 C 394.833,392.5 395.167,392.5 395.5,392.5C 395.315,393.17 394.981,393.17 394.5,392.5 Z"/></g>
<g><path style="opacity:0.012" fill="#000000" d="M 393.5,393.5 C 393.833,393.5 394.167,393.5 394.5,393.5C 394.315,394.17 393.981,394.17 393.5,393.5 Z"/></g>
<g><path style="opacity:0.012" fill="#000000" d="M 392.5,394.5 C 392.833,394.5 393.167,394.5 393.5,394.5C 393.315,395.17 392.981,395.17 392.5,394.5 Z"/></g>
<g><path style="opacity:0.012" fill="#000000" d="M 391.5,395.5 C 391.833,395.5 392.167,395.5 392.5,395.5C 392.315,396.17 391.981,396.17 391.5,395.5 Z"/></g>
<g><path style="opacity:0.012" fill="#000000" d="M 390.5,396.5 C 390.833,396.5 391.167,396.5 391.5,396.5C 391.315,397.17 390.981,397.17 390.5,396.5 Z"/></g>
<g><path style="opacity:0.012" fill="#000000" d="M 389.5,397.5 C 389.833,397.5 390.167,397.5 390.5,397.5C 390.315,398.17 389.981,398.17 389.5,397.5 Z"/></g>
<g><path style="opacity:0.012" fill="#000000" d="M 388.5,398.5 C 388.833,398.5 389.167,398.5 389.5,398.5C 389.315,399.17 388.981,399.17 388.5,398.5 Z"/></g>
<g><path style="opacity:0.012" fill="#000000" d="M 387.5,399.5 C 387.833,399.5 388.167,399.5 388.5,399.5C 388.315,400.17 387.981,400.17 387.5,399.5 Z"/></g>
<g><path style="opacity:0.012" fill="#000000" d="M 386.5,400.5 C 386.833,400.5 387.167,400.5 387.5,400.5C 387.315,401.17 386.981,401.17 386.5,400.5 Z"/></g>
<g><path style="opacity:0.012" fill="#000000" d="M 385.5,401.5 C 385.833,401.5 386.167,401.5 386.5,401.5C 386.315,402.17 385.981,402.17 385.5,401.5 Z"/></g>
<g><path style="opacity:0.012" fill="#000000" d="M 384.5,402.5 C 384.833,402.5 385.167,402.5 385.5,402.5C 385.315,403.17 384.981,403.17 384.5,402.5 Z"/></g>
<g><path style="opacity:0.012" fill="#000000" d="M 383.5,403.5 C 383.833,403.5 384.167,403.5 384.5,403.5C 384.315,404.17 383.981,404.17 383.5,403.5 Z"/></g>
<g><path style="opacity:0.012" fill="#000000" d="M 382.5,404.5 C 382.833,404.5 383.167,404.5 383.5,404.5C 383.315,405.17 382.981,405.17 382.5,404.5 Z"/></g>
<g><path style="opacity:0.012" fill="#000000" d="M 381.5,405.5 C 381.833,405.5 382.167,405.5 382.5,405.5C 382.315,406.17 381.981,406.17 381.5,405.5 Z"/></g>
<g><path style="opacity:0.012" fill="#000000" d="M 380.5,406.5 C 380.833,406.5 381.167,406.5 381.5,406.5C 381.315,407.17 380.981,407.17 380.5,406.5 Z"/></g>
<g><path style="opacity:0.012" fill="#000000" d="M 379.5,407.5 C 379.833,407.5 380.167,407.5 380.5,407.5C 380.315,408.17 379.981,408.17 379.5,407.5 Z"/></g>
<g><path style="opacity:0.012" fill="#000000" d="M 378.5,408.5 C 378.833,408.5 379.167,408.5 379.5,408.5C 379.315,409.17 378.981,409.17 378.5,408.5 Z"/></g>
<g><path style="opacity:0.012" fill="#000000" d="M 377.5,409.5 C 377.833,409.5 378.167,409.5 378.5,409.5C 378.315,410.17 377.981,410.17 377.5,409.5 Z"/></g>
<g><path style="opacity:0.012" fill="#000000" d="M 376.5,410.5 C 376.833,410.5 377.167,410.5 377.5,410.5C 377.315,411.17 376.981,411.17 376.5,410.5 Z"/></g>
<g><path style="opacity:0.012" fill="#000000" d="M 375.5,411.5 C 375.833,411.5 376.167,411.5 376.5,411.5C 376.315,412.17 375.981,412.17 375.5,411.5 Z"/></g>
<g><path style="opacity:0.012" fill="#000000" d="M 374.5,412.5 C 374.833,412.5 375.167,412.5 375.5,412.5C 375.315,413.17 374.981,413.17 374.5,412.5 Z"/></g>
<g><path style="opacity:0.012" fill="#000000" d="M 373.5,413.5 C 373.833,413.5 374.167,413.5 374.5,413.5C 374.315,414.17 373.981,414.17 373.5,413.5 Z"/></g>
<g><path style="opacity:0.012" fill="#000000" d="M 372.5,414.5 C 372.833,414.5 373.167,414.5 373.5,414.5C 373.315,415.17 372.981,415.17 372.5,414.5 Z"/></g>
<g><path style="opacity:0.012" fill="#000000" d="M 371.5,415.5 C 371.833,415.5 372.167,415.5 372.5,415.5C 372.315,416.17 371.981,416.17 371.5,415.5 Z"/></g>
<g><path style="opacity:0.012" fill="#000000" d="M 370.5,416.5 C 370.833,416.5 371.167,416.5 371.5,416.5C 371.315,417.17 370.981,417.17 370.5,416.5 Z"/></g>
<g><path style="opacity:0.012" fill="#000000" d="M 369.5,417.5 C 369.833,417.5 370.167,417.5 370.5,417.5C 370.315,418.17 369.981,418.17 369.5,417.5 Z"/></g>
<g><path style="opacity:0.012" fill="#000000" d="M 368.5,418.5 C 368.833,418.5 369.167,418.5 369.5,418.5C 369.315,419.17 368.981,419.17 368.5,418.5 Z"/></g>
<g><path style="opacity:0.012" fill="#000000" d="M 367.5,419.5 C 367.833,419.5 368.167,419.5 368.5,419.5C 368.315,420.17 367.981,420.17 367.5,419.5 Z"/></g>
<g><path style="opacity:0.012" fill="#000000" d="M 366.5,420.5 C 366.833,420.5 367.167,420.5 367.5,420.5C 367.315,421.17 366.981,421.17 366.5,420.5 Z"/></g>
<g><path style="opacity:0.012" fill="#000000" d="M 41.5,421.5 C 40.8333,422.167 40.8333,422.167 41.5,421.5 Z"/></g>
<g><path style="opacity:0.012" fill="#000000" d="M 365.5,421.5 C 365.833,421.5 366.167,421.5 366.5,421.5C 366.315,422.17 365.981,422.17 365.5,421.5 Z"/></g>
<g><path style="opacity:0.016" fill="#260500" d="M 41.5,434.5 C 42.5735,435.251 42.7401,436.251 42,437.5C 41.5172,436.552 41.3505,435.552 41.5,434.5 Z"/></g>
<g><path style="opacity:0.016" fill="#230822" d="M 364.5,434.5 C 365.573,435.251 365.74,436.251 365,437.5C 364.517,436.552 364.351,435.552 364.5,434.5 Z"/></g>
<g><path style="opacity:0.008" fill="#000000" d="M 363.5,440.5 C 363.369,439.761 363.536,439.094 364,438.5C 364.692,439.437 364.525,440.103 363.5,440.5 Z"/></g>
<g><path style="opacity:0.008" fill="#000000" d="M 362.5,440.5 C 362.833,440.5 363.167,440.5 363.5,440.5C 363.672,441.492 363.338,442.158 362.5,442.5C 362.5,441.833 362.5,441.167 362.5,440.5 Z"/></g>
<g><path style="opacity:0.012" fill="#000000" d="M 361.5,442.5 C 361.833,442.5 362.167,442.5 362.5,442.5C 362.315,443.17 361.981,443.17 361.5,442.5 Z"/></g>
<g><path style="opacity:0.008" fill="#000000" d="M 49.5,447.5 C 49.5,447.833 49.5,448.167 49.5,448.5C 48.8299,448.019 48.8299,447.685 49.5,447.5 Z"/></g>
<g><path style="opacity:0.008" fill="#000000" d="M 357.5,447.5 C 358.833,448.167 358.833,448.167 357.5,447.5 Z"/></g>
<g><path style="opacity:0.004" fill="#000000" d="M 49.5,448.5 C 50.8333,449.167 50.8333,449.167 49.5,448.5 Z"/></g>
<g><path style="opacity:0.004" fill="#000000" d="M 357.5,448.5 C 356.833,449.167 356.833,449.167 357.5,448.5 Z"/></g>
<g><path style="opacity:0.012" fill="#000000" d="M 52.5,449.5 C 52.5,449.833 52.5,450.167 52.5,450.5C 51.8299,450.019 51.8299,449.685 52.5,449.5 Z"/></g>
<g><path style="opacity:0.012" fill="#000000" d="M 354.5,449.5 C 355.833,450.167 355.833,450.167 354.5,449.5 Z"/></g>
<g><path style="opacity:0.008" fill="#000000" d="M 52.5,450.5 C 53.8333,451.167 53.8333,451.167 52.5,450.5 Z"/></g>
<g><path style="opacity:0.008" fill="#000000" d="M 354.5,450.5 C 353.833,451.167 353.833,451.167 354.5,450.5 Z"/></g>
<g><path style="opacity:0.012" fill="#000000" d="M 54.5,451.5 C 55.8333,452.167 55.8333,452.167 54.5,451.5 Z"/></g>
<g><path style="opacity:0.012" fill="#000000" d="M 351.5,451.5 C 352.833,452.167 352.833,452.167 351.5,451.5 Z"/></g>
<g><path style="opacity:0.01" fill="#000000" d="M 56.5,453.5 C 56.8966,452.475 57.5632,452.308 58.5,453C 57.9056,453.464 57.2389,453.631 56.5,453.5 Z"/></g>
<g><path style="opacity:0.01" fill="#000000" d="M 348.5,453.5 C 348.897,452.475 349.563,452.308 350.5,453C 349.906,453.464 349.239,453.631 348.5,453.5 Z"/></g>
<g><path style="opacity:0.016" fill="#3f003e" d="M 59.5,454.5 C 155.5,453.167 251.5,453.167 347.5,454.5C 251.5,454.5 155.5,454.5 59.5,454.5 Z"/></g>
</svg>
